<svg width="24" height="24" viewBox="0 0 24 24" fill="none" xmlns="http://www.w3.org/2000/svg">
<path fill-rule="evenodd" clip-rule="evenodd" d="M11.9999 6C12.4141 6 12.7499 6.33579 12.7499 6.75V11.25H17.2499C17.6641 11.25 17.9999 11.5858 17.9999 12C17.9999 12.4142 17.6641 12.75 17.2499 12.75H11.9999C11.5857 12.75 11.2499 12.4142 11.2499 12V6.75C11.2499 6.33579 11.5857 6 11.9999 6Z" fill="#219653"/>
<path fill-rule="evenodd" clip-rule="evenodd" d="M11.9999 4.5C7.85774 4.5 4.49988 7.85786 4.49988 12C4.49988 16.1421 7.85774 19.5 11.9999 19.5C16.142 19.5 19.4999 16.1421 19.4999 12C19.4999 7.85786 16.142 4.5 11.9999 4.5ZM2.99988 12C2.99988 7.02944 7.02931 3 11.9999 3C16.9704 3 20.9999 7.02944 20.9999 12C20.9999 16.9706 16.9704 21 11.9999 21C7.02931 21 2.99988 16.9706 2.99988 12Z" fill="#219653"/>
<path fill-rule="evenodd" clip-rule="evenodd" d="M17.835 1.92585C18.1279 1.63295 18.6028 1.63295 18.8957 1.92585L22.0738 5.10397C22.3667 5.39686 22.3667 5.87174 22.0738 6.16463C21.7809 6.45752 21.306 6.45752 21.0132 6.16463L17.835 2.98651C17.5421 2.69361 17.5421 2.21874 17.835 1.92585Z" fill="#219653"/>
<path fill-rule="evenodd" clip-rule="evenodd" d="M6.16451 1.92585C6.4574 2.21874 6.4574 2.69361 6.16451 2.98651L2.98638 6.16463C2.69349 6.45752 2.21862 6.45752 1.92572 6.16463C1.63283 5.87174 1.63283 5.39686 1.92572 5.10397L5.10385 1.92585C5.39674 1.63295 5.87162 1.63295 6.16451 1.92585Z" fill="#219653"/>
</svg>
