<svg width="24" height="24" viewBox="0 0 24 24" fill="none" xmlns="http://www.w3.org/2000/svg">
<path d="M12 21.5625C10.1087 21.5625 8.25991 21.0017 6.68736 19.9509C5.11482 18.9002 3.88917 17.4067 3.16541 15.6594C2.44164 13.9121 2.25227 11.9894 2.62125 10.1344C2.99022 8.2795 3.90096 6.57563 5.2383 5.23829C6.57564 3.90095 8.27951 2.99021 10.1345 2.62124C11.9894 2.25227 13.9121 2.44164 15.6594 3.1654C17.4067 3.88916 18.9002 5.11481 19.9509 6.68736C21.0017 8.2599 21.5625 10.1087 21.5625 12C21.5575 14.5346 20.5485 16.964 18.7562 18.7562C16.964 20.5485 14.5346 21.5575 12 21.5625ZM12 3.5625C10.3312 3.5625 8.69992 4.05735 7.31238 4.98448C5.92484 5.9116 4.84338 7.22936 4.20477 8.77111C3.56616 10.3129 3.39907 12.0094 3.72463 13.6461C4.05019 15.2828 4.85379 16.7862 6.03379 17.9662C7.2138 19.1462 8.71722 19.9498 10.3539 20.2754C11.9906 20.6009 13.6871 20.4338 15.2289 19.7952C16.7706 19.1566 18.0884 18.0752 19.0155 16.6876C19.9427 15.3001 20.4375 13.6688 20.4375 12C20.435 9.763 19.5453 7.61833 17.9635 6.03653C16.3817 4.45473 14.237 3.56498 12 3.5625ZM15.5813 12.9656C15.6849 12.8589 15.7429 12.716 15.7429 12.5672C15.7429 12.4184 15.6849 12.2755 15.5813 12.1688C15.5283 12.1164 15.4652 12.0753 15.396 12.0479C15.3267 12.0205 15.2526 12.0074 15.1781 12.0094C15.1052 12.0082 15.0327 12.0216 14.965 12.049C14.8974 12.0764 14.836 12.1171 14.7844 12.1688L12.5625 14.3906V8.25C12.5625 8.10082 12.5032 7.95774 12.3978 7.85225C12.2923 7.74676 12.1492 7.6875 12 7.6875C11.8508 7.6875 11.7077 7.74676 11.6023 7.85225C11.4968 7.95774 11.4375 8.10082 11.4375 8.25V14.3906L9.21563 12.1688C9.10996 12.0631 8.96664 12.0037 8.81719 12.0037C8.66775 12.0037 8.52443 12.0631 8.41875 12.1688C8.31308 12.2744 8.25372 12.4177 8.25372 12.5672C8.25372 12.7166 8.31308 12.86 8.41875 12.9656L11.6063 16.1437C11.657 16.1971 11.7181 16.2395 11.7858 16.2685C11.8535 16.2975 11.9264 16.3125 12 16.3125C12.0736 16.3125 12.1465 16.2975 12.2142 16.2685C12.2819 16.2395 12.343 16.1971 12.3938 16.1437L15.5813 12.9656Z" fill="#8693A3"/>
</svg>
