<svg width="24" height="24" viewBox="0 0 24 24" fill="none" xmlns="http://www.w3.org/2000/svg">
<path d="M12.7 19.3C12.8833 19.1167 12.9793 18.8833 12.988 18.6C12.996 18.3167 12.9083 18.0833 12.725 17.9L7.825 13H19C19.2833 13 19.521 12.904 19.713 12.712C19.9043 12.5207 20 12.2833 20 12C20 11.7167 19.9043 11.479 19.713 11.287C19.521 11.0957 19.2833 11 19 11H7.825L12.725 6.1C12.9083 5.91667 12.996 5.68334 12.988 5.4C12.9793 5.11667 12.8833 4.88334 12.7 4.7C12.5167 4.51667 12.2833 4.425 12 4.425C11.7167 4.425 11.4833 4.51667 11.3 4.7L4.7 11.3C4.6 11.3833 4.529 11.4873 4.487 11.612C4.44567 11.7373 4.425 11.8667 4.425 12C4.425 12.1333 4.44567 12.2583 4.487 12.375C4.529 12.4917 4.6 12.6 4.7 12.7L11.3 19.3C11.4833 19.4833 11.7167 19.575 12 19.575C12.2833 19.575 12.5167 19.4833 12.7 19.3Z" fill="#121212"/>
</svg>
