<svg width="76" height="76" viewBox="0 0 76 76" fill="none" xmlns="http://www.w3.org/2000/svg">
<path d="M57.3283 57.2531C57.3283 57.2947 57.2946 57.3284 57.253 57.3284C57.2114 57.3284 57.1777 57.2946 57.1777 57.2531C57.1777 57.2116 57.2114 57.1779 57.253 57.1779C57.2946 57.1779 57.3283 57.2115 57.3283 57.2531Z" fill="black" stroke="#8693A3" stroke-width="1.5"/>
<path d="M55.4837 53.0534L56.7671 54.4152" stroke="#8693A3" stroke-width="1.5" stroke-miterlimit="10" stroke-linecap="round" stroke-linejoin="round"/>
<path d="M52.1064 49.4677L53.3472 50.7849" stroke="#8693A3" stroke-width="1.5" stroke-miterlimit="10" stroke-linecap="round" stroke-linejoin="round"/>
<path d="M47.2907 44.3536L50.1318 47.3711" stroke="#8693A3" stroke-width="1.5" stroke-miterlimit="10" stroke-linecap="round" stroke-linejoin="round"/>
<path d="M37.6949 34.1647L40.5181 37.1625" stroke="#8693A3" stroke-width="1.5" stroke-miterlimit="10" stroke-linecap="round" stroke-linejoin="round"/>
<path d="M28.926 24.854L30.9224 26.9736" stroke="#8693A3" stroke-width="1.5" stroke-miterlimit="10" stroke-linecap="round" stroke-linejoin="round"/>
<path d="M32.897 29.0699L35.7202 32.0685" stroke="#8693A3" stroke-width="1.5" stroke-miterlimit="10" stroke-linecap="round" stroke-linejoin="round"/>
<path d="M42.4927 39.2596L45.3159 42.2573" stroke="#8693A3" stroke-width="1.5" stroke-miterlimit="10" stroke-linecap="round" stroke-linejoin="round"/>
<path d="M24.854 28.9259L26.9736 30.9223" stroke="#8693A3" stroke-width="1.5" stroke-miterlimit="10" stroke-linecap="round" stroke-linejoin="round"/>
<path d="M49.4672 52.1069L54.4155 56.7672" stroke="#8693A3" stroke-width="1.5" stroke-miterlimit="10" stroke-linecap="round" stroke-linejoin="round"/>
<path d="M44.3536 47.291L47.3711 50.1322" stroke="#8693A3" stroke-width="1.5" stroke-miterlimit="10" stroke-linecap="round" stroke-linejoin="round"/>
<path d="M34.1648 37.6951L37.1626 40.5183" stroke="#8693A3" stroke-width="1.5" stroke-miterlimit="10" stroke-linecap="round" stroke-linejoin="round"/>
<path d="M29.0697 32.8971L32.0674 35.7212" stroke="#8693A3" stroke-width="1.5" stroke-miterlimit="10" stroke-linecap="round" stroke-linejoin="round"/>
<path d="M39.2597 42.493L42.2573 45.3162" stroke="#8693A3" stroke-width="1.5" stroke-miterlimit="10" stroke-linecap="round" stroke-linejoin="round"/>
<path d="M21.4932 20.0724L20.0724 21.4931" stroke="#8693A3" stroke-width="1.5" stroke-miterlimit="10" stroke-linecap="round" stroke-linejoin="round"/>
<path d="M21.4928 24.1438L24.1436 21.493" stroke="#8693A3" stroke-width="1.5" stroke-miterlimit="10" stroke-linecap="round" stroke-linejoin="round"/>
<path d="M19.7646 17.7291L18.7468 16.7112C18.1847 16.1491 17.2731 16.1491 16.7111 16.7112C16.1489 17.2734 16.1489 18.1849 16.7111 18.747L17.7289 19.7648" stroke="#8693A3" stroke-width="1.5" stroke-miterlimit="10" stroke-linecap="round" stroke-linejoin="round"/>
<path d="M19.7189 27.8621L20.7822 28.9255" stroke="#8693A3" stroke-width="1.5" stroke-miterlimit="10" stroke-linecap="round" stroke-linejoin="round"/>
<path d="M28.9253 20.7825L24.8542 16.7115C23.7293 15.5866 21.9071 15.5866 20.7822 16.7115L16.7112 20.7825C15.5863 21.9074 15.5863 23.7296 16.7112 24.8545L17.5155 25.6587" stroke="#8693A3" stroke-width="1.5" stroke-miterlimit="10" stroke-linecap="round" stroke-linejoin="round"/>
<path d="M29.5617 20.1465L20.1465 29.5618C19.5843 30.1239 19.5843 31.0354 20.1465 31.5975C20.7086 32.1597 21.62 32.1597 22.1823 31.5975L31.5974 22.1822C32.1596 21.6201 32.1596 20.7087 31.5974 20.1465C31.0353 19.5843 30.1239 19.5843 29.5617 20.1465Z" stroke="#8693A3" stroke-width="1.5" stroke-miterlimit="10" stroke-linecap="round" stroke-linejoin="round"/>
<path d="M29.882 32.0853L27.0329 34.9344C26.7515 35.2159 26.3837 35.3557 26.0149 35.3557C25.647 35.3557 25.2784 35.2159 24.9969 34.9344C24.435 34.3725 24.435 33.4605 24.9969 32.8985L32.8985 24.9969C33.1799 24.7154 33.5478 24.5756 33.9166 24.5756C34.2852 24.5756 34.653 24.7154 34.9345 24.9969C35.4965 25.5597 35.4965 26.4708 34.9345 27.0328L32.0854 29.8819" stroke="#8693A3" stroke-width="1.5" stroke-miterlimit="10" stroke-linecap="round" stroke-linejoin="round"/>
<path d="M37.8449 29.9434L29.9436 37.8448C29.3814 38.407 29.3814 39.3184 29.9436 39.8805C30.5057 40.4427 31.4171 40.4427 31.9794 39.8805L39.8806 31.9791C40.4428 31.417 40.4428 30.5056 39.8806 29.9434C39.3185 29.3813 38.4071 29.3813 37.8449 29.9434Z" stroke="#8693A3" stroke-width="1.5" stroke-miterlimit="10" stroke-linecap="round" stroke-linejoin="round"/>
<path d="M41.8913 35.7894L35.7893 41.8914C35.2272 42.4536 35.2272 43.365 35.7893 43.9271C36.3514 44.4893 37.2629 44.4893 37.8251 43.9271L43.927 37.8251C44.4892 37.2629 44.4892 36.3516 43.927 35.7894C43.3649 35.2272 42.4535 35.2272 41.8913 35.7894Z" stroke="#8693A3" stroke-width="1.5" stroke-miterlimit="10" stroke-linecap="round" stroke-linejoin="round"/>
<path d="M45.9377 41.6353L41.635 45.9379C41.0729 46.5001 41.0729 47.4115 41.635 47.9736C42.1972 48.5358 43.1086 48.5358 43.6708 47.9736L47.9734 43.671C48.5356 43.1089 48.5356 42.1975 47.9734 41.6353C47.4113 41.0732 46.4999 41.0732 45.9377 41.6353Z" stroke="#8693A3" stroke-width="1.5" stroke-miterlimit="10" stroke-linecap="round" stroke-linejoin="round"/>
<path d="M50.9025 46.6002L46.5998 50.9028C46.0377 51.4649 46.0377 52.3763 46.5998 52.9385C47.162 53.5006 48.0734 53.5006 48.6356 52.9385L52.9382 48.6359C53.5004 48.0737 53.5004 47.1623 52.9382 46.6002C52.3761 46.038 51.4647 46.038 50.9025 46.6002Z" stroke="#8693A3" stroke-width="1.5" stroke-miterlimit="10" stroke-linecap="round" stroke-linejoin="round"/>
<path d="M54.3739 57.2531C54.3739 55.6631 55.6629 54.3742 57.2529 54.3742C58.8429 54.3742 60.1318 55.6631 60.1318 57.2531C60.1318 58.8432 58.8429 60.1321 57.2529 60.1321C55.6629 60.1321 54.3739 58.8432 54.3739 57.2531Z" stroke="#8693A3" stroke-width="1.5" stroke-miterlimit="10" stroke-linecap="round" stroke-linejoin="round"/>
</svg>
