<svg width="76" height="76" viewBox="0 0 76 76" fill="none" xmlns="http://www.w3.org/2000/svg">
<path d="M54.0745 22.7795C50.0907 18.915 44.6563 16.5359 38.6677 16.5359C36.9088 16.5359 35.1986 16.7414 33.5581 17.1295M17.1576 33.4373C16.7512 35.1145 16.5356 36.866 16.5356 38.668C16.5356 50.891 26.4446 60.8001 38.6677 60.8001C50.8907 60.8001 60.7998 50.891 60.7998 38.668C60.7998 33.5887 59.0887 28.9094 56.2123 25.1742" stroke="#8693A3" stroke-width="1.5" stroke-miterlimit="10" stroke-linecap="round" stroke-linejoin="round"/>
<path d="M27.351 54.0307C30.5173 56.3666 34.4314 57.7475 38.6675 57.7475C49.2051 57.7475 57.7471 49.2055 57.7471 38.6679C57.7471 28.1303 49.2051 19.5883 38.6675 19.5883C37.1619 19.5883 35.6975 19.7627 34.2928 20.0921M20.1146 34.1987C19.7705 35.6319 19.5879 37.1293 19.5879 38.6679C19.5879 43.8133 21.6248 48.4843 24.937 51.9158" stroke="#8693A3" stroke-width="1.5" stroke-miterlimit="10" stroke-linecap="round" stroke-linejoin="round"/>
<path d="M38.6675 40.1942C39.5105 40.1942 40.1938 39.5108 40.1938 38.6678C40.1938 37.8248 39.5105 37.1414 38.6675 37.1414C37.8245 37.1414 37.1411 37.8248 37.1411 38.6678C37.1411 39.5108 37.8245 40.1942 38.6675 40.1942ZM38.6675 34.0887C41.1924 34.0887 43.2466 36.1429 43.2466 38.6678C43.2466 41.1927 41.1924 43.2469 38.6675 43.2469C36.1425 43.2469 34.0884 41.1927 34.0884 38.6678C34.0884 36.1429 36.1425 34.0887 38.6675 34.0887Z" stroke="#8693A3" stroke-width="1.5" stroke-miterlimit="10" stroke-linecap="round" stroke-linejoin="round"/>
<path d="M37.9519 31.0359C37.9519 31.4311 38.2723 31.7514 38.6673 31.7514C39.0625 31.7514 39.3828 31.4311 39.3828 31.0359C39.3828 30.6408 39.0625 30.3205 38.6673 30.3205C38.2723 30.3205 37.9519 30.6408 37.9519 31.0359Z" fill="#8693A3"/>
<path d="M36.9982 28.5554C36.9982 28.9506 37.3186 29.2709 37.7136 29.2709C38.1088 29.2709 38.4292 28.9506 38.4292 28.5554C38.4292 28.1602 38.1088 27.8399 37.7136 27.8399C37.3186 27.8399 36.9982 28.1602 36.9982 28.5554Z" fill="#8693A3"/>
<path d="M41.864 31.7007C41.6665 32.0429 41.7837 32.4805 42.1258 32.678C42.4681 32.8757 42.9057 32.7584 43.1033 32.4162C43.3008 32.0739 43.1836 31.6364 42.8413 31.4388C42.4992 31.2412 42.0615 31.3586 41.864 31.7007Z" fill="#8693A3"/>
<path d="M42.2776 29.0755C42.08 29.4178 42.1973 29.8553 42.5394 30.0529C42.8817 30.2505 43.3193 30.1332 43.5168 29.791C43.7144 29.4488 43.5971 29.0112 43.2549 28.8137C42.9128 28.616 42.4751 28.7334 42.2776 29.0755Z" fill="#8693A3"/>
<path d="M42.6916 26.4505C42.4941 26.7927 42.6113 27.2303 42.9535 27.4278C43.2957 27.6254 43.7334 27.5082 43.9309 27.1659C44.1284 26.8237 44.0112 26.3861 43.669 26.1886C43.3268 25.991 42.8892 26.1082 42.6916 26.4505Z" fill="#8693A3"/>
<path d="M43.1057 23.8255C42.9082 24.1676 43.0254 24.6053 43.3675 24.8028C43.7098 25.0004 44.1474 24.8832 44.345 24.5409C44.5425 24.1987 44.4253 23.7611 44.083 23.5636C43.7409 23.366 43.3032 23.4832 43.1057 23.8255Z" fill="#8693A3"/>
<path d="M44.9193 34.2323C44.5772 34.4298 44.4599 34.8675 44.6574 35.2096C44.855 35.5518 45.2925 35.6691 45.6348 35.4716C45.977 35.274 46.0943 34.8364 45.8967 34.4941C45.6991 34.152 45.2615 34.0347 44.9193 34.2323Z" fill="#8693A3"/>
<path d="M46.5902 32.1658C46.248 32.3634 46.1307 32.801 46.3284 33.1431C46.5259 33.4854 46.9635 33.6026 47.3057 33.4051C47.6479 33.2075 47.7652 32.7699 47.5676 32.4277C47.37 32.0855 46.9324 31.9683 46.5902 32.1658Z" fill="#8693A3"/>
<path d="M48.2616 30.0995C47.9194 30.2971 47.8021 30.7347 47.9998 31.0769C48.1973 31.419 48.6349 31.5363 48.9771 31.3387C49.3193 31.1412 49.4366 30.7036 49.2389 30.3613C49.0414 30.0192 48.6038 29.9019 48.2616 30.0995Z" fill="#8693A3"/>
<path d="M49.9325 28.0331C49.5903 28.2307 49.473 28.6682 49.6707 29.0105C49.8682 29.3527 50.3058 29.4699 50.648 29.2724C50.9902 29.0748 51.1075 28.6372 50.9098 28.295C50.7123 27.9528 50.2747 27.8356 49.9325 28.0331Z" fill="#8693A3"/>
<path d="M46.2997 37.9523C45.9045 37.9523 45.5842 38.2726 45.5842 38.6678C45.5842 39.0628 45.9045 39.3832 46.2997 39.3832C46.6948 39.3832 47.0151 39.0628 47.0151 38.6678C47.0151 38.2726 46.6948 37.9523 46.2997 37.9523Z" fill="#8693A3"/>
<path d="M48.7801 36.9983C48.385 36.9983 48.0647 37.3186 48.0647 37.7138C48.0647 38.109 48.385 38.4293 48.7801 38.4293C49.1753 38.4293 49.4956 38.109 49.4956 37.7138C49.4956 37.3186 49.1753 36.9983 48.7801 36.9983Z" fill="#8693A3"/>
<path d="M51.2601 36.0444C50.8649 36.0444 50.5446 36.3647 50.5446 36.7599C50.5446 37.155 50.8649 37.4753 51.2601 37.4753C51.6553 37.4753 51.9756 37.155 51.9756 36.7599C51.9756 36.3647 51.6553 36.0444 51.2601 36.0444Z" fill="#8693A3"/>
<path d="M53.7406 35.0904C53.3454 35.0904 53.0251 35.4108 53.0251 35.8059C53.0251 36.201 53.3454 36.5214 53.7406 36.5214C54.1358 36.5214 54.4561 36.201 54.4561 35.8059C54.4561 35.4108 54.1358 35.0904 53.7406 35.0904Z" fill="#8693A3"/>
<path d="M45.6348 41.8641C45.2926 41.6665 44.855 41.7838 44.6575 42.1259C44.4599 42.4682 44.5771 42.9057 44.9194 43.1033C45.2616 43.3009 45.6991 43.1836 45.8967 42.8414C46.0943 42.4992 45.977 42.0616 45.6348 41.8641Z" fill="#8693A3"/>
<path d="M48.2598 42.2782C47.9176 42.0806 47.48 42.1979 47.2825 42.5401C47.0849 42.8823 47.2021 43.3199 47.5444 43.5174C47.8866 43.715 48.3241 43.5978 48.5217 43.2555C48.7193 42.9133 48.602 42.4757 48.2598 42.2782Z" fill="#8693A3"/>
<path d="M50.8848 42.6922C50.5426 42.4946 50.105 42.6119 49.9075 42.954C49.7098 43.2963 49.8271 43.7338 50.1693 43.9315C50.5116 44.129 50.9491 44.0117 51.1467 43.6695C51.3443 43.3273 51.227 42.8897 50.8848 42.6922Z" fill="#8693A3"/>
<path d="M53.5098 43.1061C53.1677 42.9085 52.73 43.0259 52.5325 43.368C52.3348 43.7102 52.4521 44.1478 52.7943 44.3453C53.1366 44.543 53.5741 44.4257 53.7717 44.0835C53.9693 43.7412 53.852 43.3037 53.5098 43.1061Z" fill="#8693A3"/>
<path d="M43.1033 44.9194C42.9057 44.5772 42.4682 44.4599 42.1259 44.6575C41.7837 44.8551 41.6665 45.2926 41.864 45.6349C42.0615 45.9771 42.4992 46.0944 42.8414 45.8967C43.1835 45.6992 43.3008 45.2615 43.1033 44.9194Z" fill="#8693A3"/>
<path d="M45.1697 46.5906C44.9721 46.2484 44.5346 46.1311 44.1923 46.3287C43.8501 46.5263 43.7329 46.9638 43.9304 47.3061C44.1279 47.6483 44.5656 47.7656 44.9078 47.5679C45.25 47.3704 45.3672 46.9327 45.1697 46.5906Z" fill="#8693A3"/>
<path d="M47.2356 48.2616C47.038 47.9194 46.6004 47.8021 46.2582 47.9998C45.916 48.1973 45.7988 48.6349 45.9963 48.9771C46.1939 49.3193 46.6315 49.4366 46.9737 49.2389C47.3159 49.0414 47.4331 48.6038 47.2356 48.2616Z" fill="#8693A3"/>
<path d="M49.302 49.9327C49.1045 49.5905 48.6669 49.4732 48.3247 49.6708C47.9824 49.8684 47.8652 50.3059 48.0627 50.6482C48.2604 50.9904 48.6979 51.1077 49.0401 50.91C49.3823 50.7125 49.4995 50.2749 49.302 49.9327Z" fill="#8693A3"/>
<path d="M39.3828 46.2996C39.3828 45.9044 39.0625 45.5841 38.6673 45.5841C38.2723 45.5841 37.9519 45.9044 37.9519 46.2996C37.9519 46.6948 38.2723 47.0151 38.6673 47.0151C39.0625 47.0151 39.3828 46.6948 39.3828 46.2996Z" fill="#8693A3"/>
<path d="M40.3369 48.7801C40.3369 48.385 40.0166 48.0647 39.6214 48.0647C39.2263 48.0647 38.906 48.385 38.906 48.7801C38.906 49.1753 39.2263 49.4956 39.6214 49.4956C40.0166 49.4956 40.3369 49.1753 40.3369 48.7801Z" fill="#8693A3"/>
<path d="M41.291 51.2605C41.291 50.8653 40.9707 50.545 40.5755 50.545C40.1804 50.545 39.8601 50.8653 39.8601 51.2605C39.8601 51.6557 40.1804 51.976 40.5755 51.976C40.9707 51.976 41.291 51.6557 41.291 51.2605Z" fill="#8693A3"/>
<path d="M42.2451 53.7408C42.2451 53.3457 41.9247 53.0254 41.5296 53.0254C41.1345 53.0254 40.8141 53.3457 40.8141 53.7408C40.8141 54.136 41.1345 54.4563 41.5296 54.4563C41.9247 54.4563 42.2451 54.136 42.2451 53.7408Z" fill="#8693A3"/>
<path d="M35.4714 45.6349C35.669 45.2927 35.5517 44.8551 35.2095 44.6575C34.8673 44.4599 34.4297 44.5772 34.2322 44.9194C34.0346 45.2616 34.1518 45.6992 34.4941 45.8967C34.8363 46.0944 35.2739 45.9771 35.4714 45.6349Z" fill="#8693A3"/>
<path d="M35.0573 48.2601C35.255 47.9179 35.1376 47.4803 34.7955 47.2827C34.4532 47.0851 34.0157 47.2023 33.8181 47.5446C33.6205 47.8868 33.7378 48.3244 34.08 48.5219C34.4222 48.7195 34.8598 48.6023 35.0573 48.2601Z" fill="#8693A3"/>
<path d="M34.6433 50.8851C34.8408 50.5429 34.7236 50.1053 34.3814 49.9077C34.0392 49.7101 33.6017 49.8273 33.4041 50.1696C33.2065 50.5118 33.3237 50.9494 33.666 51.1469C34.0082 51.3445 34.4458 51.2273 34.6433 50.8851Z" fill="#8693A3"/>
<path d="M34.2292 53.5101C34.4268 53.1679 34.3095 52.7303 33.9673 52.5327C33.6251 52.3352 33.1876 52.4524 32.99 52.7946C32.7924 53.1369 32.9096 53.5744 33.2519 53.772C33.5941 53.9695 34.0317 53.8523 34.2292 53.5101Z" fill="#8693A3"/>
<path d="M32.4161 43.1033C32.7583 42.9057 32.8755 42.4682 32.6779 42.126C32.4804 41.7837 32.0428 41.6665 31.7006 41.8641C31.3584 42.0616 31.2411 42.4992 31.4387 42.8414C31.6363 43.1836 32.0739 43.3009 32.4161 43.1033Z" fill="#8693A3"/>
<path d="M30.7447 45.1697C31.0869 44.9722 31.2042 44.5346 31.0065 44.1924C30.809 43.8501 30.3714 43.7329 30.0292 43.9305C29.687 44.128 29.5697 44.5656 29.7673 44.9078C29.9649 45.25 30.4025 45.3673 30.7447 45.1697Z" fill="#8693A3"/>
<path d="M29.0738 47.2361C29.416 47.0385 29.5333 46.6009 29.3356 46.2588C29.1381 45.9165 28.7005 45.7993 28.3583 45.9968C28.0161 46.1943 27.8988 46.632 28.0964 46.9742C28.294 47.3164 28.7315 47.4336 29.0738 47.2361Z" fill="#8693A3"/>
<path d="M27.4029 49.3024C27.7451 49.1048 27.8624 48.6672 27.6647 48.325C27.4672 47.9829 27.0296 47.8656 26.6874 48.0631C26.3452 48.2607 26.2279 48.6983 26.4255 49.0406C26.6231 49.3827 27.0607 49.5 27.4029 49.3024Z" fill="#8693A3"/>
<path d="M31.0355 39.3833C31.4307 39.3833 31.751 39.0629 31.751 38.6678C31.751 38.2727 31.4307 37.9524 31.0355 37.9524C30.6403 37.9524 30.32 38.2727 30.32 38.6678C30.32 39.0629 30.6403 39.3833 31.0355 39.3833Z" fill="#8693A3"/>
<path d="M28.555 40.3373C28.9502 40.3373 29.2705 40.0169 29.2705 39.6218C29.2705 39.2266 28.9502 38.9062 28.555 38.9062C28.1599 38.9062 27.8396 39.2266 27.8396 39.6218C27.8396 40.0169 28.1599 40.3373 28.555 40.3373Z" fill="#8693A3"/>
<path d="M26.0751 41.2912C26.4702 41.2912 26.7905 40.9708 26.7905 40.5757C26.7905 40.1806 26.4702 39.8603 26.0751 39.8603C25.6799 39.8603 25.3596 40.1806 25.3596 40.5757C25.3596 40.9708 25.6799 41.2912 26.0751 41.2912Z" fill="#8693A3"/>
<path d="M23.5946 42.2452C23.9898 42.2452 24.3101 41.9249 24.3101 41.5298C24.3101 41.1346 23.9898 40.8143 23.5946 40.8143C23.1994 40.8143 22.8791 41.1346 22.8791 41.5298C22.8791 41.9249 23.1994 42.2452 23.5946 42.2452Z" fill="#8693A3"/>
<path d="M31.7006 35.4715C32.0427 35.669 32.4804 35.5518 32.6779 35.2096C32.8755 34.8674 32.7583 34.4298 32.4161 34.2322C32.0738 34.0347 31.6363 34.1519 31.4387 34.4942C31.2411 34.8363 31.3584 35.274 31.7006 35.4715Z" fill="#8693A3"/>
<path d="M29.0756 35.0574C29.4177 35.255 29.8554 35.1377 30.0529 34.7956C30.2505 34.4533 30.1333 34.0157 29.7911 33.8182C29.4488 33.6206 29.0113 33.7379 28.8137 34.0801C28.6161 34.4222 28.7334 34.8599 29.0756 35.0574Z" fill="#8693A3"/>
<path d="M34.2322 32.4162C34.4297 32.7583 34.8673 32.8756 35.2095 32.678C35.5517 32.4805 35.669 32.0429 35.4714 31.7007C35.2738 31.3585 34.8363 31.2412 34.494 31.4388C34.1519 31.6364 34.0346 32.0739 34.2322 32.4162Z" fill="#8693A3"/>
<path d="M32.1658 30.745C32.3633 31.0872 32.8009 31.2044 33.1431 31.0069C33.4853 30.8094 33.6026 30.3718 33.405 30.0296C33.2074 29.6873 32.7699 29.5701 32.4276 29.7676C32.0855 29.9652 31.9681 30.4028 32.1658 30.745Z" fill="#8693A3"/>
<path d="M18.7503 21.0197C17.4548 22.4978 16.3391 24.1218 15.4243 25.8504C14.9023 26.8349 15.3225 28.0552 16.3437 28.5011L16.818 28.7075C17.1006 28.8304 17.2346 29.1552 17.1208 29.4415C16.8703 30.0728 16.6501 30.7132 16.4602 31.3609C16.1427 32.4408 16.8217 33.5593 17.9264 33.774C19.398 34.0602 20.7046 34.3135 22.8231 34.7254C23.7617 34.9071 24.7012 34.3704 24.9985 33.4602C25.6288 31.5261 26.7133 29.7067 28.2511 28.1689C29.7888 26.6312 31.6082 25.5467 33.5433 24.9154C34.4525 24.6191 34.9893 23.6805 34.8076 22.7419L33.8561 17.8433C33.6433 16.7469 32.5349 16.0578 31.4624 16.3716C30.754 16.579 30.054 16.823 29.3649 17.1019C29.0768 17.2194 28.7484 17.0863 28.6245 16.8019L28.4254 16.345C27.9786 15.3192 26.7509 14.8999 25.7655 15.4302C24.0645 16.3468 22.468 17.4589 21.0138 18.7452" stroke="#8693A3" stroke-width="1.5" stroke-miterlimit="10" stroke-linecap="round" stroke-linejoin="round"/>
<path d="M24.0541 23.9719C25.1886 22.8374 26.4602 21.8525 27.8304 21.0404C28.5949 20.5871 29.5841 20.8875 29.972 21.6871C30.3139 22.3917 30.0684 23.2465 29.3966 23.6488C28.2408 24.3409 27.1679 25.1753 26.2127 26.1305C25.2576 27.0856 24.4231 28.1586 23.7311 29.3143C23.3287 29.9862 22.474 30.2317 21.7694 29.8898C20.9698 29.5018 20.6694 28.5126 21.1226 27.7482C21.9349 26.3779 22.9197 25.1063 24.0541 23.9719Z" stroke="#8693A3" stroke-width="1.5" stroke-miterlimit="10" stroke-linecap="round" stroke-linejoin="round"/>
<path d="M21.408 22.3361C21.6873 22.6155 22.1404 22.6155 22.4198 22.3361C22.6993 22.0567 22.6993 21.6037 22.4198 21.3243C22.1404 21.0449 21.6873 21.0449 21.408 21.3243C21.1286 21.6037 21.1286 22.0567 21.408 22.3361Z" fill="#8693A3"/>
<path d="M24.3082 19.74C24.5349 20.0637 24.981 20.1423 25.3046 19.9157C25.6284 19.689 25.7071 19.2429 25.4804 18.9192C25.2537 18.5955 24.8076 18.5168 24.4839 18.7435C24.1602 18.9702 24.0816 19.4163 24.3082 19.74Z" fill="#8693A3"/>
<path d="M19.8238 24.2245C20.1475 24.4511 20.2261 24.8973 19.9995 25.2209C19.7728 25.5447 19.3267 25.6233 19.003 25.3966C18.6793 25.17 18.6006 24.7239 18.8273 24.4002C19.054 24.0765 19.5001 23.9979 19.8238 24.2245Z" fill="#8693A3"/>
</svg>
