<svg width="76" height="76" viewBox="0 0 76 76" fill="none" xmlns="http://www.w3.org/2000/svg">
<path d="M21.9255 22.7795C25.9093 18.915 31.3437 16.5359 37.3323 16.5359C39.0912 16.5359 40.8014 16.7414 42.4419 17.1295M58.8424 33.4373C59.2488 35.1145 59.4644 36.866 59.4644 38.668C59.4644 50.891 49.5554 60.8001 37.3323 60.8001C25.1093 60.8001 15.2002 50.891 15.2002 38.668C15.2002 33.5887 16.9113 28.9094 19.7877 25.1742" stroke="#8693A3" stroke-width="1.5" stroke-miterlimit="10" stroke-linecap="round" stroke-linejoin="round"/>
<path d="M48.649 54.0307C45.4827 56.3666 41.5686 57.7475 37.3325 57.7475C26.7949 57.7475 18.2529 49.2055 18.2529 38.6679C18.2529 28.1303 26.7949 19.5883 37.3325 19.5883C38.8381 19.5883 40.3025 19.7627 41.7072 20.0921M55.8854 34.1987C56.2295 35.6319 56.4121 37.1293 56.4121 38.6679C56.4121 43.8133 54.3752 48.4843 51.063 51.9158" stroke="#8693A3" stroke-width="1.5" stroke-miterlimit="10" stroke-linecap="round" stroke-linejoin="round"/>
<path d="M37.3325 40.1942C36.4895 40.1942 35.8062 39.5108 35.8062 38.6678C35.8062 37.8248 36.4895 37.1414 37.3325 37.1414C38.1755 37.1414 38.8589 37.8248 38.8589 38.6678C38.8589 39.5108 38.1755 40.1942 37.3325 40.1942ZM37.3325 34.0887C34.8076 34.0887 32.7534 36.1429 32.7534 38.6678C32.7534 41.1927 34.8076 43.2469 37.3325 43.2469C39.8575 43.2469 41.9116 41.1927 41.9116 38.6678C41.9116 36.1429 39.8575 34.0887 37.3325 34.0887Z" stroke="#8693A3" stroke-width="1.5" stroke-miterlimit="10" stroke-linecap="round" stroke-linejoin="round"/>
<path d="M38.0481 31.0359C38.0481 31.4311 37.7277 31.7514 37.3327 31.7514C36.9375 31.7514 36.6172 31.4311 36.6172 31.0359C36.6172 30.6408 36.9375 30.3205 37.3327 30.3205C37.7277 30.3205 38.0481 30.6408 38.0481 31.0359Z" fill="#8693A3"/>
<path d="M39.0018 28.5554C39.0018 28.9506 38.6814 29.2709 38.2864 29.2709C37.8912 29.2709 37.5708 28.9506 37.5708 28.5554C37.5708 28.1602 37.8912 27.8399 38.2864 27.8399C38.6814 27.8399 39.0018 28.1602 39.0018 28.5554Z" fill="#8693A3"/>
<path d="M34.136 31.7007C34.3335 32.0429 34.2163 32.4805 33.8742 32.678C33.5319 32.8757 33.0943 32.7584 32.8967 32.4162C32.6992 32.0739 32.8164 31.6364 33.1587 31.4388C33.5008 31.2412 33.9385 31.3586 34.136 31.7007Z" fill="#8693A3"/>
<path d="M33.7224 29.0755C33.92 29.4178 33.8027 29.8553 33.4606 30.0529C33.1183 30.2505 32.6807 30.1332 32.4832 29.791C32.2856 29.4488 32.4029 29.0112 32.7451 28.8137C33.0872 28.616 33.5249 28.7334 33.7224 29.0755Z" fill="#8693A3"/>
<path d="M33.3084 26.4505C33.5059 26.7927 33.3887 27.2303 33.0465 27.4278C32.7043 27.6254 32.2666 27.5082 32.0691 27.1659C31.8716 26.8237 31.9888 26.3861 32.331 26.1886C32.6732 25.991 33.1108 26.1082 33.3084 26.4505Z" fill="#8693A3"/>
<path d="M32.8943 23.8255C33.0918 24.1676 32.9746 24.6053 32.6325 24.8028C32.2902 25.0004 31.8526 24.8832 31.655 24.5409C31.4575 24.1987 31.5747 23.7611 31.917 23.5636C32.2591 23.366 32.6968 23.4832 32.8943 23.8255Z" fill="#8693A3"/>
<path d="M31.0807 34.2323C31.4228 34.4298 31.5401 34.8675 31.3426 35.2096C31.145 35.5518 30.7075 35.6691 30.3652 35.4716C30.023 35.274 29.9057 34.8364 30.1033 34.4941C30.3009 34.152 30.7385 34.0347 31.0807 34.2323Z" fill="#8693A3"/>
<path d="M29.4098 32.1658C29.752 32.3634 29.8693 32.801 29.6716 33.1431C29.4741 33.4854 29.0365 33.6026 28.6943 33.4051C28.3521 33.2075 28.2348 32.7699 28.4324 32.4277C28.63 32.0855 29.0676 31.9683 29.4098 32.1658Z" fill="#8693A3"/>
<path d="M27.7384 30.0995C28.0806 30.2971 28.1979 30.7347 28.0002 31.0769C27.8027 31.419 27.3651 31.5363 27.0229 31.3387C26.6807 31.1412 26.5634 30.7036 26.7611 30.3613C26.9586 30.0192 27.3962 29.9019 27.7384 30.0995Z" fill="#8693A3"/>
<path d="M26.0675 28.0331C26.4097 28.2307 26.527 28.6682 26.3293 29.0105C26.1318 29.3527 25.6942 29.4699 25.352 29.2724C25.0098 29.0748 24.8925 28.6372 25.0902 28.295C25.2877 27.9528 25.7253 27.8356 26.0675 28.0331Z" fill="#8693A3"/>
<path d="M29.7003 37.9523C30.0955 37.9523 30.4158 38.2726 30.4158 38.6678C30.4158 39.0628 30.0955 39.3832 29.7003 39.3832C29.3052 39.3832 28.9849 39.0628 28.9849 38.6678C28.9849 38.2726 29.3052 37.9523 29.7003 37.9523Z" fill="#8693A3"/>
<path d="M27.2199 36.9983C27.615 36.9983 27.9353 37.3186 27.9353 37.7138C27.9353 38.109 27.615 38.4293 27.2199 38.4293C26.8247 38.4293 26.5044 38.109 26.5044 37.7138C26.5044 37.3186 26.8247 36.9983 27.2199 36.9983Z" fill="#8693A3"/>
<path d="M24.7399 36.0444C25.1351 36.0444 25.4554 36.3647 25.4554 36.7599C25.4554 37.155 25.1351 37.4753 24.7399 37.4753C24.3447 37.4753 24.0244 37.155 24.0244 36.7599C24.0244 36.3647 24.3447 36.0444 24.7399 36.0444Z" fill="#8693A3"/>
<path d="M22.2594 35.0904C22.6546 35.0904 22.9749 35.4108 22.9749 35.8059C22.9749 36.201 22.6546 36.5214 22.2594 36.5214C21.8642 36.5214 21.5439 36.201 21.5439 35.8059C21.5439 35.4108 21.8642 35.0904 22.2594 35.0904Z" fill="#8693A3"/>
<path d="M30.3652 41.8641C30.7074 41.6665 31.145 41.7838 31.3425 42.1259C31.5401 42.4682 31.4229 42.9057 31.0806 43.1033C30.7384 43.3009 30.3009 43.1836 30.1033 42.8414C29.9057 42.4992 30.023 42.0616 30.3652 41.8641Z" fill="#8693A3"/>
<path d="M27.7402 42.2782C28.0824 42.0806 28.52 42.1979 28.7175 42.5401C28.9151 42.8823 28.7979 43.3199 28.4556 43.5174C28.1134 43.715 27.6759 43.5978 27.4783 43.2555C27.2807 42.9133 27.398 42.4757 27.7402 42.2782Z" fill="#8693A3"/>
<path d="M25.1152 42.6922C25.4574 42.4946 25.895 42.6119 26.0925 42.954C26.2902 43.2963 26.1729 43.7338 25.8307 43.9315C25.4884 44.129 25.0509 44.0117 24.8533 43.6695C24.6557 43.3273 24.773 42.8897 25.1152 42.6922Z" fill="#8693A3"/>
<path d="M22.4902 43.1061C22.8323 42.9085 23.27 43.0259 23.4675 43.368C23.6652 43.7102 23.5479 44.1478 23.2057 44.3453C22.8634 44.543 22.4259 44.4257 22.2283 44.0835C22.0307 43.7412 22.148 43.3037 22.4902 43.1061Z" fill="#8693A3"/>
<path d="M32.8967 44.9194C33.0943 44.5772 33.5318 44.4599 33.8741 44.6575C34.2163 44.8551 34.3335 45.2926 34.136 45.6349C33.9385 45.9771 33.5008 46.0944 33.1586 45.8967C32.8165 45.6992 32.6992 45.2615 32.8967 44.9194Z" fill="#8693A3"/>
<path d="M30.8303 46.5906C31.0279 46.2484 31.4654 46.1311 31.8077 46.3287C32.1499 46.5263 32.2671 46.9638 32.0696 47.3061C31.8721 47.6483 31.4344 47.7656 31.0922 47.5679C30.75 47.3704 30.6328 46.9327 30.8303 46.5906Z" fill="#8693A3"/>
<path d="M28.7644 48.2616C28.962 47.9194 29.3996 47.8021 29.7418 47.9998C30.084 48.1973 30.2012 48.6349 30.0037 48.9771C29.8061 49.3193 29.3685 49.4366 29.0263 49.2389C28.6841 49.0414 28.5669 48.6038 28.7644 48.2616Z" fill="#8693A3"/>
<path d="M26.698 49.9327C26.8955 49.5905 27.3331 49.4732 27.6753 49.6708C28.0176 49.8684 28.1348 50.3059 27.9373 50.6482C27.7396 50.9904 27.3021 51.1077 26.9599 50.91C26.6177 50.7125 26.5005 50.2749 26.698 49.9327Z" fill="#8693A3"/>
<path d="M36.6172 46.2996C36.6172 45.9044 36.9375 45.5841 37.3327 45.5841C37.7277 45.5841 38.0481 45.9044 38.0481 46.2996C38.0481 46.6948 37.7277 47.0151 37.3327 47.0151C36.9375 47.0151 36.6172 46.6948 36.6172 46.2996Z" fill="#8693A3"/>
<path d="M35.6631 48.7801C35.6631 48.385 35.9834 48.0647 36.3786 48.0647C36.7737 48.0647 37.094 48.385 37.094 48.7801C37.094 49.1753 36.7737 49.4956 36.3786 49.4956C35.9834 49.4956 35.6631 49.1753 35.6631 48.7801Z" fill="#8693A3"/>
<path d="M34.709 51.2605C34.709 50.8653 35.0293 50.545 35.4245 50.545C35.8196 50.545 36.1399 50.8653 36.1399 51.2605C36.1399 51.6557 35.8196 51.976 35.4245 51.976C35.0293 51.976 34.709 51.6557 34.709 51.2605Z" fill="#8693A3"/>
<path d="M33.7549 53.7408C33.7549 53.3457 34.0753 53.0254 34.4704 53.0254C34.8655 53.0254 35.1859 53.3457 35.1859 53.7408C35.1859 54.136 34.8655 54.4563 34.4704 54.4563C34.0753 54.4563 33.7549 54.136 33.7549 53.7408Z" fill="#8693A3"/>
<path d="M40.5286 45.6349C40.331 45.2927 40.4483 44.8551 40.7905 44.6575C41.1327 44.4599 41.5703 44.5772 41.7678 44.9194C41.9654 45.2616 41.8482 45.6992 41.5059 45.8967C41.1637 46.0944 40.7261 45.9771 40.5286 45.6349Z" fill="#8693A3"/>
<path d="M40.9427 48.2601C40.745 47.9179 40.8624 47.4803 41.2045 47.2827C41.5468 47.0851 41.9843 47.2023 42.1819 47.5446C42.3795 47.8868 42.2622 48.3244 41.92 48.5219C41.5778 48.7195 41.1402 48.6023 40.9427 48.2601Z" fill="#8693A3"/>
<path d="M41.3567 50.8851C41.1592 50.5429 41.2764 50.1053 41.6186 49.9077C41.9608 49.7101 42.3983 49.8273 42.5959 50.1696C42.7935 50.5118 42.6763 50.9494 42.334 51.1469C41.9918 51.3445 41.5542 51.2273 41.3567 50.8851Z" fill="#8693A3"/>
<path d="M41.7708 53.5101C41.5732 53.1679 41.6905 52.7303 42.0327 52.5327C42.3749 52.3352 42.8124 52.4524 43.01 52.7946C43.2076 53.1369 43.0904 53.5744 42.7481 53.772C42.4059 53.9695 41.9683 53.8523 41.7708 53.5101Z" fill="#8693A3"/>
<path d="M43.5839 43.1033C43.2417 42.9057 43.1245 42.4682 43.3221 42.126C43.5196 41.7837 43.9572 41.6665 44.2994 41.8641C44.6416 42.0616 44.7589 42.4992 44.5613 42.8414C44.3637 43.1836 43.9261 43.3009 43.5839 43.1033Z" fill="#8693A3"/>
<path d="M45.2553 45.1697C44.9131 44.9722 44.7958 44.5346 44.9935 44.1924C45.191 43.8501 45.6286 43.7329 45.9708 43.9305C46.313 44.128 46.4303 44.5656 46.2327 44.9078C46.0351 45.25 45.5975 45.3673 45.2553 45.1697Z" fill="#8693A3"/>
<path d="M46.9262 47.2361C46.584 47.0385 46.4667 46.6009 46.6644 46.2588C46.8619 45.9165 47.2995 45.7993 47.6417 45.9968C47.9839 46.1943 48.1012 46.632 47.9036 46.9742C47.706 47.3164 47.2685 47.4336 46.9262 47.2361Z" fill="#8693A3"/>
<path d="M48.5971 49.3024C48.2549 49.1048 48.1376 48.6672 48.3353 48.325C48.5328 47.9829 48.9704 47.8656 49.3126 48.0631C49.6548 48.2607 49.7721 48.6983 49.5745 49.0406C49.3769 49.3827 48.9393 49.5 48.5971 49.3024Z" fill="#8693A3"/>
<path d="M44.9645 39.3833C44.5693 39.3833 44.249 39.0629 44.249 38.6678C44.249 38.2727 44.5693 37.9524 44.9645 37.9524C45.3597 37.9524 45.68 38.2727 45.68 38.6678C45.68 39.0629 45.3597 39.3833 44.9645 39.3833Z" fill="#8693A3"/>
<path d="M47.445 40.3373C47.0498 40.3373 46.7295 40.0169 46.7295 39.6218C46.7295 39.2266 47.0498 38.9062 47.445 38.9062C47.8401 38.9062 48.1604 39.2266 48.1604 39.6218C48.1604 40.0169 47.8401 40.3373 47.445 40.3373Z" fill="#8693A3"/>
<path d="M49.9249 41.2912C49.5298 41.2912 49.2095 40.9708 49.2095 40.5757C49.2095 40.1806 49.5298 39.8603 49.9249 39.8603C50.3201 39.8603 50.6404 40.1806 50.6404 40.5757C50.6404 40.9708 50.3201 41.2912 49.9249 41.2912Z" fill="#8693A3"/>
<path d="M52.4054 42.2452C52.0102 42.2452 51.6899 41.9249 51.6899 41.5298C51.6899 41.1346 52.0102 40.8143 52.4054 40.8143C52.8006 40.8143 53.1209 41.1346 53.1209 41.5298C53.1209 41.9249 52.8006 42.2452 52.4054 42.2452Z" fill="#8693A3"/>
<path d="M44.2994 35.4715C43.9573 35.669 43.5196 35.5518 43.3221 35.2096C43.1245 34.8674 43.2417 34.4298 43.5839 34.2322C43.9262 34.0347 44.3637 34.1519 44.5613 34.4942C44.7589 34.8363 44.6416 35.274 44.2994 35.4715Z" fill="#8693A3"/>
<path d="M46.9244 35.0574C46.5823 35.255 46.1446 35.1377 45.9471 34.7956C45.7495 34.4533 45.8667 34.0157 46.2089 33.8182C46.5512 33.6206 46.9887 33.7379 47.1863 34.0801C47.3839 34.4222 47.2666 34.8599 46.9244 35.0574Z" fill="#8693A3"/>
<path d="M41.7678 32.4162C41.5703 32.7583 41.1327 32.8756 40.7905 32.678C40.4483 32.4805 40.331 32.0429 40.5286 31.7007C40.7262 31.3585 41.1637 31.2412 41.506 31.4388C41.8481 31.6364 41.9654 32.0739 41.7678 32.4162Z" fill="#8693A3"/>
<path d="M43.8342 30.745C43.6367 31.0872 43.1991 31.2044 42.8569 31.0069C42.5147 30.8094 42.3974 30.3718 42.595 30.0296C42.7926 29.6873 43.2301 29.5701 43.5724 29.7676C43.9145 29.9652 44.0319 30.4028 43.8342 30.745Z" fill="#8693A3"/>
<path d="M57.2497 21.0197C58.5452 22.4978 59.6609 24.1218 60.5757 25.8504C61.0977 26.8349 60.6775 28.0552 59.6563 28.5011L59.182 28.7075C58.8994 28.8304 58.7654 29.1552 58.8792 29.4415C59.1297 30.0728 59.3499 30.7132 59.5398 31.3609C59.8573 32.4408 59.1783 33.5593 58.0736 33.774C56.602 34.0602 55.2954 34.3135 53.1769 34.7254C52.2383 34.9071 51.2988 34.3704 51.0015 33.4602C50.3712 31.5261 49.2867 29.7067 47.7489 28.1689C46.2112 26.6312 44.3918 25.5467 42.4567 24.9154C41.5475 24.6191 41.0107 23.6805 41.1924 22.7419L42.1439 17.8433C42.3567 16.7469 43.4651 16.0578 44.5376 16.3716C45.246 16.579 45.946 16.823 46.6351 17.1019C46.9232 17.2194 47.2516 17.0863 47.3755 16.8019L47.5746 16.345C48.0214 15.3192 49.2491 14.8999 50.2345 15.4302C51.9355 16.3468 53.532 17.4589 54.9862 18.7452" stroke="#8693A3" stroke-width="1.5" stroke-miterlimit="10" stroke-linecap="round" stroke-linejoin="round"/>
<path d="M51.9459 23.9719C50.8114 22.8374 49.5398 21.8525 48.1696 21.0404C47.4051 20.5871 46.4159 20.8875 46.028 21.6871C45.6861 22.3917 45.9316 23.2465 46.6034 23.6488C47.7592 24.3409 48.8321 25.1753 49.7873 26.1305C50.7424 27.0856 51.5769 28.1586 52.2689 29.3143C52.6713 29.9862 53.526 30.2317 54.2306 29.8898C55.0302 29.5018 55.3306 28.5126 54.8774 27.7482C54.0651 26.3779 53.0803 25.1063 51.9459 23.9719Z" stroke="#8693A3" stroke-width="1.5" stroke-miterlimit="10" stroke-linecap="round" stroke-linejoin="round"/>
<path d="M54.592 22.3361C54.3127 22.6155 53.8596 22.6155 53.5802 22.3361C53.3007 22.0567 53.3007 21.6037 53.5802 21.3243C53.8596 21.0449 54.3127 21.0449 54.592 21.3243C54.8714 21.6037 54.8714 22.0567 54.592 22.3361Z" fill="#8693A3"/>
<path d="M51.6918 19.74C51.4651 20.0637 51.019 20.1423 50.6954 19.9157C50.3716 19.689 50.2929 19.2429 50.5196 18.9192C50.7463 18.5955 51.1924 18.5168 51.5161 18.7435C51.8398 18.9702 51.9184 19.4163 51.6918 19.74Z" fill="#8693A3"/>
<path d="M56.1762 24.2245C55.8525 24.4511 55.7739 24.8973 56.0005 25.2209C56.2272 25.5447 56.6733 25.6233 56.997 25.3966C57.3207 25.17 57.3994 24.7239 57.1727 24.4002C56.946 24.0765 56.4999 23.9979 56.1762 24.2245Z" fill="#8693A3"/>
</svg>
