<svg width="24" height="24" viewBox="0 0 24 24" fill="none" xmlns="http://www.w3.org/2000/svg">
<path d="M15.75 10.5H20.25C21.0769 10.5 21.75 9.82687 21.75 9V4.5C21.75 3.67313 21.0769 3 20.25 3H15.75C14.9231 3 14.25 3.67313 14.25 4.5V6H13.4784C12.6797 6.00375 11.9297 6.31781 11.3672 6.885C10.8047 7.45219 10.4972 8.205 10.5 9V11.25H8.25V10.125C8.25 9.29813 7.57687 8.625 6.75 8.625H3C2.17313 8.625 1.5 9.29813 1.5 10.125V13.875C1.5 14.7019 2.17313 15.375 3 15.375H6.75C7.57687 15.375 8.25 14.7019 8.25 13.875V12.75H10.5V15.0216C10.5037 15.8203 10.8178 16.5703 11.385 17.1328C11.9494 17.6925 12.6966 18 13.4869 18H14.25V19.5C14.25 20.3269 14.9231 21 15.75 21H20.25C21.0769 21 21.75 20.3269 21.75 19.5V15C21.75 14.1731 21.0769 13.5 20.25 13.5H15.75C14.9231 13.5 14.25 14.1731 14.25 15V16.5H13.4906C13.095 16.5 12.7228 16.3462 12.4416 16.0678C12.1584 15.7875 12.0019 15.4134 12.0009 15.0159V8.99719C11.9991 8.59875 12.1528 8.22375 12.4331 7.94156C12.7134 7.65844 13.0875 7.50187 13.485 7.50094H14.25V9.00094C14.25 9.82781 14.9231 10.5009 15.75 10.5009V10.5ZM6.75 13.875H3V10.125H6.75V13.875ZM15.75 15H20.25V19.5H15.75V17.2594C15.75 17.2594 15.75 17.2537 15.75 17.25C15.75 17.2463 15.75 17.2444 15.75 17.2406V15ZM15.75 4.5H20.25V9H15.75V6.75937C15.75 6.75937 15.75 6.75375 15.75 6.75C15.75 6.74625 15.75 6.74438 15.75 6.74063V4.5Z" fill="black"/>
</svg>
