<svg width="24" height="24" viewBox="0 0 24 24" fill="none" xmlns="http://www.w3.org/2000/svg">
<path fill-rule="evenodd" clip-rule="evenodd" d="M12.5061 3.78507C10.5026 3.65951 8.52227 4.26955 6.93674 5.50065C5.35121 6.73175 4.26956 8.49925 3.89486 10.4713C3.52016 12.4434 3.87817 14.4845 4.90169 16.2113C5.0065 16.3881 5.03414 16.6002 4.97814 16.798L4.09973 19.9005L7.20219 19.0221L7.40651 19.7437L7.78892 19.0985C9.51574 20.122 11.5568 20.48 13.5289 20.1053C15.501 19.7306 17.2685 18.649 18.4996 17.0635C19.7307 15.4779 20.3407 13.4976 20.2151 11.4941C20.0896 9.49069 19.2371 7.60198 17.8176 6.18255C16.3982 4.76313 14.5095 3.91062 12.5061 3.78507ZM7.30834 20.551C9.28723 21.6358 11.5851 22.0015 13.8089 21.579C16.1399 21.1361 18.2291 19.8575 19.6843 17.9834C21.1395 16.1093 21.8606 13.7684 21.7122 11.4003C21.5638 9.0322 20.5561 6.79969 18.8783 5.1219C17.2005 3.4441 14.968 2.43641 12.5999 2.288C10.2318 2.1396 7.89094 2.86067 6.0168 4.31587C4.14266 5.77106 2.86413 7.86029 2.42122 10.1913C1.99871 12.4151 2.36437 14.713 3.44923 16.6919L2.65435 19.4993C2.5803 19.7549 2.57602 20.0257 2.64197 20.2835C2.70824 20.5426 2.84298 20.779 3.03207 20.9681C3.22116 21.1572 3.45763 21.292 3.71669 21.3582C3.97454 21.4242 4.24533 21.4199 4.50093 21.3458L7.30834 20.551Z" fill="black"/>
<path d="M12.0002 13.125C12.6215 13.125 13.1252 12.6213 13.1252 12C13.1252 11.3786 12.6215 10.875 12.0002 10.875C11.3789 10.875 10.8752 11.3786 10.8752 12C10.8752 12.6213 11.3789 13.125 12.0002 13.125Z" fill="black"/>
<path d="M7.50018 13.125C8.1215 13.125 8.62518 12.6213 8.62518 12C8.62518 11.3786 8.1215 10.875 7.50018 10.875C6.87886 10.875 6.37518 11.3786 6.37518 12C6.37518 12.6213 6.87886 13.125 7.50018 13.125Z" fill="black"/>
<path d="M16.5002 13.125C17.1215 13.125 17.6252 12.6213 17.6252 12C17.6252 11.3786 17.1215 10.875 16.5002 10.875C15.8789 10.875 15.3752 11.3786 15.3752 12C15.3752 12.6213 15.8789 13.125 16.5002 13.125Z" fill="black"/>
</svg>
