<svg width="12" height="12" viewBox="0 0 12 12" fill="none" xmlns="http://www.w3.org/2000/svg">
<rect width="12" height="12" rx="6" fill="#B5E0C7"/>
<path d="M5.00039 6.80002L7.95039 3.85002C8.04206 3.75836 8.15872 3.71252 8.30039 3.71252C8.44206 3.71252 8.55872 3.75836 8.65039 3.85002C8.74206 3.94169 8.78789 4.05836 8.78789 4.20002C8.78789 4.34169 8.74206 4.45836 8.65039 4.55002L5.35039 7.85002C5.25039 7.95002 5.13372 8.00002 5.00039 8.00002C4.86706 8.00002 4.75039 7.95002 4.65039 7.85002L3.35039 6.55002C3.25872 6.45836 3.21289 6.34169 3.21289 6.20002C3.21289 6.05836 3.25872 5.94169 3.35039 5.85002C3.44206 5.75836 3.55872 5.71252 3.70039 5.71252C3.84206 5.71252 3.95872 5.75836 4.05039 5.85002L5.00039 6.80002Z" fill="#219653"/>
</svg>
