<svg width="24" height="24" viewBox="0 0 24 24" fill="none" xmlns="http://www.w3.org/2000/svg">
<path fill-rule="evenodd" clip-rule="evenodd" d="M12.5061 3.7851C10.5026 3.65954 8.52227 4.26958 6.93674 5.50068C5.35121 6.73178 4.26956 8.49928 3.89486 10.4714C3.52016 12.4435 3.87817 14.4845 4.90169 16.2113C5.0065 16.3882 5.03414 16.6003 4.97814 16.798L4.09973 19.9005L7.20219 19.0221L7.40651 19.7437L7.78892 19.0985C9.51574 20.1221 11.5568 20.4801 13.5289 20.1054C15.501 19.7307 17.2685 18.649 18.4996 17.0635C19.7307 15.478 20.3407 13.4976 20.2151 11.4942C20.0896 9.49072 19.2371 7.60201 17.8176 6.18259C16.3982 4.76316 14.5095 3.91065 12.5061 3.7851ZM7.30834 20.551C9.28723 21.6359 11.5851 22.0015 13.8089 21.579C16.1399 21.1361 18.2291 19.8576 19.6843 17.9834C21.1395 16.1093 21.8606 13.7684 21.7122 11.4003C21.5638 9.03223 20.5561 6.79972 18.8783 5.12193C17.2005 3.44413 14.968 2.43644 12.5999 2.28804C10.2318 2.13963 7.89094 2.8607 6.0168 4.3159C4.14266 5.77109 2.86413 7.86032 2.42122 10.1914C1.99871 12.4151 2.36437 14.713 3.44923 16.6919L2.65435 19.4993C2.5803 19.7549 2.57602 20.0257 2.64197 20.2835C2.70824 20.5426 2.84298 20.7791 3.03207 20.9682C3.22116 21.1573 3.45763 21.292 3.71669 21.3583C3.97454 21.4242 4.24533 21.4199 4.50093 21.3459L7.30834 20.551Z" fill="black"/>
<path fill-rule="evenodd" clip-rule="evenodd" d="M8.25018 10.5C8.25018 10.0858 8.58597 9.75 9.00018 9.75H15.0002C15.4144 9.75 15.7502 10.0858 15.7502 10.5C15.7502 10.9142 15.4144 11.25 15.0002 11.25H9.00018C8.58597 11.25 8.25018 10.9142 8.25018 10.5Z" fill="black"/>
<path fill-rule="evenodd" clip-rule="evenodd" d="M8.25018 13.5C8.25018 13.0858 8.58597 12.75 9.00018 12.75H15.0002C15.4144 12.75 15.7502 13.0858 15.7502 13.5C15.7502 13.9142 15.4144 14.25 15.0002 14.25H9.00018C8.58597 14.25 8.25018 13.9142 8.25018 13.5Z" fill="black"/>
</svg>
