<svg width="24" height="24" viewBox="0 0 24 24" fill="none" xmlns="http://www.w3.org/2000/svg">
<rect width="24" height="24" rx="12" fill="white"/>
<path fill-rule="evenodd" clip-rule="evenodd" d="M17.5385 16.3478C16.8587 16.3478 16.3077 16.8929 16.3077 17.5652C16.3077 18.2376 16.8587 18.7826 17.5385 18.7826C18.2182 18.7826 18.7692 18.2376 18.7692 17.5652C18.7692 16.8929 18.2182 16.3478 17.5385 16.3478ZM15.0769 17.5652C15.0769 16.2205 16.179 15.1304 17.5385 15.1304C18.8979 15.1304 20 16.2205 20 17.5652C20 18.9099 18.8979 20 17.5385 20C16.179 20 15.0769 18.9099 15.0769 17.5652Z" fill="#121212"/>
<path fill-rule="evenodd" clip-rule="evenodd" d="M7.07692 6.6087C7.07692 6.27252 7.35244 6 7.69231 6H15.0769C15.893 6 16.6756 6.32065 17.2526 6.89141C17.8297 7.46218 18.1538 8.2363 18.1538 9.04348C18.1538 9.85066 17.8297 10.6248 17.2526 11.1955C16.6756 11.7663 15.893 12.087 15.0769 12.087H7.69231C7.03947 12.087 6.41337 12.3435 5.95174 12.8001C5.49011 13.2567 5.23077 13.876 5.23077 14.5217C5.23077 15.1675 5.49011 15.7868 5.95174 16.2434C6.41337 16.7 7.03947 16.9565 7.69231 16.9565H15.6923C16.0322 16.9565 16.3077 17.229 16.3077 17.5652C16.3077 17.9014 16.0322 18.1739 15.6923 18.1739H7.69231C6.71305 18.1739 5.77389 17.7891 5.08145 17.1042C4.38901 16.4193 4 15.4904 4 14.5217C4 13.5531 4.38901 12.6242 5.08145 11.9393C5.77389 11.2543 6.71305 10.8696 7.69231 10.8696H15.0769C15.5666 10.8696 16.0361 10.6772 16.3824 10.3347C16.7286 9.99226 16.9231 9.52779 16.9231 9.04348C16.9231 8.55917 16.7286 8.0947 16.3824 7.75224C16.0361 7.40978 15.5666 7.21739 15.0769 7.21739H7.69231C7.35244 7.21739 7.07692 6.94487 7.07692 6.6087Z" fill="#121212"/>
</svg>
