<svg width="24" height="24" viewBox="0 0 24 24" fill="none" xmlns="http://www.w3.org/2000/svg">
<path fill-rule="evenodd" clip-rule="evenodd" d="M8.25 12C8.25 11.5858 8.58579 11.25 9 11.25H15C15.4142 11.25 15.75 11.5858 15.75 12C15.75 12.4142 15.4142 12.75 15 12.75H9C8.58579 12.75 8.25 12.4142 8.25 12Z" fill="black"/>
<path fill-rule="evenodd" clip-rule="evenodd" d="M8.25 15C8.25 14.5858 8.58579 14.25 9 14.25H15C15.4142 14.25 15.75 14.5858 15.75 15C15.75 15.4142 15.4142 15.75 15 15.75H9C8.58579 15.75 8.25 15.4142 8.25 15Z" fill="black"/>
<path fill-rule="evenodd" clip-rule="evenodd" d="M4.18934 3.43934C4.47064 3.15804 4.85217 3 5.25 3H18.75C19.1478 3 19.5294 3.15804 19.8107 3.43934C20.092 3.72065 20.25 4.10218 20.25 4.5V18.75C20.25 19.5456 19.9339 20.3087 19.3713 20.8713C18.8087 21.4339 18.0456 21.75 17.25 21.75H6.75C5.95435 21.75 5.19129 21.4339 4.62868 20.8713C4.06607 20.3087 3.75 19.5456 3.75 18.75V4.5C3.75 4.10217 3.90804 3.72064 4.18934 3.43934ZM5.25 4.5L5.25 18.75C5.25 19.1478 5.40804 19.5294 5.68934 19.8107C5.97064 20.092 6.35218 20.25 6.75 20.25H17.25C17.6478 20.25 18.0294 20.092 18.3107 19.8107C18.592 19.5294 18.75 19.1478 18.75 18.75V4.5H5.25Z" fill="black"/>
<path fill-rule="evenodd" clip-rule="evenodd" d="M7.5 1.5C7.91421 1.5 8.25 1.83579 8.25 2.25V5.25C8.25 5.66421 7.91421 6 7.5 6C7.08579 6 6.75 5.66421 6.75 5.25V2.25C6.75 1.83579 7.08579 1.5 7.5 1.5Z" fill="black"/>
<path fill-rule="evenodd" clip-rule="evenodd" d="M12 1.5C12.4142 1.5 12.75 1.83579 12.75 2.25V5.25C12.75 5.66421 12.4142 6 12 6C11.5858 6 11.25 5.66421 11.25 5.25V2.25C11.25 1.83579 11.5858 1.5 12 1.5Z" fill="black"/>
<path fill-rule="evenodd" clip-rule="evenodd" d="M16.5 1.5C16.9142 1.5 17.25 1.83579 17.25 2.25V5.25C17.25 5.66421 16.9142 6 16.5 6C16.0858 6 15.75 5.66421 15.75 5.25V2.25C15.75 1.83579 16.0858 1.5 16.5 1.5Z" fill="black"/>
</svg>
