<svg width="16" height="16" viewBox="0 0 16 16" fill="none" xmlns="http://www.w3.org/2000/svg">
<path fill-rule="evenodd" clip-rule="evenodd" d="M3.14645 2.64645C3.34171 2.45118 3.65829 2.45118 3.85355 2.64645L8.85355 7.64645C9.04882 7.84171 9.04882 8.15829 8.85355 8.35355L3.85355 13.3536C3.65829 13.5488 3.34171 13.5488 3.14645 13.3536C2.95118 13.1583 2.95118 12.8417 3.14645 12.6464L7.79289 8L3.14645 3.35355C2.95118 3.15829 2.95118 2.84171 3.14645 2.64645Z" fill="white"/>
<path fill-rule="evenodd" clip-rule="evenodd" d="M8.14645 2.64645C8.34171 2.45118 8.65829 2.45118 8.85355 2.64645L13.8536 7.64645C14.0488 7.84171 14.0488 8.15829 13.8536 8.35355L8.85355 13.3536C8.65829 13.5488 8.34171 13.5488 8.14645 13.3536C7.95118 13.1583 7.95118 12.8417 8.14645 12.6464L12.7929 8L8.14645 3.35355C7.95118 3.15829 7.95118 2.84171 8.14645 2.64645Z" fill="white"/>
</svg>
