<svg width="24" height="24" viewBox="0 0 24 24" fill="none" xmlns="http://www.w3.org/2000/svg">
<path fill-rule="evenodd" clip-rule="evenodd" d="M12 3.75C7.44365 3.75 3.75 7.44365 3.75 12C3.75 16.5563 7.44365 20.25 12 20.25C16.5563 20.25 20.25 16.5563 20.25 12C20.25 7.44365 16.5563 3.75 12 3.75ZM2.25 12C2.25 6.61522 6.61522 2.25 12 2.25C17.3848 2.25 21.75 6.61522 21.75 12C21.75 17.3848 17.3848 21.75 12 21.75C6.61522 21.75 2.25 17.3848 2.25 12Z" fill="#8693A3"/>
<path d="M8.625 11.25C9.24632 11.25 9.75 10.7463 9.75 10.125C9.75 9.50368 9.24632 9 8.625 9C8.00368 9 7.5 9.50368 7.5 10.125C7.5 10.7463 8.00368 11.25 8.625 11.25Z" fill="#8693A3"/>
<path d="M15.375 11.25C15.9963 11.25 16.5 10.7463 16.5 10.125C16.5 9.50368 15.9963 9 15.375 9C14.7537 9 14.25 9.50368 14.25 10.125C14.25 10.7463 14.7537 11.25 15.375 11.25Z" fill="#8693A3"/>
<path fill-rule="evenodd" clip-rule="evenodd" d="M7.72347 13.6013C8.08171 13.3934 8.54069 13.5152 8.74863 13.8734C9.07916 14.4429 9.55346 14.9155 10.1241 15.2441C10.6947 15.5727 11.3415 15.7456 12 15.7456C12.6584 15.7456 13.3053 15.5727 13.8759 15.2441C14.4465 14.9155 14.9208 14.4429 15.2513 13.8734C15.4593 13.5152 15.9182 13.3934 16.2765 13.6013C16.6347 13.8092 16.7566 14.2682 16.5486 14.6264C16.0862 15.4231 15.4227 16.0844 14.6244 16.544C13.8261 17.0037 12.9211 17.2456 12 17.2456C11.0788 17.2456 10.1738 17.0037 9.37557 16.544C8.5773 16.0844 7.91375 15.4231 7.45133 14.6264C7.24339 14.2682 7.36523 13.8092 7.72347 13.6013Z" fill="#8693A3"/>
</svg>
