<svg width="24" height="24" viewBox="0 0 24 24" fill="none" xmlns="http://www.w3.org/2000/svg">
<path fill-rule="evenodd" clip-rule="evenodd" d="M18.477 11.2855C18.8354 11.0778 19.2943 11.1999 19.5021 11.5582L21.6489 15.2613C21.8567 15.6197 21.7346 16.0786 21.3763 16.2864C21.0179 16.4941 20.559 16.372 20.3512 16.0137L18.2044 12.3106C17.9966 11.9522 18.1187 11.4933 18.477 11.2855Z" fill="#8693A3"/>
<path fill-rule="evenodd" clip-rule="evenodd" d="M14.3262 13.2583C14.7341 13.1864 15.1231 13.4588 15.1949 13.8668L15.8606 17.6449C15.9324 18.0528 15.66 18.4418 15.2521 18.5136C14.8441 18.5855 14.4552 18.3131 14.3833 17.9051L13.7177 14.127C13.6458 13.7191 13.9182 13.3301 14.3262 13.2583Z" fill="#8693A3"/>
<path fill-rule="evenodd" clip-rule="evenodd" d="M9.66428 13.2488C10.0722 13.3205 10.3448 13.7093 10.2731 14.1173L9.60752 17.9048C9.53582 18.3127 9.14698 18.5853 8.73902 18.5136C8.33106 18.4419 8.05846 18.0531 8.13016 17.6451L8.79578 13.8576C8.86748 13.4497 9.25632 13.1771 9.66428 13.2488Z" fill="#8693A3"/>
<path fill-rule="evenodd" clip-rule="evenodd" d="M5.51222 11.2847C5.87102 11.4917 5.99411 11.9503 5.78715 12.3091L3.64027 16.031C3.4333 16.3898 2.97466 16.5129 2.61586 16.3059C2.25706 16.099 2.13397 15.6403 2.34094 15.2815L4.48781 11.5596C4.69478 11.2008 5.15342 11.0778 5.51222 11.2847Z" fill="#8693A3"/>
<path fill-rule="evenodd" clip-rule="evenodd" d="M2.52877 9.25089C2.85101 8.99062 3.32322 9.04086 3.58348 9.36309C5.07563 11.2105 7.7694 13.5 12 13.5C16.2306 13.5 18.9244 11.2105 20.4166 9.36309C20.6768 9.04086 21.149 8.99062 21.4713 9.25089C21.7935 9.51116 21.8437 9.98336 21.5835 10.3056C19.9256 12.3582 16.8444 15 12 15C7.15565 15 4.07442 12.3582 2.41657 10.3056C2.1563 9.98336 2.20654 9.51116 2.52877 9.25089Z" fill="#8693A3"/>
</svg>
