<svg width="24" height="24" viewBox="0 0 24 24" fill="none" xmlns="http://www.w3.org/2000/svg">
<path d="M12 2.25C6.6225 2.25 2.25 6.6225 2.25 12C2.25 17.3775 6.6225 21.75 12 21.75C17.3775 21.75 21.75 17.3775 21.75 12C21.75 6.6225 17.3775 2.25 12 2.25ZM12.75 20.2125V14.25H15C15.4125 14.25 15.75 13.9125 15.75 13.5C15.75 13.0875 15.4125 12.75 15 12.75H12.75V10.485C12.75 10.0875 12.9075 9.7125 13.1925 9.435C13.47 9.1575 13.845 9 14.2425 9H15.75C16.1625 9 16.5 8.6625 16.5 8.25C16.5 7.8375 16.1625 7.5 15.75 7.5H14.2425C13.4475 7.5 12.6975 7.8075 12.135 8.37C11.565 8.9325 11.25 9.6825 11.25 10.4775V12.75H9C8.5875 12.75 8.25 13.0875 8.25 13.5C8.25 13.9125 8.5875 14.25 9 14.25H11.25V20.2125C7.05 19.83 3.75 16.29 3.75 12C3.75 7.4475 7.4475 3.75 12 3.75C16.5525 3.75 20.25 7.4475 20.25 12C20.25 16.2975 16.95 19.8375 12.75 20.2125Z" fill="#29364E"/>
</svg>
