<svg width="24" height="24" viewBox="0 0 24 24" fill="none" xmlns="http://www.w3.org/2000/svg">
<path fill-rule="evenodd" clip-rule="evenodd" d="M3 4.5C3 3.67157 3.67157 3 4.5 3H19.5C20.3284 3 21 3.67157 21 4.5V19.5C21 20.3284 20.3284 21 19.5 21H4.5C3.67157 21 3 20.3284 3 19.5V4.5ZM19.5 4.5H4.5V19.5H19.5V4.5Z" fill="#8693A3"/>
<path fill-rule="evenodd" clip-rule="evenodd" d="M15.1707 10.177C15.3542 10.1002 15.5511 10.0606 15.75 10.0606C15.9489 10.0606 16.1458 10.1002 16.3293 10.177C16.5117 10.2534 16.6772 10.3651 16.8163 10.5057L20.7803 14.4697C21.0732 14.7626 21.0732 15.2374 20.7803 15.5303C20.4874 15.8232 20.0126 15.8232 19.7197 15.5303L15.75 11.5607L15.746 11.5647L11.5664 15.7443C11.4273 15.8849 11.2618 15.9966 11.0793 16.073C10.8958 16.1498 10.6989 16.1894 10.5 16.1894C10.3011 16.1894 10.1042 16.1498 9.92067 16.073C9.73821 15.9966 9.57268 15.8849 9.43358 15.7443L7.49998 13.8107L7.49597 13.8147L4.28033 17.0303C3.98744 17.3232 3.51256 17.3232 3.21967 17.0303C2.92678 16.7374 2.92678 16.2626 3.21967 15.9697L6.43362 12.7557C6.5727 12.6151 6.73823 12.5034 6.92067 12.427C7.10415 12.3502 7.30108 12.3106 7.5 12.3106C7.69892 12.3106 7.89585 12.3502 8.07933 12.427C8.26178 12.5034 8.42731 12.6151 8.5664 12.7557L10.5 14.6894L10.504 14.6853L14.6836 10.5057C14.8227 10.3651 14.9882 10.2534 15.1707 10.177Z" fill="#8693A3"/>
<path d="M9.375 9.75C9.99632 9.75 10.5 9.24632 10.5 8.625C10.5 8.00368 9.99632 7.5 9.375 7.5C8.75368 7.5 8.25 8.00368 8.25 8.625C8.25 9.24632 8.75368 9.75 9.375 9.75Z" fill="#8693A3"/>
</svg>
