<svg width="24" height="24" viewBox="0 0 24 24" fill="none" xmlns="http://www.w3.org/2000/svg">
<path fill-rule="evenodd" clip-rule="evenodd" d="M2.25 8.25C2.25 7.42157 2.92157 6.75 3.75 6.75H20.25C21.0784 6.75 21.75 7.42157 21.75 8.25V11.25C21.75 12.0784 21.0784 12.75 20.25 12.75H3.75C2.92157 12.75 2.25 12.0784 2.25 11.25V8.25ZM20.25 8.25H3.75V11.25H20.25V8.25Z" fill="black"/>
<path fill-rule="evenodd" clip-rule="evenodd" d="M4.5 11.25C4.91421 11.25 5.25 11.5858 5.25 12V18.75H18.75V12C18.75 11.5858 19.0858 11.25 19.5 11.25C19.9142 11.25 20.25 11.5858 20.25 12V18.75C20.25 19.1478 20.092 19.5294 19.8107 19.8107C19.5294 20.092 19.1478 20.25 18.75 20.25H5.25C4.85218 20.25 4.47065 20.092 4.18934 19.8107C3.90804 19.5294 3.75 19.1478 3.75 18.75V12C3.75 11.5858 4.08579 11.25 4.5 11.25Z" fill="black"/>
<path fill-rule="evenodd" clip-rule="evenodd" d="M12 6.75C12.4142 6.75 12.75 7.08579 12.75 7.5V19.5C12.75 19.9142 12.4142 20.25 12 20.25C11.5858 20.25 11.25 19.9142 11.25 19.5V7.5C11.25 7.08579 11.5858 6.75 12 6.75Z" fill="black"/>
<path fill-rule="evenodd" clip-rule="evenodd" d="M13.5909 3.7822C13.445 3.93 13.2923 4.20183 13.1586 4.60411C13.0288 4.99467 12.9375 5.44432 12.8749 5.88326C12.8322 6.18233 12.804 6.46797 12.7855 6.71452C13.032 6.69594 13.3177 6.66775 13.6167 6.62508C14.0557 6.56246 14.5053 6.47114 14.8959 6.34134C15.2982 6.20763 15.57 6.05495 15.7178 5.90901C15.9991 5.6271 16.157 5.24512 16.157 4.84686C16.157 4.448 15.9986 4.06548 15.7165 3.78344C15.4345 3.5014 15.052 3.34296 14.6531 3.34296C14.2549 3.34296 13.8729 3.50094 13.5909 3.7822ZM16.2469 6.44061L16.7772 6.97094C17.3405 6.4076 17.657 5.64354 17.657 4.84686C17.657 4.05018 17.3405 3.28612 16.7772 2.72278C16.2139 2.15944 15.4498 1.84296 14.6531 1.84296C13.8564 1.84296 13.0924 2.15944 12.529 2.72278L12.5267 2.72512C12.1433 3.11194 11.8991 3.63781 11.7352 4.13102C11.5671 4.63694 11.4597 5.18221 11.3899 5.67139C11.3197 6.16354 11.2849 6.61742 11.2676 6.9473C11.2589 7.11281 11.2545 7.24851 11.2523 7.3439C11.2512 7.39163 11.2506 7.42936 11.2503 7.45579L11.25 7.48682L11.25 7.4957L11.25 7.49842L11.25 7.5C11.25 7.50015 11.25 7.49998 12 7.49998L11.25 7.5C11.25 7.69891 11.329 7.88966 11.4697 8.03031C11.6103 8.17097 11.8011 8.24998 12 8.24998V7.49998C12 8.24998 11.9999 8.24998 12 8.24998L12.0016 8.24998L12.0043 8.24998L12.0132 8.24994L12.0442 8.24968C12.0706 8.24939 12.1084 8.24882 12.1561 8.24771C12.2515 8.24549 12.3872 8.2411 12.5527 8.2324C12.8826 8.21504 13.3364 8.18026 13.8286 8.11004C14.3178 8.04025 14.863 7.93293 15.369 7.76478C15.8622 7.60086 16.388 7.3567 16.7749 6.97327L16.2469 6.44061Z" fill="black"/>
<path fill-rule="evenodd" clip-rule="evenodd" d="M7.22278 2.72278C7.78612 2.15944 8.55017 1.84296 9.34686 1.84296C10.1435 1.84296 10.9076 2.15944 11.4709 2.72278L11.4733 2.72512C11.8567 3.11194 12.1009 3.63781 12.2648 4.13102C12.4329 4.63694 12.5402 5.18221 12.61 5.67139C12.6803 6.16354 12.715 6.61742 12.7324 6.9473C12.7411 7.11281 12.7455 7.24851 12.7477 7.3439C12.7488 7.39163 12.7494 7.42936 12.7497 7.45579L12.7499 7.48682L12.75 7.4957L12.75 7.49842L12.75 7.5C12.75 7.50015 12.75 7.49998 12 7.49998C12 8.24998 11.9999 8.24998 12 8.24998L11.9984 8.24998L11.9957 8.24998L11.9868 8.24994L11.9558 8.24968C11.9294 8.24939 11.8916 8.24882 11.8439 8.24771C11.7485 8.24549 11.6128 8.2411 11.4473 8.2324C11.1174 8.21504 10.6635 8.18026 10.1714 8.11004C9.68221 8.04025 9.13694 7.93293 8.63102 7.76478C8.13781 7.60086 7.61194 7.3567 7.22512 6.97327L7.75311 6.44061L7.22278 6.97094C6.65944 6.4076 6.34296 5.64354 6.34296 4.84686C6.34296 4.05018 6.65944 3.28612 7.22278 2.72278ZM8.28218 5.90901C8.42997 6.05495 8.70181 6.20763 9.1041 6.34134C9.49467 6.47114 9.94432 6.56246 10.3833 6.62508C10.6823 6.66775 10.968 6.69594 11.2145 6.71452C11.1959 6.46797 11.1678 6.18233 11.1251 5.88326C11.0625 5.44432 10.9711 4.99467 10.8413 4.60411C10.7076 4.20181 10.5549 3.92997 10.409 3.78218C10.1271 3.50093 9.74512 3.34296 9.34686 3.34296C8.948 3.34296 8.56548 3.5014 8.28344 3.78344C8.0014 4.06548 7.84296 4.448 7.84296 4.84686C7.84296 5.24512 8.00093 5.6271 8.28218 5.90901ZM12 7.49998V8.24998C12.1989 8.24998 12.3897 8.17097 12.5303 8.03031C12.671 7.88966 12.75 7.69891 12.75 7.5L12 7.49998Z" fill="black"/>
</svg>
