<svg width="152" height="152" viewBox="0 0 152 152" fill="none" xmlns="http://www.w3.org/2000/svg">
<g filter="url(#filter1_di_2343_5537)">
<rect x="16" y="14" width="120" height="120" rx="60" fill="url(#paint0_linear_2343_5537)" fill-opacity="0.8" shape-rendering="crispEdges"/>
<rect x="16" y="14" width="120" height="120" rx="60" fill="url(#paint1_linear_2343_5537)" fill-opacity="0.8" shape-rendering="crispEdges"/>
<rect x="16" y="14" width="120" height="120" rx="60" fill="url(#paint2_linear_2343_5537)" fill-opacity="0.8" shape-rendering="crispEdges"/>
<rect x="16" y="14" width="120" height="120" rx="60" fill="url(#paint3_linear_2343_5537)" fill-opacity="0.8" shape-rendering="crispEdges"/>
</g>
<ellipse cx="76" cy="34.3688" rx="31" ry="16" fill="url(#paint4_linear_2343_5537)"/>
<path d="M61.9748 86H90.0254C91.484 86 92.6667 84.8173 92.6667 83.3587C92.6667 82.905 92.5499 82.459 92.3275 82.0637L78.4839 57.4526C77.979 56.5553 77.0295 56 76 56C74.9705 56 74.021 56.5553 73.5162 57.4526L59.6726 82.0637C59.4502 82.459 59.3334 82.905 59.3334 83.3587C59.3334 84.8173 60.516 86 61.9748 86Z" stroke="white" stroke-width="4" stroke-linecap="round" stroke-linejoin="round"/>
<path d="M76 66V73.5" stroke="white" stroke-width="4" stroke-linecap="round" stroke-linejoin="round"/>
<path d="M76 79.3334V79.35" stroke="white" stroke-width="4" stroke-linecap="round" stroke-linejoin="round"/>
<defs>
<filter id="filter1_di_2343_5537" x="0" y="0" width="152" height="152" filterUnits="userSpaceOnUse" color-interpolation-filters="sRGB">
<feFlood flood-opacity="0" result="BackgroundImageFix"/>
<feColorMatrix in="SourceAlpha" type="matrix" values="0 0 0 0 0 0 0 0 0 0 0 0 0 0 0 0 0 0 127 0" result="hardAlpha"/>
<feOffset dy="2"/>
<feGaussianBlur stdDeviation="8"/>
<feComposite in2="hardAlpha" operator="out"/>
<feColorMatrix type="matrix" values="0 0 0 0 1 0 0 0 0 0 0 0 0 0 0 0 0 0 0.3 0"/>
<feBlend mode="normal" in2="BackgroundImageFix" result="effect1_dropShadow_2343_5537"/>
<feBlend mode="normal" in="SourceGraphic" in2="effect1_dropShadow_2343_5537" result="shape"/>
<feColorMatrix in="SourceAlpha" type="matrix" values="0 0 0 0 0 0 0 0 0 0 0 0 0 0 0 0 0 0 127 0" result="hardAlpha"/>
<feOffset dy="2"/>
<feGaussianBlur stdDeviation="5"/>
<feComposite in2="hardAlpha" operator="arithmetic" k2="-1" k3="1"/>
<feColorMatrix type="matrix" values="0 0 0 0 1 0 0 0 0 0.995833 0 0 0 0 0.995833 0 0 0 0.5 0"/>
<feBlend mode="normal" in2="shape" result="effect2_innerShadow_2343_5537"/>
</filter>
<linearGradient id="paint0_linear_2343_5537" x1="114.049" y1="23.5122" x2="69.4146" y2="79.8537" gradientUnits="userSpaceOnUse">
<stop stop-color="#FF0000"/>
<stop offset="1" stop-color="#990000" stop-opacity="0"/>
</linearGradient>
<linearGradient id="paint1_linear_2343_5537" x1="81.1219" y1="68.1463" x2="42.3415" y2="127.415" gradientUnits="userSpaceOnUse">
<stop stop-color="#FF5900" stop-opacity="0"/>
<stop offset="1" stop-color="#FF0000"/>
</linearGradient>
<linearGradient id="paint2_linear_2343_5537" x1="67.9512" y1="63.0244" x2="31.3659" y2="35.9512" gradientUnits="userSpaceOnUse">
<stop stop-color="#FF8A05" stop-opacity="0"/>
<stop offset="1" stop-color="#FF0A01"/>
</linearGradient>
<linearGradient id="paint3_linear_2343_5537" x1="76" y1="82.0488" x2="124.293" y2="116.439" gradientUnits="userSpaceOnUse">
<stop stop-color="#FF0B48" stop-opacity="0"/>
<stop offset="1" stop-color="#FF001A"/>
</linearGradient>
<linearGradient id="paint4_linear_2343_5537" x1="76" y1="18.3688" x2="76" y2="36.3688" gradientUnits="userSpaceOnUse">
<stop stop-color="#FFCACA" stop-opacity="0.35"/>
<stop offset="1" stop-color="#FF0000" stop-opacity="0"/>
</linearGradient>
</defs>
</svg>
