<svg width="60" height="60" viewBox="0 0 60 60" fill="none" xmlns="http://www.w3.org/2000/svg">
<path d="M31.7646 16.25C31.7646 22.6831 27.8455 28.2009 22.2646 30.546M16.2646 31.75C9.83154 31.75 4.31378 27.8309 1.96868 22.25M0.764648 16.25C0.764648 9.81689 4.68375 4.29913 10.2646 1.95403M16.2646 0.75C22.7809 0.75 28.358 4.77106 30.65 10.4672" stroke="#121212" stroke-width="1.5" stroke-linecap="round" stroke-linejoin="round"/>
<path d="M10.2168 1.97214V5.98578" stroke="#121212" stroke-width="1.5" stroke-linecap="round"/>
<path d="M30.8506 10.5515L26.8369 10.5515" stroke="#121212" stroke-width="1.5" stroke-linecap="round"/>
<path d="M22.0361 30.7419L22.0361 26.7283" stroke="#121212" stroke-width="1.5" stroke-linecap="round"/>
<path d="M1.56104 21.8886L5.57468 21.8886" stroke="#121212" stroke-width="1.5" stroke-linecap="round"/>
<path d="M10.2676 1.94296H5.98291" stroke="#121212" stroke-width="1.5" stroke-linecap="round"/>
<path d="M30.8794 10.6022L30.8794 6.31757" stroke="#121212" stroke-width="1.5" stroke-linecap="round"/>
<path d="M21.9854 30.7708L26.27 30.7708" stroke="#121212" stroke-width="1.5" stroke-linecap="round"/>
<path d="M1.53223 21.8378L1.53223 26.1225" stroke="#121212" stroke-width="1.5" stroke-linecap="round"/>
<path d="M16.1919 7.51468V25.0449" stroke="#121212" stroke-width="1.5" stroke-linecap="round"/>
<path d="M23.7827 11.8972L8.6011 20.6624" stroke="#121212" stroke-width="1.5" stroke-linecap="round"/>
<path d="M23.7827 20.6624L8.6011 11.8972" stroke="#121212" stroke-width="1.5" stroke-linecap="round"/>
<path d="M13.75 8.92853L16.0958 12.0495" stroke="#121212" stroke-width="1.5" stroke-linecap="round"/>
<path d="M18.7349 23.4491L16.3891 20.3282" stroke="#121212" stroke-width="1.5" stroke-linecap="round"/>
<path d="M23.3428 18.3369L21.0689 19.0133" stroke="#121212" stroke-width="1.5" stroke-linecap="round"/>
<path d="M11.4268 21.3181L11.362 18.9466" stroke="#121212" stroke-width="1.5" stroke-linecap="round"/>
<path d="M8.98828 14.0796L11.2621 13.4033" stroke="#121212" stroke-width="1.5" stroke-linecap="round"/>
<path d="M21.0928 11.1483L21.1576 13.5197" stroke="#121212" stroke-width="1.5" stroke-linecap="round"/>
<path d="M18.7349 8.92853L16.3891 12.0495" stroke="#121212" stroke-width="1.5" stroke-linecap="round"/>
<path d="M13.75 23.4491L16.0958 20.3282" stroke="#121212" stroke-width="1.5" stroke-linecap="round"/>
<path d="M21.0678 21.3043L21.0701 19.0134" stroke="#121212" stroke-width="1.5" stroke-linecap="round"/>
<path d="M9.14896 18.3525L11.3612 18.9478" stroke="#121212" stroke-width="1.5" stroke-linecap="round"/>
<path d="M11.2628 11.1119L11.2604 13.4029" stroke="#121212" stroke-width="1.5" stroke-linecap="round"/>
<path d="M23.3711 14.1134L21.1588 13.5182" stroke="#121212" stroke-width="1.5" stroke-linecap="round"/>
<path d="M16.3372 31.7289C16.3372 31.7289 13.034 36.2256 11.5359 37.0688C10.0378 37.9119 3.66643 38.029 2.09737 39.7621C0.528315 41.4952 0.762357 43.5094 0.762357 43.5094C0.762357 43.5094 0.762357 48.9663 0.762357 50.0671C0.762357 51.1678 1.41807 52.901 3.36197 52.901C5.30586 52.901 6.82819 52.901 6.82819 52.901" stroke="#121212" stroke-width="1.5" stroke-linecap="round"/>
<path d="M19.3848 52.9545H37.498" stroke="#121212" stroke-width="1.5" stroke-linecap="round"/>
<circle cx="13.3134" cy="52.9545" r="5.82947" stroke="#121212" stroke-width="1.5" stroke-linecap="round"/>
<circle cx="46.2172" cy="52.9545" r="5.82947" stroke="#121212" stroke-width="1.5" stroke-linecap="round"/>
<circle cx="13.3132" cy="52.9545" r="2.09448" stroke="#121212" stroke-width="1.5" stroke-linecap="round"/>
<circle cx="46.2175" cy="52.9545" r="2.09448" stroke="#121212" stroke-width="1.5" stroke-linecap="round"/>
<path d="M28.7627 25.7596C28.7627 25.7596 38.4487 25.7596 42.1055 25.7596C45.7623 25.7596 47.2942 28.8976 47.2942 28.8976C47.2942 28.8976 48.2331 30.8001 49.6168 33.6416C51.0005 36.483 53.8666 37.7679 55.3491 38.3609C56.8316 38.9539 58.7589 40.3376 58.7589 43.1296C58.7589 45.9216 58.7589 51.1104 58.7589 51.1104C58.7589 51.1104 58.7589 53.0624 56.461 53.0624C54.1631 53.0624 52.137 53.0624 52.137 53.0624" stroke="#121212" stroke-width="1.5" stroke-linecap="round"/>
<path d="M23.9282 38.4087C23.9282 36.3124 25.6276 34.6131 27.7238 34.6131H40.2539C42.463 34.6131 44.2539 36.404 44.2539 38.6131V39.3619C44.2539 41.571 42.463 43.3619 40.2539 43.3619H28.635" stroke="#121212" stroke-width="1.5" stroke-linecap="round"/>
<path d="M28.6401 43.4003L32.2046 39.9023" stroke="#121212" stroke-width="1.5" stroke-linecap="round"/>
<path d="M28.6401 43.3619L32.2046 46.8598" stroke="#121212" stroke-width="1.5" stroke-linecap="round"/>
<line x1="1.69678" y1="58.5906" x2="2.49268" y2="58.5906" stroke="#121212" stroke-width="1.5" stroke-linecap="round"/>
<line x1="5.73193" y1="58.5906" x2="6.52783" y2="58.5906" stroke="#121212" stroke-width="1.5" stroke-linecap="round"/>
<line x1="33.8862" y1="58.5906" x2="34.6821" y2="58.5906" stroke="#121212" stroke-width="1.5" stroke-linecap="round"/>
<line x1="14.0635" y1="58.5906" x2="30.1367" y2="58.5906" stroke="#121212" stroke-width="1.5" stroke-linecap="round"/>
<line x1="38.248" y1="58.5906" x2="58.8477" y2="58.5906" stroke="#121212" stroke-width="1.5" stroke-linecap="round"/>
</svg>
