<svg width="40" height="41" viewBox="0 0 40 41" fill="none" xmlns="http://www.w3.org/2000/svg">
<path d="M6.47936 7.68382C9.83415 4.42947 14.4105 2.42602 19.4535 2.42602C20.9346 2.42602 22.3748 2.59908 23.7563 2.92591M37.5672 16.6588C37.9095 18.0712 38.0911 19.5461 38.0911 21.0636C38.0911 31.3567 29.7466 39.7012 19.4535 39.7012C9.16041 39.7012 0.815918 31.3567 0.815918 21.0636C0.815918 16.7863 2.25689 12.8458 4.67911 9.7004" stroke="#121212" stroke-width="1.5" stroke-miterlimit="10" stroke-linecap="round" stroke-linejoin="round"/>
<path d="M28.983 34.0005C26.3166 35.9677 23.0205 37.1305 19.4532 37.1305C10.5795 37.1305 3.38623 29.9372 3.38623 21.0635C3.38623 12.1897 10.5795 4.99648 19.4532 4.99648C20.7211 4.99648 21.9543 5.14328 23.1372 5.42066M35.0768 17.3C35.3665 18.5068 35.5202 19.7678 35.5202 21.0635C35.5202 25.3964 33.805 29.3299 31.0158 32.2196" stroke="#121212" stroke-width="1.5" stroke-miterlimit="10" stroke-linecap="round" stroke-linejoin="round"/>
<path d="M19.4537 22.3487C18.7438 22.3487 18.1684 21.7733 18.1684 21.0634C18.1684 20.3535 18.7438 19.778 19.4537 19.778C20.1636 19.778 20.7391 20.3535 20.7391 21.0634C20.7391 21.7733 20.1636 22.3487 19.4537 22.3487ZM19.4537 17.2073C17.3275 17.2073 15.5977 18.9371 15.5977 21.0634C15.5977 23.1896 17.3275 24.9194 19.4537 24.9194C21.58 24.9194 23.3098 23.1896 23.3098 21.0634C23.3098 18.9371 21.58 17.2073 19.4537 17.2073Z" stroke="#121212" stroke-width="1.5" stroke-miterlimit="10" stroke-linecap="round" stroke-linejoin="round"/>
<path d="M20.0561 14.6366C20.0561 14.9694 19.7863 15.2391 19.4536 15.2391C19.1208 15.2391 18.8511 14.9694 18.8511 14.6366C18.8511 14.3039 19.1208 14.0341 19.4536 14.0341C19.7863 14.0341 20.0561 14.3039 20.0561 14.6366Z" fill="#121212"/>
<path d="M20.8599 12.5476C20.8599 12.8804 20.5901 13.1501 20.2574 13.1501C19.9246 13.1501 19.6548 12.8804 19.6548 12.5476C19.6548 12.2149 19.9246 11.9451 20.2574 11.9451C20.5901 11.9451 20.8599 12.2149 20.8599 12.5476Z" fill="#121212"/>
<path d="M16.7621 15.1964C16.9284 15.4845 16.8297 15.853 16.5416 16.0194C16.2534 16.1858 15.8848 16.0871 15.7185 15.7989C15.5521 15.5107 15.6509 15.1422 15.9391 14.9758C16.2272 14.8094 16.5957 14.9082 16.7621 15.1964Z" fill="#121212"/>
<path d="M16.4135 12.9857C16.5798 13.2739 16.4811 13.6423 16.193 13.8087C15.9048 13.9751 15.5362 13.8764 15.3699 13.5882C15.2035 13.3 15.3023 12.9315 15.5904 12.7651C15.8786 12.5987 16.2471 12.6975 16.4135 12.9857Z" fill="#121212"/>
<path d="M16.0648 10.7751C16.2312 11.0633 16.1324 11.4318 15.8443 11.5981C15.5561 11.7645 15.1876 11.6658 15.0212 11.3776C14.8549 11.0894 14.9536 10.7209 15.2417 10.5546C15.5299 10.3882 15.8985 10.4869 16.0648 10.7751Z" fill="#121212"/>
<path d="M15.7162 8.56464C15.8825 8.85276 15.7838 9.2213 15.4957 9.38765C15.2075 9.55408 14.8389 9.45534 14.6726 9.16714C14.5062 8.87895 14.605 8.51048 14.8932 8.34413C15.1813 8.1777 15.5498 8.27644 15.7162 8.56464Z" fill="#121212"/>
<path d="M14.189 17.3282C14.4772 17.4946 14.5759 17.8631 14.4096 18.1512C14.2432 18.4394 13.8747 18.5382 13.5865 18.3718C13.2983 18.2055 13.1996 17.8369 13.366 17.5487C13.5324 17.2606 13.9009 17.1619 14.189 17.3282Z" fill="#121212"/>
<path d="M12.7818 15.588C13.07 15.7544 13.1687 16.1229 13.0023 16.411C12.836 16.6992 12.4675 16.798 12.1793 16.6316C11.8911 16.4653 11.7924 16.0967 11.9588 15.8085C12.1251 15.5204 12.4937 15.4217 12.7818 15.588Z" fill="#121212"/>
<path d="M11.3746 13.848C11.6628 14.0144 11.7615 14.3829 11.5951 14.6711C11.4287 14.9592 11.0603 15.058 10.7721 14.8916C10.4839 14.7253 10.3851 14.3567 10.5516 14.0685C10.7179 13.7804 11.0865 13.6817 11.3746 13.848Z" fill="#121212"/>
<path d="M9.96734 12.1079C10.2555 12.2742 10.3543 12.6427 10.1879 12.9309C10.0215 13.2191 9.65303 13.3179 9.36484 13.1515C9.07665 12.9851 8.9779 12.6166 9.14433 12.3284C9.31068 12.0403 9.67923 11.9416 9.96734 12.1079Z" fill="#121212"/>
<path d="M13.0263 20.4609C13.3591 20.4609 13.6288 20.7306 13.6288 21.0634C13.6288 21.3961 13.3591 21.6659 13.0263 21.6659C12.6936 21.6659 12.4238 21.3961 12.4238 21.0634C12.4238 20.7306 12.6936 20.4609 13.0263 20.4609Z" fill="#121212"/>
<path d="M10.938 19.6575C11.2707 19.6575 11.5405 19.9273 11.5405 20.26C11.5405 20.5928 11.2707 20.8625 10.938 20.8625C10.6052 20.8625 10.3354 20.5928 10.3354 20.26C10.3354 19.9273 10.6052 19.6575 10.938 19.6575Z" fill="#121212"/>
<path d="M8.84908 18.8542C9.18186 18.8542 9.45159 19.1239 9.45159 19.4567C9.45159 19.7895 9.18186 20.0592 8.84908 20.0592C8.51631 20.0592 8.24658 19.7895 8.24658 19.4567C8.24658 19.1239 8.51631 18.8542 8.84908 18.8542Z" fill="#121212"/>
<path d="M6.76022 18.0508C7.09299 18.0508 7.36272 18.3206 7.36272 18.6533C7.36272 18.9861 7.09299 19.2559 6.76022 19.2559C6.42744 19.2559 6.15771 18.9861 6.15771 18.6533C6.15771 18.3206 6.42744 18.0508 6.76022 18.0508Z" fill="#121212"/>
<path d="M13.5865 23.755C13.8747 23.5887 14.2432 23.6874 14.4095 23.9755C14.5759 24.2637 14.4772 24.6322 14.189 24.7985C13.9008 24.965 13.5323 24.8662 13.366 24.578C13.1996 24.2898 13.2984 23.9214 13.5865 23.755Z" fill="#121212"/>
<path d="M11.3761 24.1036C11.6642 23.9372 12.0327 24.036 12.1991 24.3242C12.3655 24.6124 12.2668 24.9808 11.9786 25.1472C11.6904 25.3136 11.3219 25.2149 11.1555 24.9267C10.9891 24.6385 11.0879 24.27 11.3761 24.1036Z" fill="#121212"/>
<path d="M9.16513 24.4524C9.45333 24.286 9.8218 24.3848 9.98815 24.6729C10.1546 24.9611 10.0558 25.3296 9.76764 25.496C9.47944 25.6623 9.11097 25.5636 8.94462 25.2754C8.7782 24.9872 8.87694 24.6187 9.16513 24.4524Z" fill="#121212"/>
<path d="M6.95468 24.8009C7.2428 24.6345 7.61135 24.7333 7.7777 25.0214C7.94412 25.3096 7.84538 25.6781 7.55719 25.8444C7.26899 26.0109 6.90052 25.9121 6.73417 25.6239C6.56775 25.3357 6.66649 24.9673 6.95468 24.8009Z" fill="#121212"/>
<path d="M15.7185 26.3278C15.8848 26.0396 16.2533 25.9409 16.5415 26.1073C16.8297 26.2737 16.9284 26.6421 16.7621 26.9303C16.5957 27.2185 16.2272 27.3173 15.939 27.1508C15.6509 26.9845 15.5521 26.6159 15.7185 26.3278Z" fill="#121212"/>
<path d="M13.9788 27.7352C14.1451 27.447 14.5136 27.3482 14.8018 27.5147C15.09 27.681 15.1887 28.0495 15.0224 28.3377C14.856 28.6259 14.4875 28.7246 14.1993 28.5582C13.9111 28.3918 13.8124 28.0233 13.9788 27.7352Z" fill="#121212"/>
<path d="M12.238 29.1424C12.4045 28.8542 12.7729 28.7555 13.0611 28.9219C13.3492 29.0882 13.448 29.4567 13.2816 29.7449C13.1153 30.0331 12.7467 30.1318 12.4585 29.9654C12.1704 29.7991 12.0717 29.4306 12.238 29.1424Z" fill="#121212"/>
<path d="M10.4983 30.5496C10.6646 30.2614 11.0331 30.1627 11.3213 30.3291C11.6095 30.4955 11.7082 30.8639 11.5419 31.1521C11.3755 31.4403 11.007 31.5391 10.7188 31.3726C10.4307 31.2063 10.3319 30.8378 10.4983 30.5496Z" fill="#121212"/>
<path d="M18.8511 27.4901C18.8511 27.1574 19.1208 26.8876 19.4536 26.8876C19.7863 26.8876 20.0561 27.1574 20.0561 27.4901C20.0561 27.8229 19.7863 28.0927 19.4536 28.0927C19.1208 28.0927 18.8511 27.8229 18.8511 27.4901Z" fill="#121212"/>
<path d="M18.0479 29.579C18.0479 29.2462 18.3176 28.9765 18.6504 28.9765C18.9831 28.9765 19.2529 29.2462 19.2529 29.579C19.2529 29.9118 18.9831 30.1815 18.6504 30.1815C18.3176 30.1815 18.0479 29.9118 18.0479 29.579Z" fill="#121212"/>
<path d="M17.2446 31.6678C17.2446 31.335 17.5144 31.0653 17.8471 31.0653C18.1799 31.0653 18.4496 31.335 18.4496 31.6678C18.4496 32.0005 18.1799 32.2703 17.8471 32.2703C17.5144 32.2703 17.2446 32.0005 17.2446 31.6678Z" fill="#121212"/>
<path d="M16.4409 33.7564C16.4409 33.4236 16.7107 33.1539 17.0434 33.1539C17.3762 33.1539 17.646 33.4236 17.646 33.7564C17.646 34.0892 17.3762 34.3589 17.0434 34.3589C16.7107 34.3589 16.4409 34.0892 16.4409 33.7564Z" fill="#121212"/>
<path d="M22.1453 26.9303C21.9789 26.6422 22.0777 26.2737 22.3658 26.1073C22.654 25.9409 23.0225 26.0396 23.1888 26.3278C23.3552 26.616 23.2565 26.9845 22.9683 27.1508C22.6801 27.3173 22.3116 27.2185 22.1453 26.9303Z" fill="#121212"/>
<path d="M22.4944 29.1411C22.328 28.853 22.4268 28.4845 22.7149 28.3181C23.0031 28.1517 23.3716 28.2504 23.5379 28.5386C23.7044 28.8268 23.6056 29.1953 23.3174 29.3617C23.0292 29.5281 22.6608 29.4293 22.4944 29.1411Z" fill="#121212"/>
<path d="M22.8425 31.3516C22.6762 31.0635 22.7749 30.6949 23.063 30.5286C23.3512 30.3621 23.7197 30.4609 23.886 30.7491C24.0525 31.0373 23.9537 31.4058 23.6655 31.5721C23.3773 31.7385 23.0089 31.6398 22.8425 31.3516Z" fill="#121212"/>
<path d="M23.1912 33.5622C23.0248 33.274 23.1236 32.9055 23.4117 32.7391C23.6999 32.5728 24.0684 32.6715 24.2347 32.9597C24.4011 33.2479 24.3024 33.6164 24.0142 33.7827C23.726 33.9491 23.3575 33.8503 23.1912 33.5622Z" fill="#121212"/>
<path d="M24.7179 24.7986C24.4297 24.6322 24.3309 24.2637 24.4974 23.9755C24.6637 23.6873 25.0322 23.5886 25.3204 23.755C25.6086 23.9214 25.7073 24.2899 25.5409 24.578C25.3745 24.8662 25.006 24.965 24.7179 24.7986Z" fill="#121212"/>
<path d="M26.1256 26.5387C25.8374 26.3723 25.7386 26.0038 25.9051 25.7157C26.0714 25.4275 26.4399 25.3287 26.7281 25.4951C27.0163 25.6615 27.115 26.03 26.9486 26.3182C26.7822 26.6063 26.4137 26.7051 26.1256 26.5387Z" fill="#121212"/>
<path d="M27.5328 28.2788C27.2446 28.1125 27.1459 27.7439 27.3123 27.4558C27.4786 27.1676 27.8471 27.0689 28.1353 27.2352C28.4235 27.4016 28.5222 27.7701 28.3558 28.0583C28.1895 28.3464 27.821 28.4452 27.5328 28.2788Z" fill="#121212"/>
<path d="M28.94 30.0189C28.6518 29.8525 28.5531 29.484 28.7195 29.1958C28.8859 28.9077 29.2543 28.809 29.5425 28.9753C29.8307 29.1417 29.9295 29.5102 29.763 29.7984C29.5967 30.0865 29.2282 30.1853 28.94 30.0189Z" fill="#121212"/>
<path d="M25.8803 21.6659C25.5476 21.6659 25.2778 21.3961 25.2778 21.0634C25.2778 20.7306 25.5476 20.4609 25.8803 20.4609C26.2131 20.4609 26.4828 20.7306 26.4828 21.0634C26.4828 21.3961 26.2131 21.6659 25.8803 21.6659Z" fill="#121212"/>
<path d="M27.9692 22.4692C27.6364 22.4692 27.3667 22.1994 27.3667 21.8667C27.3667 21.534 27.6364 21.2642 27.9692 21.2642C28.302 21.2642 28.5717 21.534 28.5717 21.8667C28.5717 22.1994 28.302 22.4692 27.9692 22.4692Z" fill="#121212"/>
<path d="M30.0581 23.2726C29.7253 23.2726 29.4556 23.0028 29.4556 22.6701C29.4556 22.3373 29.7253 22.0676 30.0581 22.0676C30.3908 22.0676 30.6606 22.3373 30.6606 22.6701C30.6606 23.0028 30.3908 23.2726 30.0581 23.2726Z" fill="#121212"/>
<path d="M32.1464 24.0759C31.8137 24.0759 31.5439 23.8062 31.5439 23.4734C31.5439 23.1406 31.8137 22.8709 32.1464 22.8709C32.4792 22.8709 32.749 23.1406 32.749 23.4734C32.749 23.8062 32.4792 24.0759 32.1464 24.0759Z" fill="#121212"/>
<path d="M25.3204 18.3718C25.0323 18.5382 24.6637 18.4394 24.4974 18.1513C24.3309 17.8631 24.4297 17.4946 24.7179 17.3282C25.0061 17.1619 25.3745 17.2606 25.5409 17.5488C25.7073 17.8369 25.6086 18.2055 25.3204 18.3718Z" fill="#121212"/>
<path d="M27.5308 18.0231C27.2427 18.1894 26.8742 18.0907 26.7078 17.8026C26.5414 17.5144 26.6401 17.1458 26.9283 16.9795C27.2165 16.8131 27.585 16.9119 27.7513 17.2001C27.9178 17.4882 27.819 17.8567 27.5308 18.0231Z" fill="#121212"/>
<path d="M23.1888 15.7989C23.0225 16.087 22.654 16.1858 22.3658 16.0194C22.0776 15.8531 21.9789 15.4846 22.1453 15.1964C22.3117 14.9082 22.6801 14.8095 22.9683 14.9758C23.2564 15.1422 23.3553 15.5107 23.1888 15.7989Z" fill="#121212"/>
<path d="M24.9291 14.3916C24.7627 14.6797 24.3942 14.7784 24.1061 14.6121C23.8179 14.4457 23.7191 14.0772 23.8855 13.7891C24.0519 13.5009 24.4204 13.4021 24.7086 13.5685C24.9967 13.7348 25.0955 14.1034 24.9291 14.3916Z" fill="#121212"/>
<path d="M36.2254 6.20189C37.3164 7.44661 38.2559 8.81418 39.0262 10.2698C39.4658 11.0989 39.112 12.1265 38.252 12.502L37.8526 12.6758C37.6146 12.7794 37.5018 13.0529 37.5976 13.2939C37.8085 13.8255 37.994 14.3648 38.1539 14.9103C38.4212 15.8197 37.8495 16.7615 36.9192 16.9423C35.6799 17.1834 34.5797 17.3966 32.7957 17.7436C32.0053 17.8965 31.2141 17.4446 30.9637 16.6781C30.4329 15.0494 29.5197 13.5172 28.2247 12.2223C26.9298 10.9273 25.3976 10.0141 23.7682 9.48252C23.0025 9.23295 22.5505 8.44255 22.7035 7.65214L23.5047 3.52702C23.6839 2.60372 24.6173 2.02347 25.5205 2.28771C26.117 2.46233 26.7065 2.66785 27.2867 2.90273C27.5294 3.00163 27.806 2.88959 27.9103 2.65008L28.0779 2.2653C28.4542 1.40149 29.488 1.0484 30.3178 1.49498C31.7503 2.26685 33.0947 3.20329 34.3193 4.28652" stroke="#121212" stroke-width="1.5" stroke-miterlimit="10" stroke-linecap="round" stroke-linejoin="round"/>
<path d="M31.7592 8.68792C30.8039 7.73255 29.7331 6.9032 28.5792 6.21927C27.9354 5.83758 27.1024 6.09054 26.7757 6.7639C26.4878 7.35721 26.6946 8.07707 27.2603 8.41588C28.2336 8.99868 29.137 9.70131 29.9414 10.5057C30.7458 11.31 31.4485 12.2135 32.0313 13.1868C32.3701 13.7526 33.0899 13.9593 33.6832 13.6714C34.3565 13.3447 34.6095 12.5117 34.2279 11.8679C33.5438 10.714 32.7145 9.64321 31.7592 8.68792Z" stroke="#121212" stroke-width="1.5" stroke-miterlimit="10" stroke-linecap="round" stroke-linejoin="round"/>
<path d="M33.988 7.31037C33.7528 7.54563 33.3713 7.54563 33.136 7.31037C32.9006 7.0751 32.9006 6.69357 33.136 6.4583C33.3713 6.22303 33.7528 6.22303 33.988 6.4583C34.2233 6.69357 34.2233 7.0751 33.988 7.31037Z" fill="#121212"/>
<path d="M31.5458 5.12414C31.355 5.39672 30.9792 5.46294 30.7067 5.2721C30.4341 5.08125 30.3679 4.7056 30.5588 4.43301C30.7496 4.16042 31.1253 4.09413 31.3979 4.28505C31.6704 4.47589 31.7367 4.85155 31.5458 5.12414Z" fill="#121212"/>
<path d="M35.3224 8.9006C35.0498 9.09144 34.9836 9.46717 35.1744 9.73968C35.3653 10.0123 35.7409 10.0786 36.0135 9.88764C36.2861 9.6968 36.3524 9.32114 36.1615 9.04856C35.9706 8.77597 35.595 8.70975 35.3224 8.9006Z" fill="#121212"/>
</svg>
