<svg width="68" height="52" viewBox="0 0 68 52" fill="none" xmlns="http://www.w3.org/2000/svg">
<path d="M42.75 26.8476L54.5761 22.75L66.75 26.8476V36.75C66.75 44.7744 54.5761 50.75 54.5761 50.75C54.5761 50.75 42.75 44.7744 42.75 36.75V26.8476Z" stroke="#121212" stroke-width="1.5"/>
<path d="M49.75 35.3846L53.7799 38.75L59.75 31.75" stroke="#121212" stroke-width="1.5" stroke-linecap="round"/>
<path d="M33.0632 40.75C25.759 40.75 8.34209 40.75 6.56326 40.75C4.06326 40.75 4.06326 37.75 4.06326 37.75C4.06326 37.75 4.06318 32.75 3.06318 27.25C2.71477 23.4164 3.62481 23.9916 7.06324 17.75C8.55781 15.037 10.4665 10.8095 13.0633 4.75C14.5632 1.25 21.0633 1.25 21.0633 1.25C21.0633 1.25 27.0632 0.75 32.0633 0.75C37.0633 0.75 39.5632 0.750001 44.0633 1.25C48.5633 1.75 49.0632 3.25 49.5633 4.25C51.877 10.0342 54.1795 14.3195 56.0632 17.75C56.7304 18.965 57.4093 19.904 58.0023 20.75M37.5632 40.75C38.522 40.75 39.1034 40.75 40.25 40.75" stroke="#121212" stroke-width="1.5" stroke-linecap="round"/>
<path d="M20.75 25.75H39.75" stroke="#121212" stroke-width="1.5" stroke-linecap="round"/>
<path d="M23.75 29.75L33.75 29.75" stroke="#121212" stroke-width="1.5" stroke-linecap="round"/>
<path d="M36.75 29.75L38.75 29.75" stroke="#121212" stroke-width="1.5" stroke-linecap="round"/>
<path d="M10.5632 40.75C13.5632 37.25 14.5632 35.25 18.5632 35.25C22.5632 35.25 39.75 35.25 39.75 35.25" stroke="#121212" stroke-width="1.5" stroke-linecap="round"/>
<path d="M1.06323 13.75C3.89136 16.5781 8.06323 15.25 8.06323 15.25C8.06323 15.25 8.06323 11.25 4.06323 11.25C1.56323 11.25 0.0632311 12.75 1.06323 13.75Z" stroke="#121212" stroke-width="1.5" stroke-linecap="round"/>
<path d="M11.5632 20.25C8.06333 20.25 8.06323 22.75 8.06323 23.75C8.06323 24.0702 8.37807 25.1469 9.56323 25.75C12.0789 27.0302 17.5632 28.4298 17.5632 27.75C17.5632 25.75 15.0631 20.25 11.5632 20.25Z" stroke="#121212" stroke-width="1.5" stroke-linecap="round"/>
<path d="M47.25 22.75C48.3125 21.125 49.8134 20.25 51.5633 20.25C52.5431 20.25 52.742 20.4459 53.25 20.75" stroke="#121212" stroke-width="1.5" stroke-linecap="round"/>
<path d="M62.5632 13.75C59.7351 16.5781 55.5632 15.25 55.5632 15.25C55.5632 15.25 55.5632 11.25 59.5632 11.25C62.0632 11.25 63.5632 12.75 62.5632 13.75Z" stroke="#121212" stroke-width="1.5" stroke-linecap="round"/>
<path d="M4.56323 39.75V44.75C4.56323 45.8546 5.45866 46.75 6.56323 46.75H9.06323H11.5632C12.6678 46.75 13.5632 45.8546 13.5632 44.75V40.75" stroke="#121212" stroke-width="1.5"/>
<path d="M9.56323 13.75H42.5632" stroke="#121212" stroke-width="1.5" stroke-linecap="round"/>
<path d="M47.5632 13.75L53.5632 13.75" stroke="#121212" stroke-width="1.5" stroke-linecap="round"/>
</svg>
