<svg width="73" height="62" viewBox="0 0 73 62" fill="none" xmlns="http://www.w3.org/2000/svg">
<path d="M8.16567 26.6587L23.5895 17.7538C23.8898 17.5804 24.2727 17.6518 24.4909 17.9223L25.1317 18.7168C25.3486 18.9863 25.2742 19.3863 24.9744 19.5594L4.14093 31.5876C3.84117 31.7607 3.45755 31.6252 3.33256 31.3025L2.96495 30.3503C2.83975 30.0262 2.9694 29.6588 3.26971 29.4854L6.05042 27.88" stroke="#121212" stroke-width="1.5" stroke-miterlimit="10" stroke-linecap="round" stroke-linejoin="round"/>
<path d="M35.8802 42.871L14.5166 55.3892C14.2471 55.5448 14.1546 55.8899 14.3102 56.1594L14.8744 57.1367C15.0301 57.4062 15.3751 57.4987 15.6447 57.3431L36.3802 45.371" stroke="#121212" stroke-width="1.5" stroke-miterlimit="10" stroke-linecap="round" stroke-linejoin="round"/>
<path d="M15.2701 54.9536L4.80739 31.2025" stroke="#121212" stroke-width="1.5" stroke-miterlimit="10" stroke-linecap="round" stroke-linejoin="round"/>
<path d="M17.9105 53.4294L6.9603 29.9597" stroke="#121212" stroke-width="1.5" stroke-miterlimit="10" stroke-linecap="round" stroke-linejoin="round"/>
<path d="M20.4127 50.871L9.07452 28.53" stroke="#121212" stroke-width="1.5" stroke-miterlimit="10" stroke-linecap="round" stroke-linejoin="round"/>
<path d="M23.0533 49.3823L11.166 27.3509" stroke="#121212" stroke-width="1.5" stroke-miterlimit="10" stroke-linecap="round" stroke-linejoin="round"/>
<path d="M25.67 47.9078L13.2845 26.1572" stroke="#121212" stroke-width="1.5" stroke-miterlimit="10" stroke-linecap="round" stroke-linejoin="round"/>
<path d="M38.3802 39.371L24.3083 19.9439" stroke="#121212" stroke-width="1.5" stroke-miterlimit="10" stroke-linecap="round" stroke-linejoin="round"/>
<path d="M36.8802 41.8709L22.1556 21.1866" stroke="#121212" stroke-width="1.5" stroke-miterlimit="10" stroke-linecap="round" stroke-linejoin="round"/>
<path d="M33.8802 43.371L20.0248 22.4173" stroke="#121212" stroke-width="1.5" stroke-miterlimit="10" stroke-linecap="round" stroke-linejoin="round"/>
<path d="M31.3803 44.6885L17.781 23.622" stroke="#121212" stroke-width="1.5" stroke-miterlimit="10" stroke-linecap="round" stroke-linejoin="round"/>
<path d="M28.7648 46.1632L15.6638 24.8159" stroke="#121212" stroke-width="1.5" stroke-miterlimit="10" stroke-linecap="round" stroke-linejoin="round"/>
<path d="M23.7022 52.6906L25.1827 55.2549C25.5721 55.9294 26.4339 56.1603 27.1083 55.7709L28.1467 55.1714" stroke="#121212" stroke-width="1.5" stroke-miterlimit="10" stroke-linecap="round" stroke-linejoin="round"/>
<path d="M33.4705 47.0512L34.951 49.6155C35.3404 50.29 35.1095 51.1517 34.4351 51.5411L30.2626 53.9501" stroke="#121212" stroke-width="1.5" stroke-miterlimit="10" stroke-linecap="round" stroke-linejoin="round"/>
<path d="M58.3392 37.9418V43.248C58.3392 43.9019 58.8701 44.4316 59.524 44.4316H65.442C66.7498 44.4316 67.8103 45.4922 67.8103 46.7988V52.8363C67.8103 54.1441 66.7498 55.2035 65.442 55.2035H44.9634C43.6556 55.2035 42.5951 54.1441 42.5951 52.8363V20.1644C42.5951 18.8566 43.6556 17.7961 44.9634 17.7961H48.8916C49.2162 17.7961 49.5373 17.8629 49.8349 17.9929L56.9166 21.0715C57.7802 21.4476 58.3392 22.2996 58.3392 23.2429V33.8402" stroke="#121212" stroke-width="1.5" stroke-miterlimit="10" stroke-linecap="round" stroke-linejoin="round"/>
<path d="M54.0188 29.9894C54.0188 31.9508 52.4289 33.5409 50.4674 33.5409C48.5061 33.5409 46.9161 31.9508 46.9161 29.9894C46.9161 28.514 48.9258 25.9088 49.9215 24.7086C50.2051 24.3669 50.7298 24.3669 51.0134 24.7086C52.0091 25.9088 54.0188 28.514 54.0188 29.9894Z" stroke="#121212" stroke-width="1.5" stroke-miterlimit="10" stroke-linecap="round" stroke-linejoin="round"/>
<path d="M53.7822 41.1171H47.153C46.6299 41.1171 46.2059 40.6931 46.2059 40.17V38.276C46.2059 37.753 46.6299 37.329 47.153 37.329H53.7822C54.3052 37.329 54.7292 37.753 54.7292 38.276V40.17C54.7292 40.6931 54.3052 41.1171 53.7822 41.1171Z" stroke="#121212" stroke-width="1.5" stroke-miterlimit="10" stroke-linecap="round" stroke-linejoin="round"/>
<path d="M46.2059 47.6278H57.7478" stroke="#121212" stroke-width="1.5" stroke-miterlimit="10" stroke-linecap="round" stroke-linejoin="round"/>
<path d="M53.0128 51.4159H46.2059" stroke="#121212" stroke-width="1.5" stroke-miterlimit="10" stroke-linecap="round" stroke-linejoin="round"/>
<path d="M38.8077 14.9167V11.4035C38.8077 10.7507 39.3374 10.2198 39.9913 10.2198H48.9878C49.6417 10.2198 50.1714 10.7507 50.1714 11.4035V14.0085L68.5369 21.9937C70.6113 22.8948 71.953 24.9422 71.953 27.2039V44.612M71.953 48.7136V55.2034C71.953 57.2965 70.2573 58.9921 68.1656 58.9921H42.5952C40.5034 58.9921 38.8077 57.2965 38.8077 55.2034V19.0182M66.863 40.6434H63.0749C62.5519 40.6434 62.1279 40.2194 62.1279 39.6964V26.12C62.1279 25.4379 62.8272 24.9796 63.4526 25.2514L66.6714 26.6509C67.3628 26.9516 67.8101 27.6339 67.8101 28.3878V39.6964C67.8101 40.2194 67.3861 40.6434 66.863 40.6434Z" stroke="#121212" stroke-width="1.5" stroke-miterlimit="10" stroke-linecap="round" stroke-linejoin="round"/>
<path d="M40.2279 10.2203V6.43225" stroke="#121212" stroke-width="1.5" stroke-miterlimit="10" stroke-linecap="round" stroke-linejoin="round"/>
<path d="M48.7511 6.43213V10.2202" stroke="#121212" stroke-width="1.5" stroke-miterlimit="10" stroke-linecap="round" stroke-linejoin="round"/>
<path d="M48.9878 6.43213H39.9911C39.3372 6.43213 38.8072 5.90209 38.8072 5.24818V1.93365C38.8072 1.27986 39.3372 0.749942 39.9911 0.749942H48.9878C49.6416 0.749942 50.1716 1.27986 50.1716 1.93365V5.24818C50.1716 5.90209 49.6416 6.43213 48.9878 6.43213Z" stroke="#121212" stroke-width="1.5" stroke-miterlimit="10" stroke-linecap="round" stroke-linejoin="round"/>
</svg>
