<svg width="48" height="49" viewBox="0 0 48 49" fill="none" xmlns="http://www.w3.org/2000/svg">
<rect y="0.109863" width="48" height="48" rx="24" fill="#DDEEE4"/>
<path d="M12 24.1099C12 25.6857 12.3104 27.2462 12.9134 28.7021C13.5165 30.158 14.4004 31.4808 15.5147 32.5951C16.629 33.7094 17.9519 34.5934 19.4078 35.1964C20.8637 35.7995 22.4241 36.1099 24 36.1099C25.5759 36.1099 27.1363 35.7995 28.5922 35.1964C30.0481 34.5934 31.371 33.7094 32.4853 32.5951C33.5996 31.4808 34.4835 30.158 35.0866 28.7021C35.6896 27.2462 36 25.6857 36 24.1099C36 22.534 35.6896 20.9736 35.0866 19.5177C34.4835 18.0618 33.5996 16.7389 32.4853 15.6246C31.371 14.5103 30.0481 13.6264 28.5922 13.0233C27.1363 12.4203 25.5759 12.1099 24 12.1099C22.4241 12.1099 20.8637 12.4203 19.4078 13.0233C17.9519 13.6264 16.629 14.5103 15.5147 15.6246C14.4004 16.7389 13.5165 18.0618 12.9134 19.5177C12.3104 20.9736 12 22.534 12 24.1099Z" stroke="#219653" stroke-width="1.5" stroke-linecap="round" stroke-linejoin="round"/>
<path d="M20 24.1098L22.6667 26.7764L28 21.4431" stroke="#219653" stroke-width="1.5" stroke-linecap="round" stroke-linejoin="round"/>
</svg>
