<svg width="62" height="62" viewBox="0 0 62 62" fill="none" xmlns="http://www.w3.org/2000/svg">
<path d="M9.59912 10.7231C14.841 5.63814 21.9915 2.50775 29.8712 2.50775C32.1855 2.50775 34.4358 2.77817 36.5944 3.28884M58.1739 24.7464C58.7087 26.9533 58.9924 29.2579 58.9924 31.629C58.9924 47.7119 45.9542 60.7502 29.8712 60.7502C13.7883 60.7502 0.75 47.7119 0.75 31.629C0.75 24.9456 3.00152 18.7887 6.78624 13.874" stroke="#121212" stroke-width="1.5" stroke-miterlimit="10" stroke-linecap="round" stroke-linejoin="round"/>
<path d="M44.7612 51.8431C40.595 54.9167 35.4449 56.7336 29.8711 56.7336C16.0058 56.7336 4.76636 45.4942 4.76636 31.6289C4.76636 17.7637 16.0058 6.52423 29.8711 6.52423C31.8522 6.52423 33.7789 6.75361 35.6272 7.18701M54.2828 25.7484C54.7355 27.6342 54.9758 29.6044 54.9758 31.6289C54.9758 38.3992 52.2957 44.5453 47.9375 49.0604" stroke="#121212" stroke-width="1.5" stroke-miterlimit="10" stroke-linecap="round" stroke-linejoin="round"/>
<path d="M29.8713 33.6371C28.7621 33.6371 27.8629 32.738 27.8629 31.6287C27.8629 30.5195 28.7621 29.6204 29.8713 29.6204C30.9805 29.6204 31.8797 30.5195 31.8797 31.6287C31.8797 32.738 30.9805 33.6371 29.8713 33.6371ZM29.8713 25.6036C26.5491 25.6036 23.8462 28.3065 23.8462 31.6287C23.8462 34.951 26.5491 37.6539 29.8713 37.6539C33.1937 37.6539 35.8964 34.951 35.8964 31.6287C35.8964 28.3065 33.1937 25.6036 29.8713 25.6036Z" stroke="#121212" stroke-width="1.5" stroke-miterlimit="10" stroke-linecap="round" stroke-linejoin="round"/>
<path d="M30.8128 21.5868C30.8128 22.1067 30.3912 22.5282 29.8713 22.5282C29.3514 22.5282 28.9299 22.1067 28.9299 21.5868C28.9299 21.0668 29.3514 20.6454 29.8713 20.6454C30.3912 20.6454 30.8128 21.0668 30.8128 21.5868Z" fill="#121212"/>
<path d="M32.068 18.323C32.068 18.843 31.6464 19.2644 31.1266 19.2644C30.6066 19.2644 30.1851 18.843 30.1851 18.323C30.1851 17.803 30.6066 17.3816 31.1266 17.3816C31.6464 17.3816 32.068 17.803 32.068 18.323Z" fill="#121212"/>
<path d="M25.6656 22.4615C25.9255 22.9118 25.7712 23.4875 25.321 23.7474C24.8707 24.0075 24.2949 23.8532 24.0349 23.4029C23.775 22.9526 23.9293 22.3769 24.3796 22.1169C24.8298 21.8569 25.4056 22.0113 25.6656 22.4615Z" fill="#121212"/>
<path d="M25.1211 19.0073C25.3811 19.4576 25.2268 20.0334 24.7766 20.2933C24.3263 20.5533 23.7504 20.399 23.4905 19.9487C23.2306 19.4984 23.3849 18.9227 23.8352 18.6628C24.2854 18.4027 24.8612 18.5571 25.1211 19.0073Z" fill="#121212"/>
<path d="M24.5762 15.5533C24.8361 16.0036 24.6819 16.5794 24.2317 16.8393C23.7814 17.0993 23.2055 16.9451 22.9456 16.4948C22.6857 16.0445 22.84 15.4687 23.2901 15.2088C23.7404 14.9488 24.3163 15.103 24.5762 15.5533Z" fill="#121212"/>
<path d="M24.0315 12.0994C24.2915 12.5495 24.1372 13.1254 23.687 13.3853C23.2367 13.6454 22.6608 13.4911 22.4009 13.0408C22.141 12.5905 22.2953 12.0147 22.7456 11.7548C23.1958 11.4948 23.7716 11.6491 24.0315 12.0994Z" fill="#121212"/>
<path d="M21.6457 25.7925C22.0959 26.0524 22.2502 26.6283 21.9903 27.0785C21.7304 27.5288 21.1546 27.683 20.7043 27.4231C20.254 27.1632 20.0997 26.5874 20.3596 26.137C20.6197 25.6869 21.1954 25.5326 21.6457 25.7925Z" fill="#121212"/>
<path d="M19.4465 23.0735C19.8968 23.3334 20.0511 23.9093 19.791 24.3595C19.5311 24.8098 18.9554 24.9641 18.5051 24.7041C18.0548 24.4442 17.9005 23.8684 18.1605 23.4181C18.4204 22.9679 18.9963 22.8136 19.4465 23.0735Z" fill="#121212"/>
<path d="M17.2477 20.3546C17.698 20.6147 17.8523 21.1904 17.5923 21.6407C17.3324 22.0909 16.7566 22.2452 16.3063 21.9853C15.856 21.7253 15.7017 21.1495 15.9618 20.6992C16.2217 20.249 16.7976 20.0947 17.2477 20.3546Z" fill="#121212"/>
<path d="M15.049 17.6358C15.4993 17.8957 15.6536 18.4714 15.3936 18.9217C15.1336 19.372 14.5579 19.5263 14.1076 19.2664C13.6573 19.0064 13.503 18.4306 13.7631 17.9803C14.023 17.5301 14.5988 17.3758 15.049 17.6358Z" fill="#121212"/>
<path d="M19.8294 30.6873C20.3493 30.6873 20.7708 31.1088 20.7708 31.6287C20.7708 32.1486 20.3493 32.5701 19.8294 32.5701C19.3094 32.5701 18.8879 32.1486 18.8879 31.6287C18.8879 31.1088 19.3094 30.6873 19.8294 30.6873Z" fill="#121212"/>
<path d="M16.5657 29.4321C17.0856 29.4321 17.5071 29.8535 17.5071 30.3735C17.5071 30.8934 17.0856 31.3149 16.5657 31.3149C16.0457 31.3149 15.6243 30.8934 15.6243 30.3735C15.6243 29.8535 16.0457 29.4321 16.5657 29.4321Z" fill="#121212"/>
<path d="M13.302 28.1769C13.822 28.1769 14.2434 28.5983 14.2434 29.1183C14.2434 29.6382 13.822 30.0597 13.302 30.0597C12.782 30.0597 12.3606 29.6382 12.3606 29.1183C12.3606 28.5983 12.782 28.1769 13.302 28.1769Z" fill="#121212"/>
<path d="M10.0383 26.9216C10.5583 26.9216 10.9797 27.3431 10.9797 27.863C10.9797 28.3829 10.5583 28.8045 10.0383 28.8045C9.51837 28.8045 9.09692 28.3829 9.09692 27.863C9.09692 27.3431 9.51837 26.9216 10.0383 26.9216Z" fill="#121212"/>
<path d="M20.7043 35.8343C21.1546 35.5744 21.7303 35.7287 21.9902 36.1789C22.2503 36.6292 22.096 37.2049 21.6457 37.4649C21.1954 37.7249 20.6196 37.5706 20.3597 37.1203C20.0997 36.67 20.2541 36.0943 20.7043 35.8343Z" fill="#121212"/>
<path d="M17.2499 36.3792C17.7002 36.1192 18.2759 36.2736 18.5359 36.7238C18.7959 37.1741 18.6416 37.7498 18.1913 38.0097C17.741 38.2698 17.1653 38.1155 16.9054 37.6652C16.6453 37.2149 16.7997 36.6391 17.2499 36.3792Z" fill="#121212"/>
<path d="M13.7958 36.924C14.2461 36.6641 14.8219 36.8183 15.0818 37.2685C15.3418 37.7188 15.1875 38.2946 14.7372 38.5546C14.2869 38.8145 13.7112 38.6602 13.4513 38.2099C13.1912 37.7596 13.3455 37.1839 13.7958 36.924Z" fill="#121212"/>
<path d="M10.342 37.4687C10.7922 37.2086 11.368 37.3631 11.6279 37.8132C11.888 38.2635 11.7337 38.8393 11.2834 39.0992C10.8331 39.3592 10.2573 39.2049 9.99743 38.7546C9.73738 38.3043 9.89167 37.7286 10.342 37.4687Z" fill="#121212"/>
<path d="M24.0349 39.8546C24.2949 39.4043 24.8706 39.25 25.3209 39.51C25.7712 39.7699 25.9255 40.3457 25.6656 40.796C25.4057 41.2463 24.8298 41.4006 24.3795 41.1405C23.9293 40.8806 23.775 40.3047 24.0349 39.8546Z" fill="#121212"/>
<path d="M21.3162 42.0535C21.5761 41.6032 22.1519 41.4489 22.6022 41.7089C23.0525 41.9688 23.2067 42.5446 22.9468 42.9949C22.6869 43.4452 22.111 43.5995 21.6607 43.3394C21.2106 43.0795 21.0563 42.5036 21.3162 42.0535Z" fill="#121212"/>
<path d="M18.5974 44.2522C18.8575 43.8019 19.4332 43.6476 19.8835 43.9076C20.3337 44.1676 20.488 44.7433 20.2281 45.1936C19.9682 45.6439 19.3923 45.7982 18.942 45.5382C18.4918 45.2782 18.3375 44.7025 18.5974 44.2522Z" fill="#121212"/>
<path d="M15.8784 46.451C16.1384 46.0007 16.7141 45.8464 17.1644 46.1064C17.6147 46.3664 17.769 46.9421 17.5091 47.3924C17.249 47.8427 16.6733 47.997 16.223 47.7369C15.7728 47.477 15.6185 46.9013 15.8784 46.451Z" fill="#121212"/>
<path d="M28.9299 41.6706C28.9299 41.1506 29.3514 40.7292 29.8713 40.7292C30.3912 40.7292 30.8128 41.1506 30.8128 41.6706C30.8128 42.1905 30.3912 42.612 29.8713 42.612C29.3514 42.612 28.9299 42.1905 28.9299 41.6706Z" fill="#121212"/>
<path d="M27.6748 44.9344C27.6748 44.4145 28.0963 43.993 28.6162 43.993C29.1362 43.993 29.5576 44.4145 29.5576 44.9344C29.5576 45.4544 29.1362 45.8759 28.6162 45.8759C28.0963 45.8759 27.6748 45.4544 27.6748 44.9344Z" fill="#121212"/>
<path d="M26.4194 48.198C26.4194 47.678 26.8409 47.2566 27.3608 47.2566C27.8808 47.2566 28.3023 47.678 28.3023 48.198C28.3023 48.718 27.8808 49.1394 27.3608 49.1394C26.8409 49.1394 26.4194 48.718 26.4194 48.198Z" fill="#121212"/>
<path d="M25.1643 51.4616C25.1643 50.9416 25.5859 50.5202 26.1057 50.5202C26.6257 50.5202 27.0473 50.9416 27.0473 51.4616C27.0473 51.9816 26.6257 52.403 26.1057 52.403C25.5859 52.403 25.1643 51.9816 25.1643 51.4616Z" fill="#121212"/>
<path d="M34.077 40.796C33.8169 40.3458 33.9714 39.7699 34.4215 39.51C34.8718 39.25 35.4476 39.4043 35.7075 39.8546C35.9675 40.3049 35.8133 40.8806 35.3629 41.1405C34.9126 41.4006 34.3369 41.2463 34.077 40.796Z" fill="#121212"/>
<path d="M34.6219 44.2501C34.3619 43.7999 34.5163 43.2241 34.9665 42.9642C35.4168 42.7041 35.9925 42.8584 36.2524 43.3087C36.5125 43.759 36.3582 44.3348 35.9079 44.5947C35.4576 44.8547 34.8818 44.7004 34.6219 44.2501Z" fill="#121212"/>
<path d="M35.1668 47.704C34.9069 47.2539 35.0611 46.678 35.5113 46.4181C35.9616 46.158 36.5374 46.3123 36.7973 46.7626C37.0573 47.2129 36.903 47.7887 36.4527 48.0486C36.0024 48.3086 35.4267 48.1543 35.1668 47.704Z" fill="#121212"/>
<path d="M35.7113 51.1581C35.4512 50.7078 35.6056 50.1321 36.0558 49.872C36.5061 49.6121 37.0819 49.7664 37.3418 50.2167C37.6018 50.667 37.4475 51.2427 36.9972 51.5027C36.5469 51.7626 35.9712 51.6083 35.7113 51.1581Z" fill="#121212"/>
<path d="M38.0973 37.4649C37.647 37.205 37.4928 36.6293 37.7528 36.179C38.0127 35.7287 38.5885 35.5744 39.0388 35.8344C39.4891 36.0944 39.6433 36.6701 39.3833 37.1204C39.1234 37.5706 38.5475 37.725 38.0973 37.4649Z" fill="#121212"/>
<path d="M40.2961 40.1839C39.8458 39.924 39.6915 39.3482 39.9515 38.8979C40.2114 38.4476 40.7872 38.2933 41.2375 38.5534C41.6878 38.8133 41.8421 39.389 41.582 39.8393C41.3221 40.2895 40.7463 40.4439 40.2961 40.1839Z" fill="#121212"/>
<path d="M42.4951 42.9028C42.0447 42.6429 41.8905 42.067 42.1505 41.6168C42.4104 41.1665 42.9862 41.0123 43.4365 41.2722C43.8868 41.5321 44.0411 42.1079 43.781 42.5583C43.5211 43.0084 42.9454 43.1627 42.4951 42.9028Z" fill="#121212"/>
<path d="M44.6935 45.6217C44.2432 45.3616 44.0889 44.7859 44.349 44.3356C44.6089 43.8854 45.1846 43.7311 45.6349 43.991C46.0853 44.251 46.2395 44.8268 45.9795 45.2771C45.7196 45.7273 45.1437 45.8816 44.6935 45.6217Z" fill="#121212"/>
<path d="M39.9133 32.5701C39.3934 32.5701 38.9719 32.1486 38.9719 31.6287C38.9719 31.1088 39.3934 30.6873 39.9133 30.6873C40.4333 30.6873 40.8547 31.1088 40.8547 31.6287C40.8547 32.1486 40.4333 32.5701 39.9133 32.5701Z" fill="#121212"/>
<path d="M43.177 33.8254C42.657 33.8254 42.2356 33.4038 42.2356 32.884C42.2356 32.364 42.657 31.9424 43.177 31.9424C43.697 31.9424 44.1184 32.364 44.1184 32.884C44.1184 33.4038 43.697 33.8254 43.177 33.8254Z" fill="#121212"/>
<path d="M46.4407 35.0806C45.9207 35.0806 45.4993 34.6591 45.4993 34.1392C45.4993 33.6193 45.9207 33.1978 46.4407 33.1978C46.9606 33.1978 47.3821 33.6193 47.3821 34.1392C47.3821 34.6591 46.9606 35.0806 46.4407 35.0806Z" fill="#121212"/>
<path d="M49.7044 36.3359C49.1844 36.3359 48.7629 35.9144 48.7629 35.3945C48.7629 34.8745 49.1844 34.4531 49.7044 34.4531C50.2243 34.4531 50.6458 34.8745 50.6458 35.3945C50.6458 35.9144 50.2243 36.3359 49.7044 36.3359Z" fill="#121212"/>
<path d="M39.0388 27.4231C38.5886 27.683 38.0127 27.5287 37.7528 27.0785C37.4928 26.6282 37.647 26.0524 38.0973 25.7924C38.5476 25.5325 39.1234 25.6868 39.3833 26.1371C39.6433 26.5873 39.4891 27.1631 39.0388 27.4231Z" fill="#121212"/>
<path d="M42.4926 26.8782C42.0424 27.1381 41.4666 26.9838 41.2067 26.5337C40.9466 26.0834 41.1009 25.5075 41.5512 25.2476C42.0015 24.9877 42.5772 25.1419 42.8372 25.5922C43.0972 26.0424 42.9429 26.6183 42.4926 26.8782Z" fill="#121212"/>
<path d="M35.7075 23.4029C35.4476 23.8531 34.8719 24.0074 34.4216 23.7475C33.9713 23.4875 33.817 22.9118 34.077 22.4615C34.3369 22.0112 34.9127 21.8569 35.363 22.1168C35.8132 22.3769 35.9676 22.9526 35.7075 23.4029Z" fill="#121212"/>
<path d="M38.4265 21.204C38.1666 21.6542 37.5909 21.8085 37.1406 21.5486C36.6903 21.2886 36.536 20.7129 36.796 20.2626C37.0559 19.8123 37.6317 19.658 38.082 19.9179C38.5322 20.1778 38.6866 20.7537 38.4265 21.204Z" fill="#121212"/>
<path d="M56.0781 8.40752C57.7828 10.3524 59.2508 12.4892 60.4544 14.7637C61.1413 16.059 60.5884 17.6647 59.2447 18.2514L58.6206 18.523C58.2488 18.6848 58.0725 19.1122 58.2222 19.4888C58.5518 20.3194 58.8415 21.1621 59.0914 22.0144C59.5091 23.4353 58.6158 24.907 57.1622 25.1895C55.2258 25.5661 53.5067 25.8993 50.7192 26.4414C49.4842 26.6804 48.2479 25.9742 47.8568 24.7766C47.0274 22.2317 45.6004 19.8377 43.5771 17.8144C41.5537 15.791 39.1598 14.3641 36.6137 13.5335C35.4173 13.1435 34.7111 11.9085 34.9501 10.6735L36.202 4.22803C36.4821 2.78537 37.9405 1.87872 39.3517 2.2916C40.2837 2.56444 41.2049 2.88557 42.1115 3.25257C42.4906 3.4071 42.9228 3.23205 43.0857 2.8578L43.3477 2.25659C43.9356 0.90689 45.5509 0.355178 46.8475 1.05297C49.0858 2.25901 51.1864 3.72219 53.0999 5.41475" stroke="#121212" stroke-width="1.5" stroke-miterlimit="10" stroke-linecap="round" stroke-linejoin="round"/>
<path d="M49.0995 12.292C47.6067 10.7993 45.9336 9.50343 44.1307 8.43477C43.1248 7.83839 41.8232 8.23365 41.3128 9.28576C40.8629 10.2128 41.186 11.3376 42.0699 11.867C43.5907 12.7776 45.0023 13.8755 46.2592 15.1323C47.516 16.3891 48.6139 17.8008 49.5246 19.3215C50.0539 20.2056 51.1786 20.5286 52.1057 20.0788C53.1578 19.5682 53.553 18.2667 52.9568 17.2608C51.8879 15.4578 50.5921 13.7847 49.0995 12.292Z" stroke="#121212" stroke-width="1.5" stroke-miterlimit="10" stroke-linecap="round" stroke-linejoin="round"/>
<path d="M52.5815 10.1396C52.2139 10.5072 51.6178 10.5072 51.2502 10.1396C50.8824 9.77203 50.8824 9.17589 51.2502 8.80829C51.6178 8.44068 52.2139 8.44068 52.5815 8.80829C52.9491 9.17589 52.9491 9.77203 52.5815 10.1396Z" fill="#121212"/>
<path d="M48.7654 6.72361C48.4672 7.14953 47.8801 7.25299 47.4543 6.9548C47.0283 6.65661 46.9248 6.06964 47.2231 5.64373C47.5213 5.21781 48.1083 5.11423 48.5342 5.41254C48.9601 5.71073 49.0636 6.29769 48.7654 6.72361Z" fill="#121212"/>
<path d="M54.6662 12.6244C54.2402 12.9226 54.1368 13.5096 54.435 13.9354C54.7332 14.3615 55.3201 14.4649 55.746 14.1666C56.172 13.8684 56.2755 13.2815 55.9772 12.8556C55.679 12.4296 55.0921 12.3262 54.6662 12.6244Z" fill="#121212"/>
</svg>
