<svg width="38" height="25" viewBox="0 0 38 25" fill="none" xmlns="http://www.w3.org/2000/svg">
<path d="M5.43945 9.89121C5.43945 8.20015 6.76816 7.92739 7.43251 7.92739C8.09686 7.92739 8.70585 7.92739 8.70585 7.92739L10.1453 5.79993H24.8718L26.4219 9.1275H28.9686V12.0732H32.235V9.2366H35.7228C35.7228 9.2366 37.0515 11.0368 37.0515 16.4373C37.0515 21.8378 35.7228 23.3106 35.7228 23.3106H32.4011V20.7467H29.1347V24.1834H14.7404L11.0864 20.5285C11.0864 20.5285 8.59513 20.5285 7.48787 20.5285C5.71627 20.5285 5.49482 19.0011 5.49482 18.3465C5.49482 17.6919 5.43945 11.5823 5.43945 9.89121Z" stroke="#121212" stroke-width="1.5" stroke-miterlimit="10" stroke-linecap="round" stroke-linejoin="round"/>
<ellipse cx="17.8166" cy="13.2015" rx="3.84" ry="3.84" stroke="#121212" stroke-width="1.5"/>
<path d="M21.0166 16.4015L24.8566 20.2415" stroke="#121212" stroke-width="1.5" stroke-linecap="round" stroke-linejoin="round"/>
<path d="M11.1421 1.54492H22.6575" stroke="#121212" stroke-width="1.5" stroke-miterlimit="10" stroke-linecap="round" stroke-linejoin="round"/>
<path d="M18.8926 5.79985V1.54492" stroke="#121212" stroke-width="1.5" stroke-miterlimit="10" stroke-linecap="round" stroke-linejoin="round"/>
<path d="M15.4604 5.79985V1.54492" stroke="#121212" stroke-width="1.5" stroke-miterlimit="10" stroke-linecap="round" stroke-linejoin="round"/>
<path d="M1.17676 18.7284V7.10913" stroke="#121212" stroke-width="1.5" stroke-miterlimit="10" stroke-linecap="round" stroke-linejoin="round"/>
<path d="M5.43968 13.0551H1.17676" stroke="#121212" stroke-width="1.5" stroke-miterlimit="10" stroke-linecap="round" stroke-linejoin="round"/>
</svg>
