<svg width="68" height="62" viewBox="0 0 68 62" fill="none" xmlns="http://www.w3.org/2000/svg">
<path d="M55.7502 5.0549V2.09534C55.7502 1.35235 55.1497 0.75 54.4087 0.75H52.7989C52.0582 0.75 51.4575 1.35235 51.4575 2.09534V5.0549" stroke="#121212" stroke-width="1.5" stroke-miterlimit="10" stroke-linecap="round" stroke-linejoin="round"/>
<path d="M49.311 9.35983V6.40027C49.311 5.65728 49.9117 5.05493 50.6525 5.05493H56.555C57.2958 5.05493 57.8963 5.65728 57.8963 6.40027V9.35983" stroke="#121212" stroke-width="1.5" stroke-miterlimit="10" stroke-linecap="round" stroke-linejoin="round"/>
<path d="M11.75 5.0549V2.09534C11.75 1.35235 12.3505 0.75 13.0915 0.75H14.7013C15.442 0.75 16.0427 1.35235 16.0427 2.09534V5.0549" stroke="#121212" stroke-width="1.5" stroke-miterlimit="10" stroke-linecap="round" stroke-linejoin="round"/>
<path d="M44.1228 9.35931H65.4087C66.1498 9.35931 66.75 9.9626 66.75 10.7057V13.3959C66.75 14.139 66.1498 14.7409 65.4087 14.7409H2.09124C1.35024 14.7409 0.75 14.139 0.75 13.3959V10.7057C0.75 9.9626 1.35024 9.35931 2.09124 9.35931H39.4749" stroke="#121212" stroke-width="1.5" stroke-miterlimit="10" stroke-linecap="round" stroke-linejoin="round"/>
<path d="M65.4085 60.7499H2.09138C1.35051 60.7499 0.75 60.1477 0.75 59.4046V56.7141C0.75 55.9711 1.35051 55.3687 2.09138 55.3687H65.4085C66.1494 55.3687 66.75 55.9711 66.75 56.7141V59.4046C66.75 60.1477 66.1494 60.7499 65.4085 60.7499Z" stroke="#121212" stroke-width="1.5" stroke-miterlimit="10" stroke-linecap="round" stroke-linejoin="round"/>
<path d="M9.60376 55.3687V14.741" stroke="#121212" stroke-width="1.5" stroke-miterlimit="10" stroke-linecap="round" stroke-linejoin="round"/>
<path d="M57.8962 14.741V55.3688" stroke="#121212" stroke-width="1.5" stroke-miterlimit="10" stroke-linecap="round" stroke-linejoin="round"/>
<path d="M64.604 55.3688V25.1753" stroke="#121212" stroke-width="1.5" stroke-miterlimit="10" stroke-linecap="round" stroke-linejoin="round"/>
<path d="M64.604 20.514V14.7409" stroke="#121212" stroke-width="1.5" stroke-miterlimit="10" stroke-linecap="round" stroke-linejoin="round"/>
<path d="M2.896 55.3688V46.1304" stroke="#121212" stroke-width="1.5" stroke-miterlimit="10" stroke-linecap="round" stroke-linejoin="round"/>
<path d="M2.896 41.4692V14.7409" stroke="#121212" stroke-width="1.5" stroke-miterlimit="10" stroke-linecap="round" stroke-linejoin="round"/>
<path d="M9.60376 9.35983V6.40027C9.60376 5.65728 10.2043 5.05493 10.9453 5.05493H16.8477C17.5884 5.05493 18.1891 5.65728 18.1891 6.40027V9.35983" stroke="#121212" stroke-width="1.5" stroke-miterlimit="10" stroke-linecap="round" stroke-linejoin="round"/>
<path d="M41.7988 30.3464H36.4329V22.2746L25.7012 34.3823H31.0671V43.7994L41.7988 30.3464Z" stroke="#121212" stroke-width="1.5" stroke-miterlimit="10" stroke-linecap="round" stroke-linejoin="round"/>
<path d="M48.7744 55.3687V52.14C48.7744 51.5457 49.2549 51.0638 49.8477 51.0638H51.9939C52.5866 51.0638 53.0671 51.5457 53.0671 52.14V55.3687" stroke="#121212" stroke-width="1.5" stroke-miterlimit="10" stroke-linecap="round" stroke-linejoin="round"/>
<path d="M40.189 55.3687V52.14C40.189 51.5457 40.6694 51.0638 41.2622 51.0638H43.4085C44.0012 51.0638 44.4816 51.5457 44.4816 52.14V55.3687" stroke="#121212" stroke-width="1.5" stroke-miterlimit="10" stroke-linecap="round" stroke-linejoin="round"/>
<path d="M31.6035 55.3687V52.14C31.6035 51.5457 32.084 51.0638 32.6766 51.0638H34.823C35.4157 51.0638 35.8962 51.5457 35.8962 52.14V55.3687" stroke="#121212" stroke-width="1.5" stroke-miterlimit="10" stroke-linecap="round" stroke-linejoin="round"/>
<path d="M23.0183 55.3687V52.14C23.0183 51.5457 23.4988 51.0638 24.0914 51.0638H26.2378C26.8305 51.0638 27.311 51.5457 27.311 52.14V55.3687" stroke="#121212" stroke-width="1.5" stroke-miterlimit="10" stroke-linecap="round" stroke-linejoin="round"/>
<path d="M14.4329 55.3687V52.14C14.4329 51.5457 14.9133 51.0638 15.506 51.0638H17.6524C18.2451 51.0638 18.7255 51.5457 18.7255 52.14V55.3687" stroke="#121212" stroke-width="1.5" stroke-miterlimit="10" stroke-linecap="round" stroke-linejoin="round"/>
</svg>
