<svg width="76" height="93" viewBox="0 0 76 93" fill="none" xmlns="http://www.w3.org/2000/svg">
<g filter="url(#filter0_ddddd_2372_6572)">
<rect x="10" y="1.51404" width="56" height="56" rx="28" fill="#219653"/>
<path d="M31.8104 27.326C31.3144 27.326 30.8904 27.15 30.5384 26.798C30.1864 26.446 30.0104 26.022 30.0104 25.526C30.0104 25.03 30.1864 24.606 30.5384 24.254C30.8904 23.902 31.3144 23.726 31.8104 23.726C32.3064 23.726 32.7304 23.902 33.0824 24.254C33.4344 24.606 33.6104 25.03 33.6104 25.526C33.6104 26.022 33.4344 26.446 33.0824 26.798C32.7464 27.15 32.3224 27.326 31.8104 27.326ZM30.4424 29.294H33.2024C33.2024 29.934 33.0584 30.542 32.7704 31.118C32.4824 31.678 32.1304 32.166 31.7144 32.582C31.2984 32.982 30.8824 33.374 30.4664 33.758C30.0504 34.126 29.6984 34.534 29.4104 34.982C29.1224 35.43 28.9784 35.886 28.9784 36.35C28.9784 37.006 29.2104 37.518 29.6744 37.886C30.1384 38.254 30.7624 38.438 31.5464 38.438C32.2984 38.438 32.9464 38.246 33.4904 37.862C34.0344 37.478 34.4264 36.934 34.6664 36.23L37.0424 37.574C36.6104 38.694 35.8904 39.566 34.8824 40.19C33.8904 40.814 32.7544 41.126 31.4744 41.126C30.0344 41.126 28.8024 40.718 27.7784 39.902C26.7384 39.086 26.2184 37.958 26.2184 36.518C26.2184 35.862 26.3624 35.238 26.6504 34.646C26.9384 34.054 27.2904 33.55 27.7064 33.134C28.1224 32.718 28.5384 32.318 28.9544 31.934C29.3704 31.534 29.7224 31.11 30.0104 30.662C30.2984 30.214 30.4424 29.758 30.4424 29.294ZM45.56 30.734H42.8C42.8 30.094 42.944 29.494 43.232 28.934C43.52 28.358 43.872 27.87 44.288 27.47C44.704 27.054 45.12 26.662 45.536 26.294C45.952 25.91 46.304 25.494 46.592 25.046C46.88 24.598 47.024 24.142 47.024 23.678C47.024 23.022 46.792 22.51 46.328 22.142C45.864 21.774 45.24 21.59 44.456 21.59C43.704 21.59 43.056 21.782 42.512 22.166C41.968 22.55 41.576 23.094 41.336 23.798L38.96 22.454C39.392 21.334 40.104 20.462 41.096 19.838C42.104 19.214 43.248 18.902 44.528 18.902C45.968 18.902 47.2 19.31 48.224 20.126C49.264 20.942 49.784 22.07 49.784 23.51C49.784 24.166 49.64 24.79 49.352 25.382C49.064 25.974 48.712 26.478 48.296 26.894C47.88 27.31 47.464 27.718 47.048 28.118C46.632 28.502 46.28 28.918 45.992 29.366C45.704 29.814 45.56 30.27 45.56 30.734ZM44.192 32.702C44.688 32.702 45.112 32.878 45.464 33.23C45.816 33.582 45.992 34.006 45.992 34.502C45.992 34.998 45.816 35.422 45.464 35.774C45.112 36.126 44.688 36.302 44.192 36.302C43.696 36.302 43.272 36.126 42.92 35.774C42.568 35.422 42.392 34.998 42.392 34.502C42.392 34.006 42.56 33.582 42.896 33.23C43.248 32.878 43.68 32.702 44.192 32.702Z" fill="white"/>
</g>
<defs>
<filter id="filter0_ddddd_2372_6572" x="0" y="0.514038" width="76" height="92" filterUnits="userSpaceOnUse" color-interpolation-filters="sRGB">
<feFlood flood-opacity="0" result="BackgroundImageFix"/>
<feColorMatrix in="SourceAlpha" type="matrix" values="0 0 0 0 0 0 0 0 0 0 0 0 0 0 0 0 0 0 127 0" result="hardAlpha"/>
<feOffset/>
<feColorMatrix type="matrix" values="0 0 0 0 0.129412 0 0 0 0 0.588235 0 0 0 0 0.32549 0 0 0 0.15 0"/>
<feBlend mode="normal" in2="BackgroundImageFix" result="effect1_dropShadow_2372_6572"/>
<feColorMatrix in="SourceAlpha" type="matrix" values="0 0 0 0 0 0 0 0 0 0 0 0 0 0 0 0 0 0 127 0" result="hardAlpha"/>
<feOffset dy="2"/>
<feGaussianBlur stdDeviation="1.5"/>
<feColorMatrix type="matrix" values="0 0 0 0 0.129412 0 0 0 0 0.588235 0 0 0 0 0.32549 0 0 0 0.15 0"/>
<feBlend mode="normal" in2="effect1_dropShadow_2372_6572" result="effect2_dropShadow_2372_6572"/>
<feColorMatrix in="SourceAlpha" type="matrix" values="0 0 0 0 0 0 0 0 0 0 0 0 0 0 0 0 0 0 127 0" result="hardAlpha"/>
<feOffset dy="6"/>
<feGaussianBlur stdDeviation="3"/>
<feColorMatrix type="matrix" values="0 0 0 0 0.129412 0 0 0 0 0.588235 0 0 0 0 0.32549 0 0 0 0.13 0"/>
<feBlend mode="normal" in2="effect2_dropShadow_2372_6572" result="effect3_dropShadow_2372_6572"/>
<feColorMatrix in="SourceAlpha" type="matrix" values="0 0 0 0 0 0 0 0 0 0 0 0 0 0 0 0 0 0 127 0" result="hardAlpha"/>
<feOffset dy="14"/>
<feGaussianBlur stdDeviation="4"/>
<feColorMatrix type="matrix" values="0 0 0 0 0.129412 0 0 0 0 0.588235 0 0 0 0 0.32549 0 0 0 0.08 0"/>
<feBlend mode="normal" in2="effect3_dropShadow_2372_6572" result="effect4_dropShadow_2372_6572"/>
<feColorMatrix in="SourceAlpha" type="matrix" values="0 0 0 0 0 0 0 0 0 0 0 0 0 0 0 0 0 0 127 0" result="hardAlpha"/>
<feOffset dy="25"/>
<feGaussianBlur stdDeviation="5"/>
<feColorMatrix type="matrix" values="0 0 0 0 0.129412 0 0 0 0 0.588235 0 0 0 0 0.32549 0 0 0 0.02 0"/>
<feBlend mode="normal" in2="effect4_dropShadow_2372_6572" result="effect5_dropShadow_2372_6572"/>
<feBlend mode="normal" in="SourceGraphic" in2="effect5_dropShadow_2372_6572" result="shape"/>
</filter>
</defs>
</svg>
