<svg width="40" height="40" viewBox="0 0 40 40" fill="none" xmlns="http://www.w3.org/2000/svg">
<path d="M29.2352 31.2832L29.7195 32.2562C29.7195 32.2562 30.2038 33.7158 31.4954 33.0671C32.6254 32.5806 33.5941 32.0941 34.7242 31.6075C36.0157 30.9589 35.37 29.6615 35.37 29.6615L32.1411 20.742C31.6568 19.6068 31.6568 19.769 32.3026 17.9851C32.9483 16.2012 31.3339 15.2282 31.3339 15.2282C29.2352 13.9308 20.8402 9.06564 20.8402 9.06564C20.8402 9.06564 19.3873 8.25478 18.4186 9.22782C17.45 10.2008 16.1584 11.3361 16.1584 11.3361C16.1584 11.3361 15.3512 12.3091 15.997 13.9308C16.6427 15.7147 22.2932 32.0941 22.4546 32.7427C22.7775 33.5536 23.5847 34.0401 24.3919 33.5536C25.3606 33.2293 29.2352 31.2832 29.2352 31.2832Z" stroke="#121212" stroke-width="1.5" stroke-miterlimit="10" stroke-linejoin="round"/>
<path d="M20.5173 21.553L24.069 31.7698L28.2665 29.4994L25.3606 21.0664C25.0377 20.2556 23.4233 18.6339 21.6474 19.2826C19.8716 19.9312 20.5173 21.553 20.5173 21.553Z" stroke="#121212" stroke-width="1.5" stroke-miterlimit="10" stroke-linejoin="round"/>
<path d="M25.038 27.8776L25.3609 26.0938L22.7778 19.1204" stroke="#121212" stroke-width="1.5" stroke-miterlimit="10" stroke-linecap="round" stroke-linejoin="round"/>
<path d="M22.2935 11.8226L24.0693 12.9578" stroke="#121212" stroke-width="1.5" stroke-miterlimit="10" stroke-linecap="round" stroke-linejoin="round"/>
<path d="M18.4188 9.06568L13.4141 3.87618L3.40473 1.76794L2.92041 4.3627L12.1226 6.47093L16.6429 11.0117" stroke="#121212" stroke-width="1.5" stroke-miterlimit="10" stroke-linecap="round" stroke-linejoin="round"/>
<path d="M5.18062 11.6604C5.18062 11.6604 1.62891 14.9038 1.62891 18.4716C1.62891 19.1203 2.43611 21.7151 5.18062 21.7151C7.92512 21.7151 8.73233 19.1203 8.73233 18.4716C8.89377 14.9038 5.18062 11.6604 5.18062 11.6604Z" stroke="#121212" stroke-width="1.5" stroke-miterlimit="10" stroke-linecap="round" stroke-linejoin="round"/>
<path d="M31.4956 33.3915L33.11 36.6349L36.5003 35.1754L34.8859 31.7698" stroke="#121212" stroke-width="1.5" stroke-miterlimit="10" stroke-linejoin="round"/>
<path d="M36.6074 1.87976L4.5249 38.0231" stroke="black" stroke-width="2" stroke-linecap="round"/>
<path d="M38.6377 35.9927L2.49438 3.91015" stroke="black" stroke-width="2" stroke-linecap="round"/>
</svg>
