<svg width="62" height="62" viewBox="0 0 62 62" fill="none" xmlns="http://www.w3.org/2000/svg">
<path d="M29.2079 24.8855H26.7212C25.3749 24.8855 24.2822 25.977 24.2822 27.3245V38.0563C24.2822 39.4038 25.3749 40.4952 26.7212 40.4952H31.9603" stroke="#121212" stroke-width="1.5" stroke-miterlimit="10" stroke-linecap="round" stroke-linejoin="round"/>
<path d="M31.8003 39.5846L35.4564 40.8474C35.781 40.9595 36.1149 40.981 36.4306 40.9252C37.1059 40.8062 37.6981 40.3342 37.9378 39.6401C38.2896 38.6215 37.749 37.5106 36.7304 37.1588L31.0251 35.1883" stroke="#121212" stroke-width="1.5" stroke-miterlimit="10" stroke-linecap="round" stroke-linejoin="round"/>
<path d="M33.5286 49.386L37.1847 50.6488C37.5092 50.761 37.8431 50.7823 38.1588 50.7267C38.8342 50.6077 39.4264 50.1355 39.6661 49.4416C40.0179 48.4229 39.4774 47.312 38.4588 46.9602L32.7534 44.9896" stroke="#121212" stroke-width="1.5" stroke-miterlimit="10" stroke-linecap="round" stroke-linejoin="round"/>
<path d="M30.0719 29.7832L33.7279 31.0461C34.0526 31.1581 34.3864 31.1796 34.7022 31.1239C35.3774 31.0049 35.9697 30.5327 36.2093 29.8387C36.5612 28.8202 36.0206 27.7091 35.0021 27.3573L29.2966 25.3869" stroke="#121212" stroke-width="1.5" stroke-miterlimit="10" stroke-linecap="round" stroke-linejoin="round"/>
<path d="M28.3438 19.9819L31.9999 21.2447C32.3245 21.3567 32.6583 21.3782 32.974 21.3225C33.6494 21.2035 34.2416 20.7314 34.4813 20.0374C34.8332 19.0188 34.2926 17.9077 33.274 17.5561L27.5686 15.5855" stroke="#121212" stroke-width="1.5" stroke-miterlimit="10" stroke-linecap="round" stroke-linejoin="round"/>
<path d="M58.235 34.9235L55.2312 37.3606C54.9647 37.5769 54.6583 37.7114 54.3426 37.7671C53.6671 37.8861 52.9493 37.6449 52.4867 37.0747C51.8076 36.238 51.9356 35.0091 52.7724 34.3302L57.4598 30.5271" stroke="#121212" stroke-width="1.5" stroke-miterlimit="10" stroke-linecap="round" stroke-linejoin="round"/>
<path d="M59.9634 44.7248L56.9597 47.1618C56.6931 47.3782 56.3867 47.5127 56.071 47.5684C55.3957 47.6875 54.6778 47.4463 54.2152 46.8761C53.5362 46.0393 53.664 44.8105 54.5009 44.1315L59.1883 40.3285" stroke="#121212" stroke-width="1.5" stroke-miterlimit="10" stroke-linecap="round" stroke-linejoin="round"/>
<path d="M56.5067 25.1221L53.503 27.5592C53.2363 27.7755 52.9299 27.91 52.6142 27.9657C51.9389 28.0847 51.221 27.8435 50.7584 27.2734C50.0793 26.4367 50.2073 25.2077 51.0442 24.5289L55.7315 20.7257" stroke="#121212" stroke-width="1.5" stroke-miterlimit="10" stroke-linecap="round" stroke-linejoin="round"/>
<path d="M54.7787 15.3207L51.775 17.7578C51.5083 17.9741 51.2019 18.1086 50.8862 18.1643C50.2109 18.2833 49.4929 18.0422 49.0304 17.472C48.3514 16.6353 48.4792 15.4064 49.3162 14.7275L54.0034 10.9244" stroke="#121212" stroke-width="1.5" stroke-miterlimit="10" stroke-linecap="round" stroke-linejoin="round"/>
<path d="M34.1834 6.45303L31.0108 7.01199C28.3571 7.47919 26.585 10.0096 27.0533 12.6631L34.2533 53.4956C34.7205 56.1491 37.2509 57.9214 39.9045 57.4529L50.3543 55.6107" stroke="#121212" stroke-width="1.5" stroke-miterlimit="10" stroke-linecap="round" stroke-linejoin="round"/>
<path d="M38.3435 5.71899L47.8239 4.04696C50.4775 3.57867 53.0067 5.35078 53.4751 8.00442L60.6749 48.8368C61.1423 51.4905 59.3712 54.0208 56.7176 54.488L54.5144 54.8766" stroke="#121212" stroke-width="1.5" stroke-miterlimit="10" stroke-linecap="round" stroke-linejoin="round"/>
<path d="M43.8643 0.750021V1.47437" stroke="#121212" stroke-width="1.5" stroke-linecap="round" stroke-linejoin="round"/>
<path d="M43.8643 5.44393V58.0408" stroke="#121212" stroke-width="1.5" stroke-linecap="round" stroke-linejoin="round" stroke-dasharray="6 6"/>
<path d="M43.8643 60.0257V60.75" stroke="#121212" stroke-width="1.5" stroke-linecap="round" stroke-linejoin="round"/>
<path d="M12.0493 28.788H24.2823" stroke="#121212" stroke-width="1.5" stroke-miterlimit="10" stroke-linecap="round" stroke-linejoin="round"/>
<path d="M15.383 36.593H12.0498" stroke="#121212" stroke-width="1.5" stroke-miterlimit="10" stroke-linecap="round" stroke-linejoin="round"/>
<path d="M24.2828 36.593H19.6084" stroke="#121212" stroke-width="1.5" stroke-miterlimit="10" stroke-linecap="round" stroke-linejoin="round"/>
<path d="M0.75 20.7391C7.35047 20.7391 12.7012 26.0899 12.7012 32.6903C12.7012 39.2908 7.35047 44.6415 0.75 44.6415" stroke="#121212" stroke-width="1.5" stroke-miterlimit="10" stroke-linecap="round" stroke-linejoin="round"/>
<path d="M0.75 24.6415C5.19518 24.6415 8.7988 28.2452 8.7988 32.6903C8.7988 37.1355 5.19518 40.7391 0.75 40.7391" stroke="#121212" stroke-width="1.5" stroke-miterlimit="10" stroke-linecap="round" stroke-linejoin="round"/>
<path d="M0.75 4.64697C5.22174 4.64697 11.5053 6.53558 15.2137 10.7446" stroke="#121212" stroke-width="1.5" stroke-miterlimit="10" stroke-linecap="round" stroke-linejoin="round"/>
<path d="M15.2137 6.84222V10.7446H11.3113" stroke="#121212" stroke-width="1.5" stroke-miterlimit="10" stroke-linecap="round" stroke-linejoin="round"/>
</svg>
