<svg width="40" height="31" viewBox="0 0 40 31" fill="none" xmlns="http://www.w3.org/2000/svg">
<path d="M27.8301 26.408H12.3267" stroke="black" stroke-width="1.5" stroke-miterlimit="10"/>
<path d="M5.18446 26.4079C5.18446 26.4079 3.55863 26.4079 2.16506 26.4079C0.771493 26.4079 0.887624 24.9563 0.887624 24.9563C0.887624 24.9563 0.887624 20.0207 0.887624 19.2078C0.887624 18.3949 1.41021 17.9304 2.16506 17.9304C2.91991 17.9304 5.01026 17.9304 5.01026 17.9304C5.01026 17.9304 7.27481 12.8206 7.91353 11.369C8.55225 9.91736 9.42323 9.39478 10.2361 9.39478C11.0491 9.39478 20.804 9.39478 21.7331 9.39478C22.8944 9.39478 23.9976 10.7883 23.9976 10.7883L30.0945 17.9304C30.0945 17.9304 31.2558 17.9304 34.6816 17.9304C38.1075 17.9304 39.1527 21.5304 39.1527 22.3433C39.1527 23.0982 39.1527 25.0143 39.1527 25.0143C39.1527 25.0143 39.1527 26.466 37.9333 26.466C36.7139 26.466 34.972 26.466 34.972 26.466" stroke="black" stroke-width="1.5" stroke-miterlimit="10"/>
<path d="M19.4688 17.8723H26.3205L21.5591 12.24H10.7009L8.2041 17.8723H15.8687V12.3561" stroke="black" stroke-width="1.5" stroke-miterlimit="10" stroke-linecap="round"/>
<path d="M8.72655 29.9499C10.6827 29.9499 12.2685 28.3641 12.2685 26.4079C12.2685 24.4518 10.6827 22.866 8.72655 22.866C6.77037 22.866 5.18457 24.4518 5.18457 26.4079C5.18457 28.3641 6.77037 29.9499 8.72655 29.9499Z" stroke="black" stroke-width="1.5" stroke-miterlimit="10" stroke-linecap="round"/>
<path d="M29.572 23.3886C30.0946 23.0982 30.7333 22.866 31.3721 22.866C33.3463 22.866 34.914 24.4337 34.914 26.4079C34.914 28.3822 33.3463 29.9499 31.3721 29.9499C29.3978 29.9499 27.8301 28.3822 27.8301 26.4079" stroke="black" stroke-width="1.5" stroke-miterlimit="10" stroke-linecap="round"/>
<path d="M35.8432 13.4594C35.8432 13.4594 34.0432 13.8658 33.5206 14.3884C32.998 14.911 30.0947 17.8723 30.0947 17.8723" stroke="black" stroke-width="1.5" stroke-miterlimit="10" stroke-linecap="round"/>
<path d="M34.2754 9.9755C34.2754 9.9755 34.2754 8.75613 34.2754 7.94322C34.2754 7.1303 33.4625 7.1303 33.4625 7.1303H30.6753C26.785 7.1303 26.4946 3.47219 26.4946 3.1238C26.4946 2.7754 26.4946 1.38184 26.4946 1.38184" stroke="black" stroke-width="1.5" stroke-miterlimit="10" stroke-linecap="round"/>
<path d="M30.6753 1.43982C30.6753 1.43982 30.6753 2.65919 30.6753 3.47211C30.6753 4.28502 31.3721 4.28502 31.3721 4.28502H33.114C37.1786 4.28502 37.1786 7.94313 37.1786 8.29153C37.1786 8.63992 37.1786 10.0335 37.1786 10.0335" stroke="black" stroke-width="1.5" stroke-miterlimit="10" stroke-linecap="round"/>
<path d="M37.0625 22.8079H39.1529" stroke="black" stroke-width="1.5" stroke-miterlimit="10" stroke-linecap="round"/>
</svg>
