<svg width="24" height="23" viewBox="0 0 24 23" fill="none" xmlns="http://www.w3.org/2000/svg">
<path d="M21.6376 5.25928L18.6483 8.78734C18.5624 8.88815 18.4336 8.94695 18.2961 8.94695H13.6404C13.46 8.94695 13.2968 9.05615 13.2281 9.22415L11.7936 13.0882C11.7335 13.2562 11.5703 13.3654 11.3899 13.3654H8.46075C8.18588 13.3654 7.91959 13.483 7.73921 13.693L0.24887 22.0596C0.145792 22.1772 -0.0517746 22.068 0.00835423 21.9252L2.59389 15.4991L3.38416 13.3738L4.81007 9.55176C4.94751 9.19055 5.2911 8.95535 5.68624 8.95535H12.455C12.6354 8.95535 12.7986 8.84614 12.8673 8.67814L14.1988 5.10808C14.3018 4.83087 14.0957 4.53687 13.7864 4.53687H6.66548L8.09139 0.706396C8.22883 0.35359 8.57242 0.109985 8.96755 0.109985H16.1143L14.6884 3.95726C14.5853 4.23446 14.7915 4.52847 15.1007 4.52847H21.294C21.6719 4.52847 21.8867 4.97367 21.6376 5.25928Z" fill="#FF0000"/>
<path d="M23.8883 0.8996L20.8131 4.53687H15.0923C14.7916 4.53687 14.5769 4.24286 14.68 3.96566L16.1145 0.109985H23.5103C23.9226 0.109985 24.1546 0.580394 23.8883 0.8996Z" fill="url(#paint0_linear_0_1)"/>
<path d="M17.635 8.95532L14.0358 13.2058C13.9413 13.315 13.8039 13.3822 13.6579 13.3822H11.6908L13.2284 9.24093C13.2885 9.07292 13.4517 8.96372 13.6407 8.96372H17.635V8.95532Z" fill="url(#paint1_linear_0_1)"/>
<path d="M14.199 5.09967L12.8676 8.66973C12.8074 8.83774 12.6442 8.94694 12.4552 8.94694H6.6571C6.35646 8.94694 6.14171 8.65293 6.24479 8.37573L7.57621 4.81406C7.63634 4.64606 7.79955 4.53686 7.98853 4.53686H13.7953C14.0959 4.52846 14.3106 4.82246 14.199 5.09967Z" fill="url(#paint2_linear_0_1)"/>
<defs>
<linearGradient id="paint0_linear_0_1" x1="14.6522" y1="2.32088" x2="24.0011" y2="2.32088" gradientUnits="userSpaceOnUse">
<stop stop-color="white"/>
<stop offset="1" stop-color="#B5B5B5"/>
</linearGradient>
<linearGradient id="paint1_linear_0_1" x1="11.397" y1="13.0186" x2="17.0146" y2="8.22204" gradientUnits="userSpaceOnUse">
<stop stop-color="white"/>
<stop offset="1" stop-color="#B5B5B5"/>
</linearGradient>
<linearGradient id="paint2_linear_0_1" x1="6.89333" y1="9.46419" x2="13.4378" y2="3.87616" gradientUnits="userSpaceOnUse">
<stop stop-color="white"/>
<stop offset="1" stop-color="#B5B5B5"/>
</linearGradient>
</defs>
</svg>
