<svg width="60" height="60" viewBox="0 0 60 60" fill="none" xmlns="http://www.w3.org/2000/svg">
<mask id="mask0_238_2011" style="mask-type:luminance" maskUnits="userSpaceOnUse" x="0" y="0" width="60" height="60">
<path d="M59.25 59.25V0.75H0.75V59.25H59.25Z" fill="white" stroke="white" stroke-width="1.5"/>
</mask>
<g mask="url(#mask0_238_2011)">
<path d="M39.4699 38.6414H58.4111C58.8035 38.6414 59.1211 38.3238 59.1211 37.9312V35.564C59.1211 35.1714 58.8035 34.8539 58.4111 34.8539H1.58906C1.19648 34.8539 0.878906 35.1714 0.878906 35.564V37.9312C0.878906 38.3238 1.19648 38.6414 1.58906 38.6414H35.3684" stroke="#121212" stroke-width="1.5" stroke-miterlimit="10" stroke-linecap="round" stroke-linejoin="round"/>
<path d="M5.89336 26.4486H1.58918C1.19695 26.4486 0.878906 26.7667 0.878906 27.1589V29.5264C0.878906 29.9188 1.19695 30.2367 1.58918 30.2367H5.89336" stroke="#121212" stroke-width="1.5" stroke-miterlimit="10" stroke-linecap="round" stroke-linejoin="round"/>
<path d="M18.3564 30.2367H41.6438" stroke="#121212" stroke-width="1.5" stroke-miterlimit="10" stroke-linecap="round" stroke-linejoin="round"/>
<path d="M54.1067 30.2367H58.4109C58.8031 30.2367 59.1211 29.9188 59.1211 29.5264V27.1589C59.1211 26.7667 58.8031 26.4486 58.4109 26.4486H54.1067" stroke="#121212" stroke-width="1.5" stroke-miterlimit="10" stroke-linecap="round" stroke-linejoin="round"/>
<path d="M5.61401 28.3426C5.61401 31.9385 8.52905 34.8535 12.125 34.8535C15.7206 34.8535 18.6357 31.9385 18.6357 28.3426C18.6357 24.7469 15.7206 21.8318 12.125 21.8318C8.52905 21.8318 5.61401 24.7469 5.61401 28.3426Z" stroke="#121212" stroke-width="1.5" stroke-miterlimit="10" stroke-linecap="round" stroke-linejoin="round"/>
<path d="M10.2307 28.3427C10.2307 29.3887 11.0787 30.2368 12.1248 30.2368C13.1708 30.2368 14.0188 29.3887 14.0188 28.3427C14.0188 27.2966 13.1708 26.4486 12.1248 26.4486C11.0787 26.4486 10.2307 27.2966 10.2307 28.3427Z" stroke="#121212" stroke-width="1.5" stroke-miterlimit="10" stroke-linecap="round" stroke-linejoin="round"/>
<path d="M41.3643 28.3426C41.3643 31.9385 44.2793 34.8535 47.8751 34.8535C51.4709 34.8535 54.3859 31.9385 54.3859 28.3426C54.3859 24.7469 51.4709 21.8318 47.8751 21.8318C44.2793 21.8318 41.3643 24.7469 41.3643 28.3426Z" stroke="#121212" stroke-width="1.5" stroke-miterlimit="10" stroke-linecap="round" stroke-linejoin="round"/>
<path d="M45.9812 28.3427C45.9812 29.3887 46.8292 30.2368 47.8752 30.2368C48.9213 30.2368 49.7693 29.3887 49.7693 28.3427C49.7693 27.2966 48.9213 26.4486 47.8752 26.4486C46.8292 26.4486 45.9812 27.2966 45.9812 28.3427Z" stroke="#121212" stroke-width="1.5" stroke-miterlimit="10" stroke-linecap="round" stroke-linejoin="round"/>
<path d="M41.563 26.4492H28.1333" stroke="#121212" stroke-width="1.5" stroke-miterlimit="10" stroke-linecap="round" stroke-linejoin="round"/>
<path d="M24.0315 26.4492H18.437" stroke="#121212" stroke-width="1.5" stroke-miterlimit="10" stroke-linecap="round" stroke-linejoin="round"/>
<path d="M34.4476 12.2432H47.557C48.0363 12.2432 48.3779 11.7785 48.2349 11.3211L46.3113 5.16545C46.2187 4.86885 45.9441 4.66705 45.6334 4.66705H34.4476C34.0552 4.66705 33.7373 4.98498 33.7373 5.37733V11.533C33.7373 11.9252 34.0552 12.2432 34.4476 12.2432Z" stroke="#121212" stroke-width="1.5" stroke-miterlimit="10" stroke-linecap="round" stroke-linejoin="round"/>
<path d="M29.2388 4.66699H18.7934C18.5066 4.66699 18.2481 4.83938 18.1377 5.1041L15.5729 11.2597C15.378 11.7275 15.7218 12.2432 16.2285 12.2432H29.2388C29.6311 12.2432 29.9491 11.9252 29.9491 11.5329V5.37727C29.9491 4.98492 29.6311 4.66699 29.2388 4.66699Z" stroke="#121212" stroke-width="1.5" stroke-miterlimit="10" stroke-linecap="round" stroke-linejoin="round"/>
<path d="M57.9374 26.3302V14.6107C57.9374 13.3032 56.8774 12.2432 55.5699 12.2432H52.9989C52.6957 12.2432 52.4258 12.0506 52.3272 11.7638L49.1349 2.4768C48.8061 1.52079 47.9067 0.878832 46.8958 0.878832H17.7874C16.8617 0.878832 16.0209 1.41836 15.6352 2.26L11.1995 11.9378C11.1109 12.1311 10.9403 12.2746 10.7346 12.3288L3.82782 14.1463C2.78778 14.42 2.06274 15.3604 2.06274 16.4358V26.3302" stroke="#121212" stroke-width="1.5" stroke-miterlimit="10" stroke-linecap="round" stroke-linejoin="round"/>
<path d="M2.06274 17.0967H5.0086C5.47372 17.0967 5.85083 17.4739 5.85083 17.939V20.0426C5.85083 20.5077 5.47372 20.8848 5.0086 20.8848H2.06274" stroke="#121212" stroke-width="1.5" stroke-miterlimit="10" stroke-linecap="round" stroke-linejoin="round"/>
<path d="M57.9373 17.0967H54.9914C54.5263 17.0967 54.1492 17.4739 54.1492 17.939V20.0426C54.1492 20.5077 54.5263 20.8848 54.9914 20.8848H57.9373" stroke="#121212" stroke-width="1.5" stroke-miterlimit="10" stroke-linecap="round" stroke-linejoin="round"/>
<path d="M25.1465 15.913H27.514" stroke="#121212" stroke-width="1.5" stroke-miterlimit="10" stroke-linecap="round" stroke-linejoin="round"/>
<path d="M43.4951 15.913H45.8627" stroke="#121212" stroke-width="1.5" stroke-miterlimit="10" stroke-linecap="round" stroke-linejoin="round"/>
<path d="M31.8928 26.4486V15.913" stroke="#121212" stroke-width="1.5" stroke-miterlimit="10" stroke-linecap="round" stroke-linejoin="round"/>
<path d="M14.6108 38.6416V40.0621C14.6108 41.3697 15.6709 42.4297 16.9784 42.4297H43.0217C44.3292 42.4297 45.3893 41.3697 45.3893 40.0621V38.6416" stroke="#121212" stroke-width="1.5" stroke-miterlimit="10" stroke-linecap="round" stroke-linejoin="round"/>
<path d="M21.5249 55.3324H44.4422C44.9649 55.3324 45.3891 55.7566 45.3891 56.2805V58.1742C45.3891 58.6969 44.9649 59.1211 44.4422 59.1211H15.5577C15.0351 59.1211 14.6108 58.6969 14.6108 58.1742V56.2805C14.6108 55.7566 15.0351 55.3324 15.5577 55.3324H17.4233" stroke="#121212" stroke-width="1.5" stroke-miterlimit="10" stroke-linecap="round" stroke-linejoin="round"/>
<path d="M33.7881 55.333V42.4297" stroke="#121212" stroke-width="1.5" stroke-miterlimit="10" stroke-linecap="round" stroke-linejoin="round"/>
<path d="M26.2119 42.4297V55.333" stroke="#121212" stroke-width="1.5" stroke-miterlimit="10" stroke-linecap="round" stroke-linejoin="round"/>
</g>
</svg>
