<svg width="45" height="48" viewBox="0 0 45 48" fill="none" xmlns="http://www.w3.org/2000/svg">
<path d="M36.1296 8.12504C35.9908 8.00058 35.8488 7.87904 35.703 7.76082C31.1083 4.02689 24.1648 4.71413 20.2279 9.29329L17.0896 12.9436C15.5248 14.7636 15.7324 17.5157 17.5524 19.0805L24.4059 24.9727L22.4265 27.275C22.1886 27.5517 21.8598 27.7188 21.4963 27.7462L20.1129 27.851C18.2577 27.9909 16.8635 29.6125 17.0056 31.4652C17.0622 32.2157 16.4988 32.8711 15.7483 32.9277L15.3891 32.9543C14.5866 33.0148 13.8553 33.3834 13.3294 33.9952C12.8056 34.6044 12.5483 35.3857 12.6088 36.1882C12.6519 36.7594 12.471 37.3143 12.0978 37.7483C11.3274 38.6444 9.96783 38.7469 9.07179 37.9766L8.92207 37.8478C8.3611 37.3655 8.29737 36.5206 8.77966 35.9596L17.797 25.4711C18.1593 25.0497 18.1116 24.4172 17.6902 24.0549C17.2688 23.6927 16.6363 23.7404 16.274 24.1617L7.25879 34.6477C6.05634 36.0463 6.2162 38.1659 7.61482 39.3684L7.76455 39.4971C9.50077 40.9898 12.1302 40.7915 13.6229 39.0552C14.3453 38.2151 14.6984 37.1415 14.6151 36.0369C14.5948 35.7678 14.6803 35.5097 14.8549 35.3067C15.0294 35.1036 15.2735 34.9783 15.5404 34.9606L15.8996 34.9339C17.7548 34.794 19.1493 33.172 19.0072 31.3193C18.9506 30.5687 19.5136 29.9139 20.2642 29.8573L21.6476 29.7525C22.5445 29.6848 23.3628 29.2718 23.9498 28.589L25.9314 26.2842L27.6829 27.7901C29.4928 29.346 32.2383 29.1461 33.8023 27.3475L37.1117 23.5443L37.116 23.5393C39.0779 21.2574 40.0099 18.3503 39.7414 15.3559C39.4916 12.5463 38.2115 9.99196 36.1296 8.12504ZM34.6317 9.48423C36.4289 11.0293 37.5302 13.1682 37.7394 15.5333C37.9576 17.9855 37.1945 20.3622 35.5927 22.2253L32.2857 26.0256C31.4427 26.996 29.9645 27.1029 28.9898 26.2649L18.8618 17.5575C17.882 16.7151 17.7702 15.2328 18.6126 14.253L21.7509 10.6027C24.9872 6.83832 30.6765 6.26464 34.4367 9.3209C34.5049 9.3751 34.5683 9.42967 34.6317 9.48423ZM29.1547 11.9576C28.7333 11.5954 28.1007 11.6431 27.7385 12.0645C27.3762 12.4858 27.4239 13.1184 27.8453 13.4806L31.3152 16.4638C31.7365 16.8261 32.3691 16.7784 32.7314 16.357C33.0936 15.9357 33.0459 15.3031 32.6245 14.9408L29.1547 11.9576Z" fill="#121212"/>
</svg>
