<svg width="37" height="32" viewBox="0 0 37 32" fill="none" xmlns="http://www.w3.org/2000/svg">
<path d="M11.1106 5.02081C9.79759 4.6091 8.92226 5.02081 8.48459 6.66767C8.04693 8.31452 6.29627 14.4902 5.8586 15.7254C5.42094 16.9606 6.29627 17.3723 7.1716 17.784C8.04693 18.1956 15.0496 20.666 16.8002 21.4894C18.5508 22.3128 19.4107 22.2677 20.3015 21.9011C21.1923 21.5345 35.1822 16.1371 35.1822 16.1371L33.4315 14.4902H25.5535C24.2406 14.4903 22.9276 13.6668 24.2406 12.02C25.5535 10.3731 22.9276 9.54967 22.9276 9.54967C22.9276 9.54967 12.4236 5.43253 11.1106 5.02081Z" stroke="#121212" stroke-width="1.5" stroke-linecap="round" stroke-linejoin="round"/>
<path d="M10.8623 8.07227H11.5023" stroke="#121212" stroke-width="1.5" stroke-linecap="round" stroke-linejoin="round"/>
<path d="M13.1501 8.12603L21.1022 10.8814M8.60633 6.18454L5.66585 4.97701C4.26254 4.58339 2.85924 5.37064 2.39147 6.15789C2.12729 6.60251 1.92373 6.9451 1.45596 7.73236C0.988191 8.51961 1.45597 8.91324 1.92376 9.70049C2.39154 10.4877 6.27221 14.4723 6.27221 14.4723" stroke="#121212" stroke-width="1.5" stroke-linecap="round" stroke-linejoin="round"/>
<path d="M15.923 1.15744C15.923 1.15744 14.6276 0.656574 14.1958 1.65831C13.6263 2.97942 15.0594 3.66179 15.0594 3.66179L21.1046 6.66701C21.1046 6.66701 22.4 7.16788 22.8319 6.16614C23.4384 4.7591 22.4001 4.16266 22.4001 4.16266L15.923 1.15744Z" stroke="#121212" stroke-width="1.5" stroke-linecap="round" stroke-linejoin="round"/>
<path d="M17.9023 7.43221L18.5423 5.51221" stroke="#121212" stroke-width="1.5" stroke-linecap="round" stroke-linejoin="round"/>
<path d="M15.9824 6.79231L17.2624 4.87231" stroke="#121212" stroke-width="1.5" stroke-linecap="round" stroke-linejoin="round"/>
<path d="M29.4224 27.8355C29.4224 24.5587 32.6224 20.8723 32.6224 20.8723C32.6224 20.8723 35.8224 24.5587 35.8224 27.8355C35.8224 27.8355 35.8224 31.1123 32.6224 31.1123C29.4224 31.1123 29.4224 27.8355 29.4224 27.8355Z" stroke="#121212" stroke-width="1.5" stroke-linecap="round" stroke-linejoin="round"/>
<path d="M34.3268 26.6322C35.1708 29.3811 33.2622 29.1893 33.2622 29.1893" stroke="#121212" stroke-width="1.5" stroke-linecap="round" stroke-linejoin="round"/>
</svg>
