<svg width="37" height="29" viewBox="0 0 37 29" fill="none" xmlns="http://www.w3.org/2000/svg">
<path d="M32.3975 5.85059C34.054 5.85081 35.3973 7.19404 35.3975 8.85059V24.2891C35.3975 25.9458 34.0541 27.2888 32.3975 27.2891H4C2.34314 27.2891 1 25.9459 1 24.2891V8.85059C1.0002 7.1939 2.34327 5.85059 4 5.85059H32.3975ZM12.7236 3.71094C12.7236 3.15865 12.2759 2.71094 11.7236 2.71094H9.58105C9.02877 2.71094 8.58105 3.15865 8.58105 3.71094V5.81738H6.58105V3.71094C6.58105 2.05408 7.9242 0.710938 9.58105 0.710938H11.7236C13.3805 0.710938 14.7236 2.05408 14.7236 3.71094V5.81738H12.7236V3.71094ZM28.46 3.71094C28.46 3.15878 28.0121 2.71115 27.46 2.71094H25.3174C24.7651 2.71094 24.3174 3.15865 24.3174 3.71094V5.81738H22.3174V3.71094C22.3174 2.05408 23.6605 0.710938 25.3174 0.710938H27.46C29.1166 0.711151 30.46 2.05422 30.46 3.71094V5.81738H28.46V3.71094Z" stroke="black" stroke-width="2"/>
<path d="M7.47363 16.8743H14.2305" stroke="black" stroke-width="2" stroke-linecap="round"/>
<path d="M22.7461 16.8693H29.5029" stroke="black" stroke-width="2" stroke-linecap="round"/>
<path d="M26.1299 13.4958L26.1299 20.2527" stroke="black" stroke-width="2" stroke-linecap="round"/>
</svg>
