<svg width="55" height="55" viewBox="0 0 55 55" fill="none" xmlns="http://www.w3.org/2000/svg">
<mask id="mask0_238_2265" style="mask-type:luminance" maskUnits="userSpaceOnUse" x="0" y="0" width="55" height="55">
<path d="M54.25 54.25V0.75H0.75V54.25H54.25Z" fill="white" stroke="white" stroke-width="1.5"/>
</mask>
<g mask="url(#mask0_238_2265)">
<path d="M19.9792 6.29369L21.857 8.17132C22.2996 8.61293 22.5112 9.23695 22.4317 9.85795L21.7807 14.8391C21.7324 15.2119 21.8591 15.5857 22.1255 15.852L27.4999 21.2264" stroke="#121212" stroke-width="1.5" stroke-miterlimit="10" stroke-linecap="round" stroke-linejoin="round"/>
<path d="M17.3208 3.63487L15.0822 1.39502C14.5902 0.903024 13.879 0.700104 13.2023 0.855866L9.00531 1.8247C8.07933 2.03858 7.74955 3.18681 8.42093 3.85938L13.5117 8.94796C13.7082 9.14443 13.7899 9.4291 13.7265 9.69873L13.0852 12.4788C13.0154 12.7797 12.7812 13.0139 12.4804 13.0837L9.70033 13.725C9.4307 13.7884 9.14603 13.7067 8.94945 13.5102L3.86088 8.41933C3.18842 7.74795 2.04008 8.07773 1.82631 9.00371L0.857362 13.2008C0.7016 13.8775 0.904626 14.5887 1.39662 15.0807L8.17279 21.8557C8.61429 22.2982 9.23842 22.51 9.85931 22.4305L14.8405 21.7794C15.2132 21.7312 15.587 21.8579 15.8535 22.1242L21.2278 27.4985" stroke="#121212" stroke-width="1.5" stroke-miterlimit="10" stroke-linecap="round" stroke-linejoin="round"/>
<path d="M33.772 27.4986L39.1468 32.8733C39.4125 33.1393 39.787 33.2661 40.1591 33.2172L45.141 32.5673C45.7617 32.4871 46.3856 32.6986 46.8273 33.1413L53.604 39.917C54.0955 40.4085 54.2985 41.1193 54.1422 41.7965L53.1743 45.9937C52.9605 46.9193 51.8114 47.2491 51.1397 46.5774L46.0504 41.4871C45.854 41.2908 45.5696 41.2093 45.2995 41.2723L42.5193 41.9136C42.2187 41.9831 41.9843 42.2175 41.9149 42.5179L41.2736 45.2981C41.2107 45.5683 41.292 45.8526 41.4885 46.049L46.5789 51.1383C47.2506 51.81 46.9206 52.9592 45.995 53.173L41.7977 54.141C41.1206 54.2972 40.4099 54.0943 39.9183 53.6027L33.1427 46.826C32.7 46.3844 32.4883 45.7604 32.5686 45.1398L33.2186 40.1579C33.2675 39.7857 33.1405 39.4113 32.8746 39.1454L27.5 33.7708" stroke="#121212" stroke-width="1.5" stroke-miterlimit="10" stroke-linecap="round" stroke-linejoin="round"/>
<path d="M24.3647 24.363L22.082 22.0803" stroke="#121212" stroke-width="1.5" stroke-miterlimit="10" stroke-linecap="round" stroke-linejoin="round"/>
<path d="M32.9179 32.917L30.6362 30.6353" stroke="#121212" stroke-width="1.5" stroke-miterlimit="10" stroke-linecap="round" stroke-linejoin="round"/>
<path d="M47.8534 20.8298V20.8309L46.8275 21.8557C46.3849 22.2983 45.7619 22.51 45.142 22.4294L40.1587 21.7794C39.7871 21.7312 39.4132 21.8578 39.1479 22.1232L22.1247 39.1463C21.8594 39.4116 21.7327 39.7855 21.781 40.1572L22.4309 45.1406C22.5115 45.7603 22.2998 46.3833 21.8573 46.8259L15.0811 53.6021C14.5902 54.0941 13.8801 54.2971 13.2023 54.1414L9.00531 53.1724C8.07933 52.9586 7.74955 51.8103 8.42201 51.1389L13.5117 46.0494C13.7082 45.8527 13.7888 45.568 13.7265 45.2974L13.0852 42.5183C13.0164 42.2176 12.7812 41.9823 12.4804 41.9136L9.7014 41.2722C9.4307 41.2099 9.14603 41.2905 8.94945 41.487L3.8598 46.5768C3.18841 47.2491 2.04008 46.9194 1.82631 45.9934L0.857362 41.7965C0.7016 41.1186 0.904626 40.4085 1.39662 39.9176L8.17279 33.1414C8.61537 32.6989 9.23841 32.4873 9.85824 32.5679L14.8415 33.2177C15.2132 33.2662 15.5871 33.1393 15.8524 32.874L16.9169 31.8105V31.8094" stroke="#121212" stroke-width="1.5" stroke-miterlimit="10" stroke-linecap="round" stroke-linejoin="round"/>
<path d="M19.5742 29.1519H19.5753L32.8752 15.851C33.1405 15.5857 33.2673 15.2117 33.2189 14.8402L32.569 9.85687C32.4885 9.23694 32.7001 8.614 33.1427 8.17132L39.9188 1.39514C40.4098 0.903148 41.1198 0.70023 41.7977 0.855992L45.9946 1.82483C46.9206 2.03871 47.2504 3.18694 46.5779 3.85833L41.4883 8.94808C41.2917 9.14456 41.2111 9.42923 41.2734 9.70004L41.9147 12.4789C41.9835 12.7798 42.2187 13.015 42.5195 13.0838L45.2985 13.7251C45.5692 13.7874 45.8539 13.7069 46.0505 13.5103L51.1401 8.42064C51.8115 7.74807 52.9599 8.07786 53.1736 9.00384L54.1426 13.2009C54.2983 13.8786 54.0953 14.5888 53.6033 15.0796L50.5117 18.1723H50.5106" stroke="#121212" stroke-width="1.5" stroke-miterlimit="10" stroke-linecap="round" stroke-linejoin="round"/>
<path d="M32.9191 22.0801L22.082 32.9172" stroke="#121212" stroke-width="1.5" stroke-miterlimit="10" stroke-linecap="round" stroke-linejoin="round"/>
</g>
</svg>
