<svg width="38" height="38" viewBox="0 0 38 38" fill="none" xmlns="http://www.w3.org/2000/svg">
<path d="M29.1707 30.9425L29.6551 31.9155C29.6551 31.9155 30.1394 33.3751 31.4309 32.7264C32.561 32.2399 33.5296 31.7534 34.6597 31.2668C35.9513 30.6182 35.3055 29.3208 35.3055 29.3208L32.0767 20.4013C31.5923 19.2661 31.5923 19.4283 32.2381 17.6444C32.8839 15.8605 31.2695 14.8875 31.2695 14.8875C29.1707 13.5901 20.7758 8.72495 20.7758 8.72495C20.7758 8.72495 19.3228 7.91409 18.3541 8.88712C17.3855 9.86015 16.094 10.9954 16.094 10.9954C16.094 10.9954 15.2868 11.9684 15.9325 13.5901C16.5783 15.374 22.2287 31.7534 22.3902 32.402C22.7131 33.2129 23.5203 33.6994 24.3275 33.2129C25.2961 32.8886 29.1707 30.9425 29.1707 30.9425Z" stroke="#121212" stroke-width="1.5" stroke-miterlimit="10" stroke-linejoin="round"/>
<path d="M20.4529 21.2123L24.0046 31.4291L28.2021 29.1587L25.2961 20.7258C24.9732 19.9149 23.3588 18.2932 21.583 18.9419C19.8071 19.5905 20.4529 21.2123 20.4529 21.2123Z" stroke="#121212" stroke-width="1.5" stroke-miterlimit="10" stroke-linejoin="round"/>
<path d="M24.9736 27.5369L25.2964 25.7531L22.7134 18.7797" stroke="#121212" stroke-width="1.5" stroke-miterlimit="10" stroke-linecap="round" stroke-linejoin="round"/>
<path d="M22.229 11.4819L24.0049 12.6171" stroke="#121212" stroke-width="1.5" stroke-miterlimit="10" stroke-linecap="round" stroke-linejoin="round"/>
<path d="M18.3543 8.72498L13.3496 3.53548L3.34028 1.42725L2.85596 4.022L12.0581 6.13023L16.5785 10.671" stroke="#121212" stroke-width="1.5" stroke-miterlimit="10" stroke-linecap="round" stroke-linejoin="round"/>
<path d="M5.11617 11.3197C5.11617 11.3197 1.56445 14.5631 1.56445 18.1309C1.56445 18.7796 2.37166 21.3744 5.11617 21.3744C7.86067 21.3744 8.66788 18.7796 8.66788 18.1309C8.82932 14.5631 5.11617 11.3197 5.11617 11.3197Z" stroke="#121212" stroke-width="1.5" stroke-miterlimit="10" stroke-linecap="round" stroke-linejoin="round"/>
<path d="M31.4312 33.0508L33.0456 36.2942L36.4358 34.8347L34.8214 31.4291" stroke="#121212" stroke-width="1.5" stroke-miterlimit="10" stroke-linejoin="round"/>
</svg>
