<svg width="40" height="39" viewBox="0 0 40 39" fill="none" xmlns="http://www.w3.org/2000/svg">
<g clip-path="url(#clip0_2381_4415)">
<path d="M21.3483 24.1503L11.1895 35.8378C9.1107 38.2295 5.44021 38.3577 3.19959 36.1169C0.95882 33.8761 1.08707 30.2056 3.47866 28.1266L15.1657 17.9675" stroke="#121212" stroke-width="1.5" stroke-miterlimit="10" stroke-linecap="round" stroke-linejoin="round"/>
<path d="M11.1898 35.8378L6.91406 31.5619" stroke="#121212" stroke-width="1.5" stroke-miterlimit="10" stroke-linecap="round" stroke-linejoin="round"/>
<path d="M4.80403 29.4518L3.479 28.1267" stroke="#121212" stroke-width="1.5" stroke-miterlimit="10" stroke-linecap="round" stroke-linejoin="round"/>
<path d="M31.9877 5.24856L22.7661 14.4705" stroke="#121212" stroke-width="1.5" stroke-miterlimit="10" stroke-linecap="round" stroke-linejoin="round"/>
<path d="M31.5381 9.8595L34.0683 7.32923" stroke="#121212" stroke-width="1.5" stroke-miterlimit="10" stroke-linecap="round" stroke-linejoin="round"/>
<path d="M24.8467 16.5513L29.4616 11.9362" stroke="#121212" stroke-width="1.5" stroke-miterlimit="10" stroke-linecap="round" stroke-linejoin="round"/>
<path d="M24.0541 19.425L25.3034 18.1757C25.6258 17.8533 25.6258 17.3302 25.3034 17.0078L22.3087 14.013C21.9866 13.6909 21.4649 13.6909 21.143 14.013L19.8926 15.2634" stroke="#121212" stroke-width="1.5" stroke-miterlimit="10" stroke-linecap="round" stroke-linejoin="round"/>
<path d="M33.9229 7.20327L32.1138 5.39397C31.5267 4.80687 31.6026 3.8342 32.2737 3.34543L35.8749 0.56376L38.753 3.44195L35.9714 7.04329C35.4827 7.71439 34.51 7.79036 33.9229 7.20327Z" stroke="#121212" stroke-width="1.5" stroke-miterlimit="10" stroke-linecap="round" stroke-linejoin="round"/>
<path d="M26.0018 28.8038L10.6069 13.4085" stroke="#121212" stroke-width="1.5" stroke-miterlimit="10" stroke-linecap="round" stroke-linejoin="round"/>
<path d="M14.3223 9.6929L29.7171 25.0883" stroke="#121212" stroke-width="1.5" stroke-miterlimit="10" stroke-linecap="round" stroke-linejoin="round"/>
<path d="M14.3496 9.66563V5.01736C14.3496 4.57972 14.1757 4.16 13.8663 3.85052L11.0629 1.04703C10.9096 0.893799 10.7277 0.772254 10.5275 0.689329C10.3273 0.606404 10.1128 0.563724 9.89608 0.563727H6.44241C6.07491 0.563727 5.89086 1.0081 6.15074 1.26798L9.34311 4.46042C9.66523 4.78269 9.66523 5.30506 9.34311 5.62726L6.64761 8.32283C6.32541 8.64503 5.80297 8.64503 5.48084 8.32283L2.18228 5.02411C1.9224 4.76424 1.47803 4.94836 1.47803 5.31586V8.98208C1.47802 9.19878 1.5207 9.41336 1.60363 9.61357C1.68655 9.81378 1.8081 9.99569 1.96133 10.1489L4.76474 12.9524C5.07418 13.2619 5.49388 13.4358 5.93152 13.4358H10.5796L14.3496 9.66563Z" stroke="#121212" stroke-width="1.5" stroke-miterlimit="10" stroke-linecap="round" stroke-linejoin="round"/>
<path d="M36.2778 30.4469V32.375C36.2778 32.8127 36.104 33.2324 35.7945 33.5419L34.4621 34.8743C34.1534 35.183 33.735 35.3568 33.2985 35.3576L31.3599 35.3614C31.1427 35.3618 30.9275 35.3193 30.7267 35.2364C30.526 35.1535 30.3435 35.0317 30.1899 34.8781L28.8398 33.5279C28.5303 33.2185 28.3565 32.7987 28.3565 32.3611V30.4469C28.3565 30.0092 28.5303 29.5895 28.8398 29.28L30.1933 27.9265C30.5027 27.617 30.9224 27.4432 31.3601 27.4431H33.2742C33.7119 27.4432 34.1316 27.617 34.441 27.9265L35.7945 29.28C36.104 29.5895 36.2778 30.0092 36.2778 30.4469ZM29.1681 25.4513L26.3646 28.2548C26.2114 28.408 26.0899 28.5899 26.0069 28.7901C25.924 28.9903 25.8813 29.2049 25.8813 29.4216V33.3863C25.8813 33.603 25.924 33.8176 26.0069 34.0178C26.0899 34.218 26.2114 34.3999 26.3646 34.5531L29.1668 37.3553C29.3204 37.5089 29.5028 37.6307 29.7036 37.7136C29.9043 37.7966 30.1195 37.839 30.3367 37.8386L34.3257 37.8308C34.7622 37.83 35.1806 37.6562 35.4893 37.3475L38.2697 34.5671C38.5791 34.2576 38.7529 33.8379 38.7529 33.4003V29.4216C38.7529 28.984 38.5791 28.5643 38.2697 28.2548L35.4662 25.4513C35.313 25.2981 35.1311 25.1765 34.9309 25.0936C34.7307 25.0107 34.5162 24.968 34.2995 24.968H30.3348C30.1181 24.968 29.9036 25.0107 29.7034 25.0936C29.5032 25.1765 29.3213 25.2981 29.1681 25.4513Z" stroke="#121212" stroke-width="1.5" stroke-miterlimit="10" stroke-linecap="round" stroke-linejoin="round"/>
<path d="M14.7007 13.7866L25.2034 24.2897" stroke="#121212" stroke-width="1.5" stroke-miterlimit="10" stroke-linecap="round" stroke-linejoin="round"/>
</g>
<defs>
<clipPath id="clip0_2381_4415">
<rect width="38.4" height="38.4" fill="white" transform="translate(0.915527 0.00109863)"/>
</clipPath>
</defs>
</svg>
