<svg width="60" height="60" viewBox="0 0 60 60" fill="none" xmlns="http://www.w3.org/2000/svg">
<mask id="mask0_238_2376" style="mask-type:luminance" maskUnits="userSpaceOnUse" x="0" y="0" width="60" height="60">
<path d="M59.25 59.25V0.75H0.75V59.25H59.25Z" fill="white" stroke="white" stroke-width="1.5"/>
</mask>
<g mask="url(#mask0_238_2376)">
<path d="M8.33081 38.0099C10.4214 48.0564 19.3429 55.6267 30 55.6267C42.2039 55.6267 52.1321 45.6986 52.1321 33.4947C52.1321 21.2908 42.2039 11.3626 30 11.3626C17.796 11.3626 7.86792 21.2908 7.86792 33.4947C7.86792 33.6423 7.86909 33.7888 7.87261 33.9365M36.8705 34.7713C36.9469 34.3572 36.989 33.931 36.989 33.4947C36.989 33.0584 36.9469 32.6321 36.8705 32.218L46.1603 26.8545C47.0052 28.9028 47.4725 31.145 47.4725 33.4947C47.4725 35.8443 47.0052 38.0866 46.1603 40.1348L36.8705 34.7713ZM32.3296 50.8115V40.0844C33.1473 39.7954 33.8943 39.3584 34.54 38.8059L43.8247 44.1665C41.0759 47.7192 36.9909 50.1877 32.3296 50.8115ZM30 35.8244C28.7134 35.8244 27.6703 34.7813 27.6703 33.4947C27.6703 32.208 28.7134 31.165 30 31.165C31.2867 31.165 32.3296 32.208 32.3296 33.4947C32.3296 34.7813 31.2867 35.8244 30 35.8244ZM27.6703 50.8115C23.009 50.1877 18.9241 47.7192 16.1752 44.1665L25.4599 38.8059C26.1057 39.3584 26.8528 39.7954 27.6703 40.0844V50.8115ZM13.8396 40.1348C12.9948 38.0866 12.5275 35.8443 12.5275 33.4947C12.5275 31.145 12.9948 28.9028 13.8396 26.8545L23.1294 32.218C23.053 32.6321 23.011 33.0584 23.011 33.4947C23.011 33.931 23.053 34.3572 23.1294 34.7713L13.8396 40.1348ZM27.6703 16.1779V26.9049C26.8528 27.194 26.1057 27.6309 25.4599 28.1834L16.1752 22.8229C18.9241 19.2701 23.009 16.8017 27.6703 16.1779ZM32.3296 16.1779C36.9909 16.8017 41.0759 19.2701 43.8247 22.8229L34.54 28.1834C33.8943 27.6309 33.1473 27.194 32.3296 26.9049V16.1779Z" stroke="#121212" stroke-width="1.5" stroke-miterlimit="10" stroke-linecap="round" stroke-linejoin="round"/>
<path d="M41.4305 6.71265C38.127 5.29468 34.507 4.47202 30.7066 4.38179C23.6824 4.21538 17.2078 6.53804 12.0973 10.5271C11.5945 10.9197 10.8973 10.9408 10.377 10.574C9.91406 10.2494 9.3293 10.0853 8.70352 10.1662C7.65235 10.3009 6.80625 11.147 6.67149 12.1982C6.59063 12.824 6.75469 13.4087 7.08047 13.8716C7.4461 14.3919 7.425 15.0892 7.0336 15.5896C3.17813 20.5291 0.878906 26.7435 0.878906 33.4947C0.878906 38.2466 2.01797 42.7314 4.03711 46.6935C4.20586 47.0251 4.04297 47.4283 3.69141 47.5501L3.65742 47.5619C1.99453 48.1373 0.878906 49.7041 0.878906 51.4642V51.497C0.878906 53.7775 2.72813 55.6267 5.0086 55.6267H47.4727" stroke="#121212" stroke-width="1.5" stroke-miterlimit="10" stroke-linecap="round" stroke-linejoin="round"/>
<path d="M45.0762 8.59234C53.5547 13.7509 59.1948 23.1154 59.1199 33.7044C59.0871 38.3884 57.9469 42.8099 55.95 46.7193C55.9042 46.8095 55.882 46.9044 55.882 46.9982C55.882 47.2525 56.0413 47.4927 56.3003 47.5806C57.143 47.8619 57.8483 48.3974 58.3417 49.0841C58.8363 49.7709 59.1199 50.6087 59.1199 51.497C59.1199 53.7775 57.2718 55.6267 54.9902 55.6267H51.5741" stroke="#121212" stroke-width="1.5" stroke-miterlimit="10" stroke-linecap="round" stroke-linejoin="round"/>
</g>
</svg>
