<svg width="25" height="25" viewBox="0 0 25 25" fill="none" xmlns="http://www.w3.org/2000/svg">
<path d="M10.5 14.11L21.5 3.10999L10.5 14.11Z" fill="white"/>
<path d="M10.5 14.11L21.5 3.10999" stroke="white" stroke-width="1.5" stroke-linecap="round" stroke-linejoin="round"/>
<path d="M21.5001 3.10999L15.0001 21.11C14.9562 21.2057 14.8858 21.2869 14.7971 21.3437C14.7085 21.4006 14.6054 21.4309 14.5001 21.4309C14.3948 21.4309 14.2917 21.4006 14.203 21.3437C14.1144 21.2869 14.0439 21.2057 14.0001 21.11L10.5001 14.11L3.50007 10.61C3.40433 10.5661 3.3232 10.4957 3.26632 10.407C3.20944 10.3184 3.1792 10.2153 3.1792 10.11C3.1792 10.0047 3.20944 9.90157 3.26632 9.81293C3.3232 9.7243 3.40433 9.65386 3.50007 9.60999L21.5001 3.10999Z" stroke="white" stroke-width="1.5" stroke-linecap="round" stroke-linejoin="round"/>
</svg>
