<svg width="37" height="33" viewBox="0 0 37 33" fill="none" xmlns="http://www.w3.org/2000/svg">
<path d="M16.2138 11.6488C13.3024 11.6488 10.9732 13.9052 10.8276 16.7438C10.8276 16.8166 10.8276 16.8894 10.8276 16.9622C10.8276 19.8737 13.2296 22.2756 16.141 22.2756C19.0525 22.2756 21.4544 19.8737 21.4544 16.9622C21.4544 14.0508 19.1253 11.7216 16.2138 11.6488ZM16.141 18.7819C15.1948 18.7819 14.3942 17.9812 14.3942 17.035V16.9622C14.3942 16.016 15.1948 15.2153 16.141 15.2153C16.2138 15.2153 16.2138 15.2153 16.2866 15.2153C17.2328 15.2881 17.8879 16.016 17.8879 16.9622C17.8879 17.9812 17.0873 18.7819 16.141 18.7819Z" stroke="#121212" stroke-width="1.5" stroke-miterlimit="10"/>
<path d="M16.2137 8.5918H16.1409C11.6282 8.5918 7.91608 12.1583 7.77051 16.5983C7.77051 16.7439 7.77051 16.8167 7.77051 16.9622C7.77051 21.6205 11.5554 25.3327 16.1409 25.3327C20.7993 25.3327 24.5114 21.5478 24.5114 16.9622C24.5114 12.3767 20.7993 8.66458 16.2137 8.5918Z" stroke="#121212" stroke-width="1.5" stroke-miterlimit="10"/>
<path d="M27.4229 16.3799C26.7678 16.3799 26.2583 15.8703 26.1855 15.2153C26.1855 14.5602 26.6951 13.9779 27.4229 13.9779H27.4957C28.1508 14.0507 28.5875 14.5602 28.5875 15.2153C28.5875 15.8703 28.078 16.3799 27.4229 16.3799Z" stroke="#121212" stroke-width="1.5" stroke-miterlimit="10"/>
<path d="M16.1409 2.18652C8.13439 2.18652 1.65641 8.44615 1.36527 16.3799C1.29248 16.5982 1.29248 16.8166 1.29248 17.0349C1.29248 25.2598 7.91604 31.8833 16.1409 31.8833C24.3657 31.8833 30.9893 25.2598 30.9893 17.0349C30.9893 15.1425 30.6254 13.3228 29.9703 11.7215" stroke="#121212" stroke-width="1.5" stroke-miterlimit="10"/>
<path d="M22.4004 27.7345C23.9289 26.8611 25.2391 25.6237 26.2581 24.168" stroke="#121212" stroke-width="1.5" stroke-miterlimit="10" stroke-linecap="round"/>
<path d="M19.5618 4.51575H16.1408C9.44446 4.51575 3.98548 9.75636 3.69434 16.4527" stroke="#121212" stroke-width="1.5" stroke-miterlimit="10" stroke-linecap="round"/>
<path d="M16.2139 11.6488C16.505 12.2311 16.7234 12.8134 16.7234 13.4685C16.7234 14.0508 16.5778 14.633 16.2867 15.2153" stroke="#121212" stroke-width="1.5" stroke-miterlimit="10"/>
<path d="M16.2139 11.6488C16.505 12.2311 16.7234 12.8134 16.7234 13.4685C16.7234 14.0508 16.5778 14.633 16.2867 15.2153" stroke="#121212" stroke-width="1.5" stroke-miterlimit="10"/>
<path d="M19.0522 21.4021C18.4699 21.1109 18.0332 20.6742 17.5964 20.0919C17.2325 19.5824 17.0869 19.0001 17.0142 18.4178" stroke="#121212" stroke-width="1.5" stroke-miterlimit="10"/>
<path d="M12.8657 21.1839C12.9385 20.5288 13.2297 19.9465 13.5936 19.437C13.9575 18.9275 14.467 18.5636 14.9765 18.3452" stroke="#121212" stroke-width="1.5" stroke-miterlimit="10"/>
<path d="M11.0459 15.2152C11.701 15.1425 12.3561 15.1425 12.9383 15.4336C13.5206 15.652 14.0301 16.0159 14.3941 16.3798" stroke="#121212" stroke-width="1.5" stroke-miterlimit="10"/>
<path d="M21.2359 15.4337C20.7992 15.8704 20.2896 16.2344 19.6346 16.4527C19.0523 16.6711 18.47 16.6711 17.8877 16.5983" stroke="#121212" stroke-width="1.5" stroke-miterlimit="10"/>
<path d="M16.1411 2.18652H33.3915" stroke="#121212" stroke-width="1.5" stroke-miterlimit="10"/>
<path d="M22.6187 11.6488H33.391" stroke="#121212" stroke-width="1.5" stroke-miterlimit="10"/>
<path d="M34.5557 12.8134C33.9006 12.8134 33.3911 12.3039 33.3911 11.6488V2.18655C33.3911 1.53148 33.9006 1.02197 34.5557 1.02197C35.2108 1.02197 35.7203 1.53148 35.7203 2.18655V11.576C35.7203 12.3039 35.2108 12.8134 34.5557 12.8134Z" stroke="#121212" stroke-width="1.5" stroke-miterlimit="10"/>
</svg>
