<svg width="64" height="48" viewBox="0 0 64 48" fill="none" xmlns="http://www.w3.org/2000/svg">
<path d="M33.0632 40.75C25.759 40.75 8.34209 40.75 6.56326 40.75C4.06326 40.75 4.06326 37.75 4.06326 37.75C4.06326 37.75 4.06318 32.75 3.06318 27.25C2.71477 23.4164 3.62481 23.9916 7.06324 17.75C8.55781 15.037 10.4665 10.8095 13.0633 4.75C14.5632 1.25 21.0633 1.25 21.0633 1.25C21.0633 1.25 27.0632 0.75 32.0633 0.75C37.0633 0.75 39.5632 0.750001 44.0633 1.25C48.5633 1.75 49.0632 3.25 49.5633 4.25C51.877 10.0342 54.1795 14.3195 56.0632 17.75C58.2504 21.733 60.5634 22.75 59.5633 27.25C58.5632 31.75 59.0633 37.75 59.0633 37.75C59.0633 37.75 59.0633 40.75 55.5633 40.75C53.1001 40.75 43.2081 40.75 37.5632 40.75" stroke="#121212" stroke-width="1.5" stroke-linecap="round"/>
<path d="M21.0632 25.25H42.0632" stroke="#121212" stroke-width="1.5" stroke-linecap="round"/>
<path d="M23.5632 29.75L34.5632 29.75" stroke="#121212" stroke-width="1.5" stroke-linecap="round"/>
<path d="M37.5632 29.75L39.5632 29.75" stroke="#121212" stroke-width="1.5" stroke-linecap="round"/>
<path d="M10.5632 40.75C13.5632 37.25 14.5632 35.25 18.5632 35.25C22.5632 35.25 42.5632 35.25 45.5632 35.25C48.5632 35.25 50.0632 37.75 52.5632 40.75" stroke="#121212" stroke-width="1.5" stroke-linecap="round"/>
<path d="M1.06323 13.75C3.89136 16.5781 8.06323 15.25 8.06323 15.25C8.06323 15.25 8.06323 11.25 4.06323 11.25C1.56323 11.25 0.0632311 12.75 1.06323 13.75Z" stroke="#121212" stroke-width="1.5" stroke-linecap="round"/>
<path d="M11.5632 20.25C8.06333 20.25 8.06323 22.75 8.06323 23.75C8.06323 24.0702 8.37807 25.1469 9.56323 25.75C12.0789 27.0302 17.5632 28.4298 17.5632 27.75C17.5632 25.75 15.0631 20.25 11.5632 20.25Z" stroke="#121212" stroke-width="1.5" stroke-linecap="round"/>
<path d="M51.5632 20.25C55.0631 20.25 55.0632 22.75 55.0632 23.75C55.0632 24.0702 54.7484 25.1469 53.5632 25.75C51.0476 27.0302 45.5632 28.4298 45.5632 27.75C45.5632 25.75 48.0633 20.25 51.5632 20.25Z" stroke="#121212" stroke-width="1.5" stroke-linecap="round"/>
<path d="M62.5632 13.75C59.7351 16.5781 55.5632 15.25 55.5632 15.25C55.5632 15.25 55.5632 11.25 59.5632 11.25C62.0632 11.25 63.5632 12.75 62.5632 13.75Z" stroke="#121212" stroke-width="1.5" stroke-linecap="round"/>
<path d="M4.56323 39.75V44.75C4.56323 45.8546 5.45866 46.75 6.56323 46.75H9.06323H11.5632C12.6678 46.75 13.5632 45.8546 13.5632 44.75V40.75" stroke="#121212" stroke-width="1.5"/>
<path d="M58.5632 39.25V44.75C58.5632 45.8546 57.6678 46.75 56.5632 46.75H54.0632H51.5632C50.4587 46.75 49.5632 45.8546 49.5632 44.75V40.75" stroke="#121212" stroke-width="1.5"/>
<path d="M9.56323 13.75H42.5632" stroke="#121212" stroke-width="1.5" stroke-linecap="round"/>
<path d="M47.5632 13.75L53.5632 13.75" stroke="#121212" stroke-width="1.5" stroke-linecap="round"/>
</svg>
