<svg width="39" height="40" viewBox="0 0 39 40" fill="none" xmlns="http://www.w3.org/2000/svg">
<mask id="mask0_2381_3726" style="mask-type:luminance" maskUnits="userSpaceOnUse" x="0" y="0" width="39" height="40">
<path d="M37.6504 38.4456V1.54517H0.75V38.4456H37.6504Z" fill="white" stroke="white" stroke-width="1.5"/>
</mask>
<g mask="url(#mask0_2381_3726)">
<path d="M5.33189 25.1219C6.66989 31.5516 12.3796 36.3966 19.2001 36.3966C27.0106 36.3966 33.3647 30.0426 33.3647 22.2321C33.3647 14.4216 27.0106 8.06761 19.2001 8.06761C11.3896 8.06761 5.03564 14.4216 5.03564 22.2321C5.03564 22.3266 5.03639 22.4204 5.03864 22.5149M23.5973 23.0492C23.6462 22.7841 23.6731 22.5113 23.6731 22.2321C23.6731 21.9529 23.6462 21.68 23.5973 21.4151L29.5428 17.9824C30.0835 19.2933 30.3826 20.7283 30.3826 22.2321C30.3826 23.7359 30.0835 25.1709 29.5428 26.4818L23.5973 23.0492ZM20.6911 33.3149V26.4495C21.2144 26.2646 21.6925 25.9849 22.1058 25.6313L28.048 29.0621C26.2888 31.3358 23.6743 32.9156 20.6911 33.3149ZM19.2001 23.7231C18.3767 23.7231 17.7091 23.0555 17.7091 22.2321C17.7091 21.4086 18.3767 20.7411 19.2001 20.7411C20.0236 20.7411 20.6911 21.4086 20.6911 22.2321C20.6911 23.0555 20.0236 23.7231 19.2001 23.7231ZM17.7091 33.3149C14.7259 32.9156 12.1116 31.3358 10.3523 29.0621L16.2945 25.6313C16.7078 25.9849 17.1859 26.2646 17.7091 26.4495V33.3149ZM8.85749 26.4818C8.31682 25.1709 8.01779 23.7359 8.01779 22.2321C8.01779 20.7283 8.31682 19.2933 8.85749 17.9824L14.803 21.4151C14.7541 21.68 14.7272 21.9529 14.7272 22.2321C14.7272 22.5113 14.7541 22.7841 14.803 23.0492L8.85749 26.4818ZM17.7091 11.1494V18.0146C17.1859 18.1997 16.7078 18.4793 16.2945 18.8329L10.3523 15.4022C12.1116 13.1284 14.7259 11.5486 17.7091 11.1494ZM20.6911 11.1494C23.6743 11.5486 26.2888 13.1284 28.048 15.4022L22.1058 18.8329C21.6925 18.4793 21.2144 18.1997 20.6911 18.0146V11.1494Z" stroke="#121212" stroke-width="1.5" stroke-miterlimit="10" stroke-linecap="round" stroke-linejoin="round"/>
<path d="M26.5155 5.09161C24.4012 4.18411 22.0845 3.65761 19.6522 3.59986C15.1567 3.49336 11.013 4.97985 7.74225 7.53285C7.4205 7.7841 6.97425 7.79761 6.64125 7.56286C6.345 7.35511 5.97075 7.25011 5.57025 7.30186C4.8975 7.38811 4.356 7.92961 4.26975 8.60236C4.218 9.00286 4.323 9.37711 4.5315 9.67336C4.7655 10.0064 4.752 10.4526 4.5015 10.7729C2.034 13.9341 0.5625 17.9114 0.5625 22.2321C0.5625 25.2734 1.2915 28.1436 2.58375 30.6794C2.69175 30.8916 2.5875 31.1496 2.3625 31.2276L2.34075 31.2351C1.2765 31.6034 0.5625 32.6061 0.5625 33.7326V33.7536C0.5625 35.2131 1.746 36.3966 3.2055 36.3966H30.3825" stroke="#121212" stroke-width="1.5" stroke-miterlimit="10" stroke-linecap="round" stroke-linejoin="round"/>
<path d="M28.8486 6.29461C34.2749 9.59611 37.8846 15.5894 37.8366 22.3664C37.8156 25.3641 37.0859 28.1939 35.8079 30.6959C35.7786 30.7536 35.7644 30.8144 35.7644 30.8744C35.7644 31.0371 35.8663 31.1909 36.0321 31.2471C36.5714 31.4271 37.0228 31.7699 37.3386 32.2094C37.6551 32.6489 37.8366 33.1851 37.8366 33.7536C37.8366 35.2131 36.6538 36.3966 35.1936 36.3966H33.0073" stroke="#121212" stroke-width="1.5" stroke-miterlimit="10" stroke-linecap="round" stroke-linejoin="round"/>
</g>
</svg>
