<svg width="29" height="37" viewBox="0 0 29 37" fill="none" xmlns="http://www.w3.org/2000/svg">
<path d="M24.1717 18.2152C24.1717 24.4022 22.5488 29.3721 20.6217 29.3721C19.3032 29.3721 18.1875 27.2422 17.5789 23.9965C17.2746 22.2722 17.0718 20.3451 17.0718 18.1137C17.0718 15.8824 17.2746 13.9552 17.5789 12.3324C18.1875 9.08675 19.3032 6.95679 20.6217 6.95679C22.5488 7.05821 24.1717 12.0281 24.1717 18.2152Z" stroke="#121212" stroke-width="1.5" stroke-miterlimit="10"/>
<path d="M18.9989 18.2152C18.9989 20.8523 18.3903 23.0837 17.5789 24.0979C17.2746 22.3737 17.0718 20.4466 17.0718 18.2152C17.0718 15.9838 17.2746 14.0567 17.5789 12.4338C18.3903 13.3467 18.9989 15.5781 18.9989 18.2152Z" stroke="#121212" stroke-width="1.5" stroke-miterlimit="10"/>
<path d="M19.709 35.8634C24.3583 35.8634 28.1274 28.0982 28.1274 18.5194C28.1274 8.94059 24.3583 1.17542 19.709 1.17542C15.0596 1.17542 11.2905 8.94059 11.2905 18.5194C11.2905 28.0982 15.0596 35.8634 19.709 35.8634Z" stroke="#121212" stroke-width="1.5" stroke-miterlimit="10"/>
<path d="M8.45069 30.6907C7.63927 29.0678 7.03071 27.1407 6.625 25.0107" stroke="#121212" stroke-width="1.5" stroke-miterlimit="10"/>
<path d="M6.3208 14.1581C6.52365 11.8253 7.03079 9.79675 7.74078 7.97107" stroke="#121212" stroke-width="1.5" stroke-miterlimit="10"/>
<path d="M4.49512 4.72536C5.91509 2.49396 7.63935 1.17542 9.56646 1.17542H19.7092" stroke="#121212" stroke-width="1.5" stroke-miterlimit="10" stroke-linecap="round"/>
<path d="M1.24951 16.3894C1.45237 12.9409 2.16235 9.79666 3.17662 7.26099" stroke="#121212" stroke-width="1.5" stroke-miterlimit="10" stroke-linecap="round"/>
<path d="M1.45223 23.0836C1.24938 21.6636 1.14795 20.1422 1.14795 18.5194" stroke="#121212" stroke-width="1.5" stroke-miterlimit="10" stroke-linecap="round"/>
<path d="M5.20513 33.2263C3.78516 31.4006 2.66946 28.7635 1.95947 25.7207" stroke="#121212" stroke-width="1.5" stroke-miterlimit="10" stroke-linecap="round"/>
<path d="M19.7091 35.7621H9.56638C8.55211 35.7621 7.53784 35.3564 6.625 34.6464" stroke="#121212" stroke-width="1.5" stroke-miterlimit="10" stroke-linecap="round"/>
<path d="M13.7251 1.17542L15.6522 3.30538" stroke="#121212" stroke-width="1.5" stroke-miterlimit="10"/>
<path d="M13.725 6.34817L7.53792 8.17386L4.49512 4.72534" stroke="#121212" stroke-width="1.5" stroke-miterlimit="10" stroke-linecap="round"/>
<path d="M11.1893 17.2008L6.42228 13.7523L1.24951 16.3894" stroke="#121212" stroke-width="1.5" stroke-miterlimit="10" stroke-linecap="round"/>
<path d="M1.65527 22.9823L6.32091 25.1123L11.2908 21.968" stroke="#121212" stroke-width="1.5" stroke-miterlimit="10" stroke-linecap="round"/>
<path d="M5.40771 33.1249L8.3491 30.4878L14.3333 31.8063" stroke="#121212" stroke-width="1.5" stroke-miterlimit="10" stroke-linecap="round"/>
</svg>
