<svg width="24" height="24" viewBox="0 0 24 24" fill="none" xmlns="http://www.w3.org/2000/svg">
<path fill-rule="evenodd" clip-rule="evenodd" d="M12 2.25C12.4142 2.25 12.75 2.58579 12.75 3V6C12.75 6.41421 12.4142 6.75 12 6.75C11.5858 6.75 11.25 6.41421 11.25 6V3C11.25 2.58579 11.5858 2.25 12 2.25Z" fill="black"/>
<path fill-rule="evenodd" clip-rule="evenodd" d="M17.25 12C17.25 11.5858 17.5858 11.25 18 11.25H21C21.4142 11.25 21.75 11.5858 21.75 12C21.75 12.4142 21.4142 12.75 21 12.75H18C17.5858 12.75 17.25 12.4142 17.25 12Z" fill="black"/>
<path fill-rule="evenodd" clip-rule="evenodd" d="M15.7166 15.7166C16.0095 15.4237 16.4844 15.4237 16.7773 15.7166L18.896 17.8354C19.1889 18.1283 19.1889 18.6031 18.896 18.896C18.6031 19.1889 18.1283 19.1889 17.8354 18.896L15.7166 16.7773C15.4237 16.4844 15.4237 16.0095 15.7166 15.7166Z" fill="black"/>
<path fill-rule="evenodd" clip-rule="evenodd" d="M12 17.25C12.4142 17.25 12.75 17.5858 12.75 18V21C12.75 21.4142 12.4142 21.75 12 21.75C11.5858 21.75 11.25 21.4142 11.25 21V18C11.25 17.5858 11.5858 17.25 12 17.25Z" fill="black"/>
<path fill-rule="evenodd" clip-rule="evenodd" d="M8.2836 15.7166C8.57649 16.0095 8.57649 16.4844 8.2836 16.7773L6.16485 18.896C5.87196 19.1889 5.39708 19.1889 5.10419 18.896C4.8113 18.6031 4.8113 18.1283 5.10419 17.8354L7.22294 15.7166C7.51583 15.4237 7.99071 15.4237 8.2836 15.7166Z" fill="black"/>
<path fill-rule="evenodd" clip-rule="evenodd" d="M2.25 12C2.25 11.5858 2.58579 11.25 3 11.25H6C6.41421 11.25 6.75 11.5858 6.75 12C6.75 12.4142 6.41421 12.75 6 12.75H3C2.58579 12.75 2.25 12.4142 2.25 12Z" fill="black"/>
<path fill-rule="evenodd" clip-rule="evenodd" d="M5.10419 5.10401C5.39708 4.81112 5.87196 4.81112 6.16485 5.10401L8.2836 7.22276C8.57649 7.51565 8.57649 7.99052 8.2836 8.28342C7.99071 8.57631 7.51583 8.57631 7.22294 8.28342L5.10419 6.16467C4.8113 5.87178 4.8113 5.3969 5.10419 5.10401Z" fill="black"/>
</svg>
