<svg width="24" height="24" viewBox="0 0 24 24" fill="none" xmlns="http://www.w3.org/2000/svg">
<path fill-rule="evenodd" clip-rule="evenodd" d="M9.72761 3.56809C9.82807 3.96994 9.58375 4.37714 9.1819 4.4776L3.75 5.83558V17.7894L8.8181 16.5224C9.21994 16.4219 9.62715 16.6662 9.72761 17.0681C9.82807 17.4699 9.58375 17.8771 9.1819 17.9776L3.1819 19.4776C2.95785 19.5336 2.72048 19.4833 2.53844 19.3411C2.3564 19.199 2.25 18.9809 2.25 18.75V5.24999C2.25 4.90584 2.48422 4.60586 2.8181 4.52239L8.8181 3.02239C9.21994 2.92193 9.62715 3.16625 9.72761 3.56809Z" fill="#FF0000"/>
<path fill-rule="evenodd" clip-rule="evenodd" d="M8.6057 3.11201C8.82681 2.97536 9.10292 2.96293 9.33541 3.07918L15.3354 6.07918C15.5895 6.20622 15.75 6.46592 15.75 6.75V20.25C15.75 20.5099 15.6154 20.7513 15.3943 20.888C15.1732 21.0246 14.8971 21.0371 14.6646 20.9208L8.66459 17.9208C8.4105 17.7938 8.25 17.5341 8.25 17.25V3.75C8.25 3.49007 8.38459 3.24867 8.6057 3.11201ZM9.75 4.96353V16.7865L14.25 19.0365V7.21353L9.75 4.96353Z" fill="#FF0000"/>
<path fill-rule="evenodd" clip-rule="evenodd" d="M21.4617 4.65885C21.6438 4.80098 21.7502 5.01906 21.7502 5.25001V18.75C21.7502 19.0942 21.516 19.3941 21.1821 19.4776L15.1821 20.9776C14.7802 21.0781 14.373 20.8338 14.2726 20.4319C14.1721 20.0301 14.4164 19.6229 14.8183 19.5224L20.2502 18.1644V6.21059L15.1821 7.47761C14.7802 7.57808 14.373 7.33375 14.2726 6.93191C14.1721 6.53006 14.4164 6.12286 14.8183 6.0224L20.8183 4.5224C21.0423 4.46639 21.2797 4.51672 21.4617 4.65885Z" fill="#FF0000"/>
</svg>
