<svg width="30" height="30" viewBox="0 0 30 30" fill="none" xmlns="http://www.w3.org/2000/svg">
<rect x="0.600098" y="0.5" width="29" height="29" rx="14.5" fill="#FF0000"/>
<path fill-rule="evenodd" clip-rule="evenodd" d="M15.8082 17.7828L12.3068 21.8397C12.2982 21.8497 12.2892 21.8593 12.2799 21.8686C11.8757 22.2729 11.3274 22.5 10.7557 22.5C10.184 22.5 9.63571 22.2729 9.23146 21.8686C8.8272 21.4644 8.6001 20.9161 8.6001 20.3444C8.6001 19.7727 8.8272 19.2244 9.23146 18.8202C9.24076 18.8109 9.25041 18.8019 9.26037 18.7933L13.3173 15.2919C12.9715 14.5093 12.8384 13.6462 12.9356 12.7908C13.0495 11.7883 13.4741 10.8465 14.1499 10.0973C14.8257 9.34803 15.7189 8.82889 16.7045 8.61252C17.69 8.39616 18.7185 8.4934 19.646 8.89063C19.8103 8.96099 19.9289 9.10832 19.9627 9.28383C19.9964 9.45935 19.9408 9.64015 19.8142 9.76638L17.1932 12.3811L17.449 13.6511L18.719 13.9069L21.3337 11.2859C21.4599 11.1593 21.6407 11.1037 21.8163 11.1374C21.9918 11.1712 22.1391 11.2898 22.2095 11.4541C22.6067 12.3816 22.7039 13.4101 22.4876 14.3956C22.2712 15.3812 21.7521 16.2743 21.0028 16.9502C20.2536 17.626 19.3118 18.0506 18.3093 18.1645C17.4539 18.2617 16.5908 18.1286 15.8082 17.7828Z" fill="white"/>
</svg>
