<svg width="24" height="24" viewBox="0 0 24 24" fill="none" xmlns="http://www.w3.org/2000/svg">
<path fill-rule="evenodd" clip-rule="evenodd" d="M11.9998 3C10.3429 3 8.99976 4.34315 8.99976 6V12C8.99976 13.6569 10.3429 15 11.9998 15C13.6566 15 14.9998 13.6569 14.9998 12V6C14.9998 4.34315 13.6566 3 11.9998 3ZM7.49976 6C7.49976 3.51472 9.51447 1.5 11.9998 1.5C14.485 1.5 16.4998 3.51472 16.4998 6V12C16.4998 14.4853 14.485 16.5 11.9998 16.5C9.51447 16.5 7.49976 14.4853 7.49976 12V6Z" fill="#8693A3"/>
<path fill-rule="evenodd" clip-rule="evenodd" d="M11.9998 18C12.414 18 12.7498 18.3358 12.7498 18.75V21.75C12.7498 22.1642 12.414 22.5 11.9998 22.5C11.5855 22.5 11.2498 22.1642 11.2498 21.75V18.75C11.2498 18.3358 11.5855 18 11.9998 18Z" fill="#8693A3"/>
<path fill-rule="evenodd" clip-rule="evenodd" d="M5.19901 12.0052C5.61035 11.9565 5.98328 12.2505 6.03198 12.6618C6.20497 14.123 6.90807 15.47 8.008 16.4474C9.10793 17.4248 10.5282 17.9647 11.9997 17.9647C13.4711 17.9647 14.8914 17.4248 15.9914 16.4474C17.0913 15.47 17.7944 14.123 17.9674 12.6618C18.0161 12.2505 18.389 11.9565 18.8004 12.0052C19.2117 12.0539 19.5057 12.4268 19.457 12.8382C19.2408 14.6641 18.3622 16.3473 16.9877 17.5687C15.6132 18.7901 13.8384 19.4647 11.9997 19.4647C10.161 19.4647 8.38612 18.7901 7.01164 17.5687C5.63716 16.3473 4.75855 14.6641 4.54238 12.8382C4.49369 12.4268 4.78767 12.0539 5.19901 12.0052Z" fill="#8693A3"/>
</svg>
