<svg width="24" height="24" viewBox="0 0 24 24" fill="none" xmlns="http://www.w3.org/2000/svg">
<path fill-rule="evenodd" clip-rule="evenodd" d="M0.75 11.25C0.75 10.8358 1.08579 10.5 1.5 10.5H22.5C22.9142 10.5 23.25 10.8358 23.25 11.25C23.25 11.6642 22.9142 12 22.5 12H1.5C1.08579 12 0.75 11.6642 0.75 11.25Z" fill="black"/>
<path fill-rule="evenodd" clip-rule="evenodd" d="M17.25 16.5C17.6642 16.5 18 16.8358 18 17.25V19.5H20.25V17.25C20.25 16.8358 20.5858 16.5 21 16.5C21.4142 16.5 21.75 16.8358 21.75 17.25V19.5C21.75 19.8978 21.592 20.2794 21.3107 20.5607C21.0294 20.842 20.6478 21 20.25 21H18C17.6022 21 17.2206 20.842 16.9393 20.5607C16.658 20.2794 16.5 19.8978 16.5 19.5V17.25C16.5 16.8358 16.8358 16.5 17.25 16.5Z" fill="black"/>
<path fill-rule="evenodd" clip-rule="evenodd" d="M3 16.5C3.41421 16.5 3.75 16.8358 3.75 17.25V19.5H6V17.25C6 16.8358 6.33579 16.5 6.75 16.5C7.16421 16.5 7.5 16.8358 7.5 17.25V19.5C7.5 19.8978 7.34196 20.2794 7.06066 20.5607C6.77935 20.842 6.39782 21 6 21H3.75C3.35218 21 2.97065 20.842 2.68934 20.5607C2.40804 20.2794 2.25 19.8978 2.25 19.5V17.25C2.25 16.8358 2.58579 16.5 3 16.5Z" fill="black"/>
<path fill-rule="evenodd" clip-rule="evenodd" d="M5.25 14.25C5.25 13.8358 5.58579 13.5 6 13.5H7.5C7.91421 13.5 8.25 13.8358 8.25 14.25C8.25 14.6642 7.91421 15 7.5 15H6C5.58579 15 5.25 14.6642 5.25 14.25Z" fill="black"/>
<path fill-rule="evenodd" clip-rule="evenodd" d="M15.75 14.25C15.75 13.8358 16.0858 13.5 16.5 13.5H18C18.4142 13.5 18.75 13.8358 18.75 14.25C18.75 14.6642 18.4142 15 18 15H16.5C16.0858 15 15.75 14.6642 15.75 14.25Z" fill="black"/>
<path fill-rule="evenodd" clip-rule="evenodd" d="M6.4875 3.75H17.5155C17.8064 3.75117 18.0906 3.83687 18.3336 3.99666C18.5758 4.1559 18.7666 4.38188 18.8831 4.64725C18.8835 4.64817 18.8839 4.64909 18.8843 4.65001L21.6852 10.9451C21.7279 11.0411 21.75 11.145 21.75 11.25V17.25C21.75 17.6642 21.4142 18 21 18H3C2.58579 18 2.25 17.6642 2.25 17.25V11.25C2.25 11.145 2.27207 11.0411 2.31477 10.9451L5.117 4.64713C5.23345 4.38181 5.42426 4.15588 5.6664 3.99666C5.90942 3.83687 6.19365 3.75117 6.48449 3.75001L6.4875 3.75ZM6.49051 5.25L6.48838 5.2549L3.75 11.4093V16.5H20.25V11.4093L17.5095 5.25L6.49051 5.25Z" fill="black"/>
</svg>
