<svg width="24" height="24" viewBox="0 0 24 24" fill="none" xmlns="http://www.w3.org/2000/svg">
<path fill-rule="evenodd" clip-rule="evenodd" d="M8 2C6.34315 2 5 3.34315 5 5V18C5 19.6569 6.34315 21 8 21H16C17.6569 21 19 19.6569 19 18V5C19 3.34315 17.6569 2 16 2H8ZM7 5C7 4.44772 7.44772 4 8 4H16C16.5523 4 17 4.44772 17 5V18C17 18.5523 16.5523 19 16 19H8C7.44772 19 7 18.5523 7 18V5ZM10 16C9.44772 16 9 16.4477 9 17C9 17.5523 9.44772 18 10 18H14C14.5523 18 15 17.5523 15 17C15 16.4477 14.5523 16 14 16H10Z" fill="#8693A3"/>
</svg>
