<svg width="24" height="24" viewBox="0 0 24 24" fill="none" xmlns="http://www.w3.org/2000/svg">
<path d="M14.769 4.44656C17.096 5.07102 18.929 6.90403 19.5534 9.23098C19.6436 9.56622 19.9469 9.78783 20.2784 9.78783C20.3432 9.78783 20.408 9.77938 20.4737 9.76154C20.8747 9.65355 21.1122 9.24225 21.0043 8.84128C20.2418 5.9988 18.0012 3.75824 15.1587 2.99574C14.7578 2.88775 14.3464 3.12627 14.2385 3.5263C14.1305 3.92633 14.369 4.33951 14.769 4.44656Z" fill="#8693A3"/>
<path d="M13.9915 7.34914C15.2874 7.69377 16.3072 8.71263 16.6509 10.0085C16.7401 10.3447 17.0443 10.5672 17.3767 10.5672C17.4406 10.5672 17.5054 10.5588 17.5702 10.5419C17.9712 10.4358 18.2097 10.0235 18.1036 9.62256C17.6209 7.80645 16.1935 6.37911 14.3774 5.89644C13.9765 5.79033 13.5652 6.02885 13.4581 6.42982C13.352 6.83079 13.5905 7.24209 13.9915 7.34914Z" fill="#8693A3"/>
<path d="M20.8381 14.8436L16.448 12.958C15.9757 12.7515 15.4386 12.8012 15.016 13.0876L12.6693 14.6596C11.2307 13.9675 10.056 12.7956 9.3592 11.3598L10.9293 8.97181C11.1997 8.54924 11.242 8.02337 11.0429 7.567L9.15918 3.16946C8.90094 2.5497 8.25582 2.17596 7.59004 2.26235C4.97387 2.59759 3 4.83908 3 7.47779C3 14.9338 9.06621 21 16.5222 21C19.16 21 21.4015 19.0261 21.7367 16.41C21.8222 15.7442 21.4494 15.0991 20.8371 14.8446L20.8381 14.8436ZM16.5222 19.4966C9.89445 19.4966 4.50247 14.1046 4.50247 7.47685C4.50247 5.59501 5.90915 3.99488 7.77409 3.75261L9.66814 8.15296L8.09712 10.5428C7.81541 10.9785 7.77973 11.5401 8.00322 12.0077L8.0051 12.0105C8.84836 13.7525 10.2738 15.1742 12.0223 16.0156C12.4994 16.2419 13.0684 16.1987 13.5032 15.9048L15.8508 14.3366L20.2465 16.224C20.0042 18.0899 18.4041 19.4957 16.5222 19.4957V19.4966Z" fill="#8693A3"/>
</svg>
