<svg width="24" height="24" viewBox="0 0 24 24" fill="none" xmlns="http://www.w3.org/2000/svg">
<path fill-rule="evenodd" clip-rule="evenodd" d="M7 18.5C7 18.2239 7.22386 18 7.5 18H16.5C16.7761 18 17 18.2239 17 18.5C17 18.7761 16.7761 19 16.5 19H7.5C7.22386 19 7 18.7761 7 18.5Z" fill="black"/>
<path fill-rule="evenodd" clip-rule="evenodd" d="M12 9C11.1716 9 10.5 9.67157 10.5 10.5C10.5 11.3284 11.1716 12 12 12C12.8284 12 13.5 11.3284 13.5 10.5C13.5 9.67157 12.8284 9 12 9ZM9.5 10.5C9.5 9.11929 10.6193 8 12 8C13.3807 8 14.5 9.11929 14.5 10.5C14.5 11.8807 13.3807 13 12 13C10.6193 13 9.5 11.8807 9.5 10.5Z" fill="black"/>
<path fill-rule="evenodd" clip-rule="evenodd" d="M12 6C10.8065 6 9.66193 6.47411 8.81802 7.31802C7.97411 8.16193 7.5 9.30653 7.5 10.5C7.5 12.57 8.65592 14.4548 9.8773 15.8594C10.4819 16.5547 11.0877 17.1152 11.5426 17.5018C11.7224 17.6547 11.8781 17.7799 12 17.875C12.1219 17.7799 12.2776 17.6547 12.4574 17.5018C12.9123 17.1152 13.5181 16.5547 14.1227 15.8594C15.3441 14.4548 16.5 12.57 16.5 10.5C16.5 9.30653 16.0259 8.16193 15.182 7.31802C14.3381 6.47411 13.1935 6 12 6ZM12 18.5C11.7133 18.9096 11.7131 18.9095 11.713 18.9094L11.7126 18.9091L11.7114 18.9083L11.7077 18.9057L11.695 18.8966C11.6842 18.8889 11.6688 18.8778 11.649 18.8634C11.6096 18.8347 11.553 18.7927 11.4815 18.7381C11.3387 18.6289 11.1366 18.4692 10.8949 18.2638C10.4123 17.8535 9.76811 17.2578 9.1227 16.5156C7.84408 15.0452 6.5 12.93 6.5 10.5C6.5 9.04131 7.07946 7.64236 8.11091 6.61091C9.14236 5.57946 10.5413 5 12 5C13.4587 5 14.8576 5.57946 15.8891 6.61091C16.9205 7.64236 17.5 9.04131 17.5 10.5C17.5 12.93 16.1559 15.0452 14.8773 16.5156C14.2319 17.2578 13.5877 17.8535 13.1051 18.2638C12.8634 18.4692 12.6613 18.6289 12.5185 18.7381C12.447 18.7927 12.3904 18.8347 12.351 18.8634C12.3312 18.8778 12.3158 18.8889 12.305 18.8966L12.2923 18.9057L12.2886 18.9083L12.2874 18.9091L12.287 18.9094C12.2869 18.9095 12.2867 18.9096 12 18.5ZM12 18.5L12.287 18.9094C12.1149 19.0299 11.8851 19.0299 11.713 18.9094L12 18.5Z" fill="black"/>
</svg>
