<svg width="24" height="24" viewBox="0 0 24 24" fill="none" xmlns="http://www.w3.org/2000/svg">
<g clip-path="url(#clip0_437_6048)">
<path d="M20.2089 0H3.79111C1.70067 0 0 1.83933 0 4.10016V14.466C0 16.7268 1.70067 18.5661 3.79111 18.5661H8.72311L11.3774 23.6236C11.437 23.7372 11.5265 23.8322 11.6363 23.8986C11.746 23.9649 11.8718 24 12 24C12.1282 24 12.254 23.9649 12.3637 23.8986C12.4735 23.8322 12.563 23.7372 12.6226 23.6236L15.2769 18.5661H20.2089C22.2993 18.5661 24 16.7268 24 14.466V4.10016C24 1.83933 22.2993 0 20.2089 0ZM22.5938 14.466C22.5938 15.9514 21.5239 17.1599 20.2089 17.1599H14.8519C14.7236 17.1599 14.5979 17.1949 14.4881 17.2613C14.3784 17.3276 14.2889 17.4227 14.2293 17.5362L12 21.7838L9.77072 17.5362C9.71112 17.4227 9.62161 17.3276 9.51188 17.2613C9.40214 17.1949 9.27635 17.1599 9.14812 17.1599H3.79111C2.47608 17.1599 1.40625 15.9514 1.40625 14.466V4.10016C1.40625 2.61473 2.47608 1.40625 3.79111 1.40625H20.2089C21.5239 1.40625 22.5938 2.61473 22.5938 4.10016V14.466Z" fill="black"/>
<path d="M11.2257 7.88228C11.6193 7.4147 11.8571 6.81189 11.8571 6.15433C11.8571 4.67242 10.6514 3.4668 9.16936 3.4668C7.68741 3.4668 6.48169 4.67242 6.48169 6.15433C6.48169 6.81189 6.71944 7.4147 7.113 7.88228C5.55173 8.59956 4.46484 10.178 4.46484 12.0056V12.0332C4.46484 12.7311 5.03259 13.2988 5.73047 13.2988H12.6082C13.3061 13.2988 13.8738 12.7311 13.8738 12.0332V12.0056C13.8738 10.178 12.787 8.59956 11.2257 7.88228ZM9.16936 4.87305C9.87595 4.87305 10.4508 5.44783 10.4508 6.15433C10.4508 6.86083 9.87595 7.43556 9.16936 7.43556C8.46281 7.43556 7.88794 6.86078 7.88794 6.15433C7.88794 5.44788 8.46281 4.87305 9.16936 4.87305ZM5.87316 11.8926C5.93278 10.2195 7.31255 8.87683 8.99995 8.87683H9.33881C11.0262 8.87683 12.406 10.2195 12.4656 11.8926H5.87316ZM18.0812 5.72031C17.9782 5.72031 17.8845 5.73906 17.8096 5.78584L16.5735 6.53495C16.3861 6.64731 16.3019 6.83463 16.3019 7.03127C16.3019 7.32156 16.4891 7.61186 16.7607 7.61186C16.8262 7.61186 16.9105 7.59311 16.9949 7.53695L17.2664 7.36839V12.1347C17.2664 12.4344 17.6317 12.5842 17.9969 12.5842C18.3621 12.5842 18.7274 12.4344 18.7274 12.1347V6.17913C18.7274 5.89825 18.3809 5.72031 18.0812 5.72031Z" fill="black"/>
</g>
<defs>
<clipPath id="clip0_437_6048">
<rect width="24" height="24" fill="white"/>
</clipPath>
</defs>
</svg>
