<svg width="56" height="56" viewBox="0 0 56 56" fill="none" xmlns="http://www.w3.org/2000/svg">
<path d="M28.8649 20.4655C28.8649 23.9791 26.7338 26.9926 23.699 28.2735M20.4363 28.9311C16.9382 28.9311 13.9377 26.7906 12.6625 23.7425M12.0078 20.4655C12.0078 16.952 14.1389 13.9384 17.1737 12.6576M20.4363 12C23.9797 12 27.0124 14.1962 28.2587 17.3072" stroke="#8693A3" stroke-width="1.5" stroke-linecap="round" stroke-linejoin="round"/>
<path d="M17.1484 12.6675V14.8596" stroke="#8693A3" stroke-width="1.5" stroke-linecap="round"/>
<path d="M28.3672 17.3534L26.1847 17.3534" stroke="#8693A3" stroke-width="1.5" stroke-linecap="round"/>
<path d="M23.5747 28.3806L23.5747 26.1885" stroke="#8693A3" stroke-width="1.5" stroke-linecap="round"/>
<path d="M12.4414 23.545L14.6239 23.545" stroke="#8693A3" stroke-width="1.5" stroke-linecap="round"/>
<path d="M17.1751 12.6516H14.8452" stroke="#8693A3" stroke-width="1.5" stroke-linecap="round"/>
<path d="M28.3833 17.3811L28.3833 15.041" stroke="#8693A3" stroke-width="1.5" stroke-linecap="round"/>
<path d="M23.5475 28.3962L25.8774 28.3962" stroke="#8693A3" stroke-width="1.5" stroke-linecap="round"/>
<path d="M12.4258 23.5174L12.4258 25.8575" stroke="#8693A3" stroke-width="1.5" stroke-linecap="round"/>
<path d="M20.3975 15.6946V25.2689" stroke="#8693A3" stroke-width="1.5" stroke-linecap="round"/>
<path d="M24.5244 18.0881L16.269 22.8753" stroke="#8693A3" stroke-width="1.5" stroke-linecap="round"/>
<path d="M24.5244 22.8755L16.269 18.0883" stroke="#8693A3" stroke-width="1.5" stroke-linecap="round"/>
<path d="M19.0693 16.4668L20.3449 18.1713" stroke="#8693A3" stroke-width="1.5" stroke-linecap="round"/>
<path d="M21.7798 24.3973L20.5042 22.6928" stroke="#8693A3" stroke-width="1.5" stroke-linecap="round"/>
<path d="M24.2856 21.6053L23.0496 21.9743" stroke="#8693A3" stroke-width="1.5" stroke-linecap="round"/>
<path d="M17.8052 23.2335L17.77 21.9389" stroke="#8693A3" stroke-width="1.5" stroke-linecap="round"/>
<path d="M16.4795 19.28L17.7155 18.911" stroke="#8693A3" stroke-width="1.5" stroke-linecap="round"/>
<path d="M23.0615 17.6792L23.0967 18.9738" stroke="#8693A3" stroke-width="1.5" stroke-linecap="round"/>
<path d="M21.7798 16.4668L20.5042 18.1713" stroke="#8693A3" stroke-width="1.5" stroke-linecap="round"/>
<path d="M19.0693 24.3973L20.3449 22.6928" stroke="#8693A3" stroke-width="1.5" stroke-linecap="round"/>
<path d="M23.0483 23.2259L23.0493 21.9754" stroke="#8693A3" stroke-width="1.5" stroke-linecap="round"/>
<path d="M16.5674 21.614L17.7699 21.9389" stroke="#8693A3" stroke-width="1.5" stroke-linecap="round"/>
<path d="M17.7159 17.6593L17.7148 18.9099" stroke="#8693A3" stroke-width="1.5" stroke-linecap="round"/>
<path d="M24.3012 19.2986L23.0988 18.9737" stroke="#8693A3" stroke-width="1.5" stroke-linecap="round"/>
<path d="M20.4759 28.9197C20.4759 28.9197 18.6797 31.3756 17.8651 31.8361C17.0505 32.2966 13.5859 32.3606 12.7327 33.3071C11.8795 34.2537 12.0067 35.3537 12.0067 35.3537C12.0067 35.3537 12.0067 38.3341 12.0067 38.9353C12.0067 39.5365 12.3633 40.4831 13.4203 40.4831C14.4774 40.4831 15.3052 40.4831 15.3052 40.4831" stroke="#8693A3" stroke-width="1.5" stroke-linecap="round"/>
<path d="M22.1328 40.5123H31.9824" stroke="#8693A3" stroke-width="1.5" stroke-linecap="round"/>
<ellipse cx="18.832" cy="40.5121" rx="3.16993" ry="3.18384" stroke="#8693A3" stroke-width="1.5" stroke-linecap="round"/>
<ellipse cx="36.7246" cy="40.5121" rx="3.16993" ry="3.18384" stroke="#8693A3" stroke-width="1.5" stroke-linecap="round"/>
<ellipse cx="18.8323" cy="40.5123" rx="1.13893" ry="1.14393" stroke="#8693A3" stroke-width="1.5" stroke-linecap="round"/>
<ellipse cx="36.7249" cy="40.5123" rx="1.13893" ry="1.14393" stroke="#8693A3" stroke-width="1.5" stroke-linecap="round"/>
<path d="M27.2329 25.6593C27.2329 25.6593 32.4999 25.6593 34.4884 25.6593C36.4769 25.6593 37.3099 27.3731 37.3099 27.3731C37.3099 27.3731 37.8205 28.4122 38.5729 29.9641C39.3253 31.516 40.8838 32.2178 41.69 32.5416C42.4961 32.8655 43.5441 33.6212 43.5441 35.1461C43.5441 36.6711 43.5441 39.505 43.5441 39.505C43.5441 39.505 43.5441 40.571 42.2946 40.571C41.0451 40.571 39.9433 40.571 39.9433 40.571" stroke="#8693A3" stroke-width="1.5" stroke-linecap="round"/>
<path d="M24.603 32.5676V32.5676C24.603 31.4227 25.5311 30.4946 26.676 30.4946H33.2665C34.586 30.4946 35.6557 31.5643 35.6557 32.8838V32.8838C35.6557 34.2033 34.586 35.2729 33.2665 35.2729H27.1624" stroke="#8693A3" stroke-width="1.5" stroke-linecap="round"/>
<path d="M27.1655 35.294L29.1038 33.3835" stroke="#8693A3" stroke-width="1.5" stroke-linecap="round"/>
<path d="M27.1655 35.273L29.1038 37.1835" stroke="#8693A3" stroke-width="1.5" stroke-linecap="round"/>
<line x1="12.8569" y1="43.25" x2="12.6054" y2="43.25" stroke="#8693A3" stroke-width="1.5" stroke-linecap="round"/>
<line x1="15.0518" y1="43.25" x2="14.8002" y2="43.25" stroke="#8693A3" stroke-width="1.5" stroke-linecap="round"/>
<line x1="30.3604" y1="43.25" x2="30.1088" y2="43.25" stroke="#8693A3" stroke-width="1.5" stroke-linecap="round"/>
<line x1="19.582" y1="43.25" x2="27.6379" y2="43.25" stroke="#8693A3" stroke-width="1.5" stroke-linecap="round"/>
<line x1="32.7324" y1="43.25" x2="43.2497" y2="43.25" stroke="#8693A3" stroke-width="1.5" stroke-linecap="round"/>
</svg>
