<svg width="56" height="56" viewBox="0 0 56 56" fill="none" xmlns="http://www.w3.org/2000/svg">
<path d="M39.25 31.8125C39.25 25.5625 34.875 19.9375 34.875 19.9375C34.875 19.9375 33.625 26.1875 30.0886 27.4375C30.5 16.8125 21.75 12.9375 21.75 12.9375C21.75 12.9375 23.625 19.3125 19.875 24.3125C18.2709 26.4512 16.7502 29.065 16.75 31.8118C16.75 38.0257 21.7868 43.0625 28 43.0625C33.1061 43.0625 37.4176 39.6608 38.7921 35" stroke="#8693A3" stroke-width="1.5" stroke-miterlimit="10" stroke-linecap="round" stroke-linejoin="round"/>
<path d="M23.9375 33.6875C25.8125 31.1875 24.875 28.0625 24.875 28.0625C24.875 28.0625 29.25 29.9375 29.0443 35.25C30.8125 34.625 31.4375 31.5 31.4375 31.5C31.4375 31.5 33.625 34.3125 33.625 37.4375C33.625 40.5441 31.1066 43.0625 28 43.0625C24.8934 43.0625 22.375 40.5441 22.375 37.4372" stroke="#8693A3" stroke-width="1.5" stroke-miterlimit="10" stroke-linecap="round" stroke-linejoin="round"/>
<path d="M39.5625 14.0625C39.666 14.0625 39.75 13.9785 39.75 13.875C39.75 13.7715 39.666 13.6875 39.5625 13.6875C39.459 13.6875 39.375 13.7715 39.375 13.875C39.375 13.9785 39.459 14.0625 39.5625 14.0625Z" fill="#8693A3" stroke="#8693A3" stroke-width="1.5"/>
<path d="M32.6875 14.0625C32.791 14.0625 32.875 13.9785 32.875 13.875C32.875 13.7715 32.791 13.6875 32.6875 13.6875C32.584 13.6875 32.5 13.7715 32.5 13.875C32.5 13.9785 32.584 14.0625 32.6875 14.0625Z" fill="#8693A3" stroke="#8693A3" stroke-width="1.5"/>
<path d="M16.25 17.75C16.25 17.8535 16.334 17.9375 16.4375 17.9375C16.541 17.9375 16.625 17.8535 16.625 17.75C16.625 17.6465 16.541 17.5625 16.4375 17.5625C16.334 17.5625 16.25 17.6465 16.25 17.75Z" fill="#8693A3" stroke="#8693A3" stroke-width="1.5"/>
</svg>
