<svg width="56" height="56" viewBox="0 0 56 56" fill="none" xmlns="http://www.w3.org/2000/svg">
<path d="M30.5533 33.543V37.1873C30.5533 37.6364 30.9217 38.0002 31.3755 38.0002H35.482C36.3895 38.0002 37.1254 38.7286 37.1254 39.6259V43.7724C37.1254 44.6706 36.3895 45.3982 35.482 45.3982H21.2718C20.3643 45.3982 19.6284 44.6706 19.6284 43.7724V21.3337C19.6284 20.4355 20.3643 19.7072 21.2718 19.7072H23.9976C24.2228 19.7072 24.4456 19.753 24.6522 19.8424L29.5662 21.9567C30.1655 22.215 30.5533 22.8001 30.5533 23.448V30.7261" stroke="#8693A3" stroke-width="1.5" stroke-miterlimit="10" stroke-linecap="round" stroke-linejoin="round"/>
<path d="M27.5555 28.0814C27.5555 29.4284 26.4523 30.5205 25.0912 30.5205C23.7303 30.5205 22.627 29.4284 22.627 28.0814C22.627 27.0681 24.0215 25.2789 24.7124 24.4546C24.9092 24.2199 25.2732 24.2199 25.47 24.4546C26.161 25.2789 27.5555 27.0681 27.5555 28.0814Z" stroke="#8693A3" stroke-width="1.5" stroke-miterlimit="10" stroke-linecap="round" stroke-linejoin="round"/>
<path d="M27.3915 35.7238H22.7915C22.4285 35.7238 22.1343 35.4326 22.1343 35.0733V33.7725C22.1343 33.4133 22.4285 33.1221 22.7915 33.1221H27.3915C27.7544 33.1221 28.0486 33.4133 28.0486 33.7725V35.0733C28.0486 35.4326 27.7544 35.7238 27.3915 35.7238Z" stroke="#8693A3" stroke-width="1.5" stroke-miterlimit="10" stroke-linecap="round" stroke-linejoin="round"/>
<path d="M22.1343 40.1953H30.1433" stroke="#8693A3" stroke-width="1.5" stroke-miterlimit="10" stroke-linecap="round" stroke-linejoin="round"/>
<path d="M26.8576 42.7969H22.1343" stroke="#8693A3" stroke-width="1.5" stroke-miterlimit="10" stroke-linecap="round" stroke-linejoin="round"/>
<path d="M17.0005 17.7296V15.3168C17.0005 14.8684 17.368 14.5038 17.8218 14.5038H24.0645C24.5182 14.5038 24.8858 14.8684 24.8858 15.3168V17.1059L37.6297 22.5901C39.0691 23.2089 40.0001 24.615 40.0001 26.1683V38.124M40.0001 40.9409V45.3981C40.0001 46.8356 38.8235 48.0001 37.372 48.0001H19.6286C18.1771 48.0001 17.0005 46.8356 17.0005 45.3981V20.5465M36.4682 35.3985H33.8396C33.4767 35.3985 33.1825 35.1073 33.1825 34.7481V25.424C33.1825 24.9555 33.6677 24.6407 34.1017 24.8274L36.3352 25.7885C36.815 25.9951 37.1254 26.4636 37.1254 26.9815V34.7481C37.1254 35.1073 36.8311 35.3985 36.4682 35.3985Z" stroke="#8693A3" stroke-width="1.5" stroke-miterlimit="10" stroke-linecap="round" stroke-linejoin="round"/>
<path d="M17.9863 14.5042V11.9025" stroke="#8693A3" stroke-width="1.5" stroke-miterlimit="10" stroke-linecap="round" stroke-linejoin="round"/>
<path d="M23.8999 11.9025V14.5042" stroke="#8693A3" stroke-width="1.5" stroke-miterlimit="10" stroke-linecap="round" stroke-linejoin="round"/>
<path d="M24.0643 11.9025H17.8215C17.3677 11.9025 17 11.5384 17 11.0893V8.81296C17 8.36394 17.3677 8 17.8215 8H24.0643C24.518 8 24.8858 8.36394 24.8858 8.81296V11.0893C24.8858 11.5384 24.518 11.9025 24.0643 11.9025Z" stroke="#8693A3" stroke-width="1.5" stroke-miterlimit="10" stroke-linecap="round" stroke-linejoin="round"/>
</svg>
