<svg width="56" height="56" viewBox="0 0 56 56" fill="none" xmlns="http://www.w3.org/2000/svg">
<path d="M12.0328 36.9764V24.1156H9.48576L8 26.333V28.3286L9.2735 30.3243V36.9764H12.0328Z" stroke="#8693A3" stroke-width="1.5" stroke-linecap="round" stroke-linejoin="round"/>
<line x1="12.7832" y1="28.7808" x2="13.9717" y2="28.7808" stroke="#8693A3" stroke-width="1.5" stroke-linecap="round" stroke-linejoin="round"/>
<line x1="26.8979" y1="18.0967" x2="26.8979" y2="18.6273" stroke="#8693A3" stroke-width="1.5" stroke-linecap="round" stroke-linejoin="round"/>
<line x1="18.832" y1="30.2808" x2="18.832" y2="33.5189" stroke="#8693A3" stroke-width="1.5" stroke-linecap="round" stroke-linejoin="round"/>
<line x1="18.832" y1="26.8964" x2="18.832" y2="26.7501" stroke="#8693A3" stroke-width="1.5" stroke-linecap="round" stroke-linejoin="round"/>
<path d="M22.7871 31.1101L31.3007 23.4387L29.9565 29.7563H34.2133L25.6997 37.6533L27.268 31.1101H22.7871Z" stroke="#8693A3" stroke-width="1.5" stroke-linecap="round" stroke-linejoin="round"/>
<line x1="30.9292" y1="18.0967" x2="30.9292" y2="18.6273" stroke="#8693A3" stroke-width="1.5" stroke-linecap="round" stroke-linejoin="round"/>
<line x1="43.7012" y1="29.4575" x2="44.8897" y2="29.4575" stroke="#8693A3" stroke-width="1.5" stroke-linecap="round" stroke-linejoin="round"/>
<path d="M45.6392 25.4691V39.0068H47.5295L48.9998 37.7175V26.9733L47.5295 25.4691H45.6392Z" stroke="#8693A3" stroke-width="1.5" stroke-linecap="round" stroke-linejoin="round"/>
<line x1="12.7832" y1="31.488" x2="13.9717" y2="31.488" stroke="#8693A3" stroke-width="1.5" stroke-linecap="round" stroke-linejoin="round"/>
<line x1="43.7012" y1="33.5188" x2="44.8897" y2="33.5188" stroke="#8693A3" stroke-width="1.5" stroke-linecap="round" stroke-linejoin="round"/>
<path d="M19.0121 23.6644H14.7212V36.7508H19.0121L21.9479 41.0377H42.9506V23.6644H37.9822L35.0463 19.3774H21.9479L19.0121 23.6644Z" stroke="#8693A3" stroke-width="1.5" stroke-linecap="round" stroke-linejoin="round"/>
<path d="M39.5903 31.5612L39.5903 41.0375" stroke="#8693A3" stroke-width="1.5" stroke-linecap="round" stroke-linejoin="round"/>
<path d="M39.5903 24.1156L39.5903 28.8538" stroke="#8693A3" stroke-width="1.5" stroke-linecap="round" stroke-linejoin="round"/>
<path d="M26.7143 14H21V17H36V14H28.8571" stroke="#8693A3" stroke-width="1.5" stroke-linecap="round" stroke-linejoin="round"/>
</svg>
