<svg width="24" height="24" viewBox="0 0 24 24" fill="none" xmlns="http://www.w3.org/2000/svg">
<path d="M13.5997 9.03727C14.9226 9.03727 15.9996 7.90782 15.9996 6.51864C15.9996 5.12945 14.9234 4 13.5997 4C12.276 4 11.1998 5.12945 11.1998 6.51864C11.1998 7.90782 12.2767 9.03727 13.5997 9.03727ZM13.5997 5.25932C14.2612 5.25932 14.7996 5.82444 14.7996 6.51864C14.7996 7.21283 14.2612 7.77795 13.5997 7.77795C12.9382 7.77795 12.3997 7.21283 12.3997 6.51864C12.3997 5.82444 12.9382 5.25932 13.5997 5.25932Z" fill="#121212"/>
<path d="M18.821 12.1761C18.632 11.977 18.3462 11.9424 18.1235 12.0707L18.122 12.0675L18.131 12.0628C18.1265 12.0651 17.645 12.302 16.7646 12.2068C15.9268 12.1163 14.5544 11.7015 12.7702 10.2415C12.768 10.2399 12.7657 10.2376 12.7635 10.236C12.723 10.1919 12.6757 10.1541 12.6232 10.1234C11.496 9.23325 9.81082 8.31474 7.93664 8.69411C6.75243 8.93338 6.06696 9.57327 5.99271 9.64489C5.74972 9.88101 5.73322 10.2808 5.95821 10.5366C6.1832 10.7917 6.56119 10.809 6.80418 10.5729C6.88518 10.4973 8.73986 8.81138 11.649 10.9373C11.4218 11.759 10.9035 13.1348 10.0343 14.3957C10.0201 14.4138 10.0073 14.4327 9.99456 14.4515C9.93981 14.5295 9.88506 14.6066 9.82732 14.6837C8.41212 16.5829 6.67293 17.4377 4.66001 17.2252C4.33002 17.1906 4.03603 17.4424 4.00303 17.7887C3.97003 18.1351 4.21003 18.4436 4.54001 18.4782C4.77775 18.5034 5.01325 18.516 5.24649 18.516C7.35916 18.516 9.24459 17.4849 10.7378 15.5054C12.1972 15.9076 14.8004 17.0859 14.8004 20.3703C14.8004 20.7182 15.0689 21 15.4004 21C15.7318 21 16.0003 20.7182 16.0003 20.3703C16.0003 18.4294 15.2444 16.801 13.8142 15.6605C13.0267 15.0324 12.1575 14.6483 11.463 14.4169C12.0337 13.448 12.4275 12.4807 12.6697 11.7275C14.6046 13.1419 16.1421 13.4842 17.1778 13.4842C17.822 13.4842 18.272 13.352 18.5022 13.2623C18.5345 13.2528 18.5952 13.23 18.662 13.1922C18.6695 13.1883 18.6747 13.1859 18.6777 13.1844C18.7325 13.1513 18.7902 13.1096 18.8382 13.0576C19.0617 12.8152 19.0512 12.4185 18.8217 12.1761H18.821Z" fill="#121212"/>
</svg>
