<svg width="32" height="32" viewBox="0 0 32 32" fill="none" xmlns="http://www.w3.org/2000/svg">
<path fill-rule="evenodd" clip-rule="evenodd" d="M21 5C21 4.44772 21.4477 4 22 4H27C27.5523 4 28 4.44772 28 5V10C28 10.5523 27.5523 11 27 11C26.4477 11 26 10.5523 26 10V6H22C21.4477 6 21 5.55228 21 5Z" fill="#FF0000"/>
<path fill-rule="evenodd" clip-rule="evenodd" d="M5 21C5.55228 21 6 21.4477 6 22V26H10C10.5523 26 11 26.4477 11 27C11 27.5523 10.5523 28 10 28H5C4.44772 28 4 27.5523 4 27V22C4 21.4477 4.44772 21 5 21Z" fill="#FF0000"/>
<path fill-rule="evenodd" clip-rule="evenodd" d="M27 21C27.5523 21 28 21.4477 28 22V27C28 27.5523 27.5523 28 27 28H22C21.4477 28 21 27.5523 21 27C21 26.4477 21.4477 26 22 26H26V22C26 21.4477 26.4477 21 27 21Z" fill="#FF0000"/>
<path fill-rule="evenodd" clip-rule="evenodd" d="M4 5C4 4.44772 4.44772 4 5 4H10C10.5523 4 11 4.44772 11 5C11 5.55228 10.5523 6 10 6H6V10C6 10.5523 5.55228 11 5 11C4.44772 11 4 10.5523 4 10V5Z" fill="#FF0000"/>
<path fill-rule="evenodd" clip-rule="evenodd" d="M9 11C9 9.89543 9.89543 9 11 9H21C22.1046 9 23 9.89543 23 11V21C23 22.1046 22.1046 23 21 23H11C9.89543 23 9 22.1046 9 21V11ZM21 11H11V21H21V11Z" fill="#FF0000"/>
</svg>
