<svg width="100" height="100" viewBox="0 0 100 100" fill="none" xmlns="http://www.w3.org/2000/svg">
<path d="M48.4579 44.1355H45.9712C44.6249 44.1355 43.5322 45.227 43.5322 46.5745V57.3063C43.5322 58.6538 44.6249 59.7452 45.9712 59.7452H51.2103" stroke="#121212" stroke-width="1.5" stroke-miterlimit="10" stroke-linecap="round" stroke-linejoin="round"/>
<path d="M51.0503 58.8346L54.7064 60.0974C55.031 60.2096 55.3649 60.231 55.6806 60.1753C56.3559 60.0562 56.9481 59.5842 57.1878 58.8902C57.5396 57.8715 56.999 56.7606 55.9804 56.4088L50.2751 54.4383" stroke="#121212" stroke-width="1.5" stroke-miterlimit="10" stroke-linecap="round" stroke-linejoin="round"/>
<path d="M52.7786 68.636L56.4347 69.8988C56.7592 70.0109 57.0931 70.0323 57.4088 69.9767C58.0842 69.8576 58.6764 69.3855 58.9161 68.6915C59.2679 67.6729 58.7274 66.562 57.7088 66.2102L52.0034 64.2396" stroke="#121212" stroke-width="1.5" stroke-miterlimit="10" stroke-linecap="round" stroke-linejoin="round"/>
<path d="M49.3219 49.0332L52.9779 50.2961C53.3026 50.4081 53.6364 50.4296 53.9522 50.374C54.6274 50.2549 55.2197 49.7828 55.4593 49.0887C55.8112 48.0702 55.2706 46.9592 54.2521 46.6074L48.5466 44.6369" stroke="#121212" stroke-width="1.5" stroke-miterlimit="10" stroke-linecap="round" stroke-linejoin="round"/>
<path d="M47.5938 39.2319L51.2499 40.4947C51.5745 40.6067 51.9083 40.6282 52.224 40.5726C52.8994 40.4535 53.4916 39.9814 53.7313 39.2874C54.0832 38.2688 53.5426 37.1578 52.524 36.8061L46.8186 34.8355" stroke="#121212" stroke-width="1.5" stroke-miterlimit="10" stroke-linecap="round" stroke-linejoin="round"/>
<path d="M77.485 54.1735L74.4812 56.6106C74.2147 56.8269 73.9083 56.9614 73.5926 57.0171C72.9171 57.1361 72.1993 56.8949 71.7367 56.3247C71.0576 55.488 71.1856 54.2591 72.0224 53.5802L76.7098 49.7771" stroke="#121212" stroke-width="1.5" stroke-miterlimit="10" stroke-linecap="round" stroke-linejoin="round"/>
<path d="M79.2134 63.9748L76.2097 66.4119C75.9431 66.6282 75.6367 66.7627 75.321 66.8185C74.6457 66.9375 73.9278 66.6963 73.4652 66.1261C72.7862 65.2894 72.914 64.0605 73.7509 63.3816L78.4383 59.5785" stroke="#121212" stroke-width="1.5" stroke-miterlimit="10" stroke-linecap="round" stroke-linejoin="round"/>
<path d="M75.7567 44.3721L72.753 46.8092C72.4863 47.0255 72.1799 47.16 71.8642 47.2157C71.1889 47.3347 70.471 47.0935 70.0084 46.5234C69.3293 45.6867 69.4573 44.4577 70.2942 43.7789L74.9815 39.9757" stroke="#121212" stroke-width="1.5" stroke-miterlimit="10" stroke-linecap="round" stroke-linejoin="round"/>
<path d="M74.0287 34.5707L71.025 37.0078C70.7583 37.2241 70.4519 37.3586 70.1362 37.4142C69.4609 37.5333 68.7429 37.2922 68.2804 36.722C67.6014 35.8853 67.7292 34.6564 68.5662 33.9775L73.2534 30.1744" stroke="#121212" stroke-width="1.5" stroke-miterlimit="10" stroke-linecap="round" stroke-linejoin="round"/>
<path d="M53.4334 25.703L50.2608 26.262C47.6071 26.7292 45.835 29.2596 46.3033 31.9131L53.5033 72.7456C53.9705 75.3991 56.5009 77.1714 59.1545 76.7029L69.6043 74.8607" stroke="#121212" stroke-width="1.5" stroke-miterlimit="10" stroke-linecap="round" stroke-linejoin="round"/>
<path d="M57.5935 24.969L67.0739 23.297C69.7275 22.8287 72.2567 24.6008 72.7251 27.2544L79.9249 68.0868C80.3923 70.7405 78.6212 73.2708 75.9676 73.738L73.7644 74.1266" stroke="#121212" stroke-width="1.5" stroke-miterlimit="10" stroke-linecap="round" stroke-linejoin="round"/>
<path d="M63.1143 20V20.7243" stroke="#121212" stroke-width="1.5" stroke-linecap="round" stroke-linejoin="round"/>
<path d="M63.1143 24.694V77.2908" stroke="#121212" stroke-width="1.5" stroke-linecap="round" stroke-linejoin="round" stroke-dasharray="6 6"/>
<path d="M63.1143 79.2757V80" stroke="#121212" stroke-width="1.5" stroke-linecap="round" stroke-linejoin="round"/>
<path d="M31.2993 48.038H43.5323" stroke="#121212" stroke-width="1.5" stroke-miterlimit="10" stroke-linecap="round" stroke-linejoin="round"/>
<path d="M34.633 55.843H31.2998" stroke="#121212" stroke-width="1.5" stroke-miterlimit="10" stroke-linecap="round" stroke-linejoin="round"/>
<path d="M43.5328 55.843H38.8584" stroke="#121212" stroke-width="1.5" stroke-miterlimit="10" stroke-linecap="round" stroke-linejoin="round"/>
<path d="M20 39.9891C26.6005 39.9891 31.9512 45.3399 31.9512 51.9403C31.9512 58.5408 26.6005 63.8915 20 63.8915" stroke="#121212" stroke-width="1.5" stroke-miterlimit="10" stroke-linecap="round" stroke-linejoin="round"/>
<path d="M20 43.8916C24.4452 43.8916 28.0488 47.4952 28.0488 51.9404C28.0488 56.3856 24.4452 59.9892 20 59.9892" stroke="#121212" stroke-width="1.5" stroke-miterlimit="10" stroke-linecap="round" stroke-linejoin="round"/>
<path d="M20 23.897C24.4717 23.897 30.7553 25.7856 34.4637 29.9947" stroke="#121212" stroke-width="1.5" stroke-miterlimit="10" stroke-linecap="round" stroke-linejoin="round"/>
<path d="M34.4634 26.0922V29.9946H30.561" stroke="#121212" stroke-width="1.5" stroke-miterlimit="10" stroke-linecap="round" stroke-linejoin="round"/>
</svg>
