<svg width="24" height="24" viewBox="0 0 24 24" fill="none" xmlns="http://www.w3.org/2000/svg">
<rect width="24" height="24" rx="12" fill="white"/>
<path fill-rule="evenodd" clip-rule="evenodd" d="M12 5.64286C8.77834 5.64286 6.16667 8.36113 6.16667 11.7143C6.16667 15.0674 8.77834 17.7857 12 17.7857C15.2217 17.7857 17.8333 15.0674 17.8333 11.7143C17.8333 8.36113 15.2217 5.64286 12 5.64286ZM5 11.7143C5 7.6905 8.13401 4.42857 12 4.42857C15.866 4.42857 19 7.6905 19 11.7143C19 15.7381 15.866 19 12 19C8.13401 19 5 15.7381 5 11.7143Z" fill="#121212"/>
<path fill-rule="evenodd" clip-rule="evenodd" d="M15.3 8.27964C15.5278 8.51675 15.5278 8.90117 15.3 9.13827L12.4125 12.1436C12.1847 12.3807 11.8153 12.3807 11.5875 12.1436C11.3597 11.9065 11.3597 11.5221 11.5875 11.285L14.475 8.27964C14.7028 8.04254 15.0722 8.04254 15.3 8.27964Z" fill="#121212"/>
<path fill-rule="evenodd" clip-rule="evenodd" d="M9.66667 2.60714C9.66667 2.27183 9.92783 2 10.25 2H13.75C14.0722 2 14.3333 2.27183 14.3333 2.60714C14.3333 2.94246 14.0722 3.21429 13.75 3.21429H10.25C9.92783 3.21429 9.66667 2.94246 9.66667 2.60714Z" fill="#121212"/>
</svg>
