<svg width="100" height="100" viewBox="0 0 100 100" fill="none" xmlns="http://www.w3.org/2000/svg">
<path d="M51.3132 67C44.009 67 26.5921 67 24.8133 67C22.3133 67 22.3133 64 22.3133 64C22.3133 64 22.3132 59 21.3132 53.5C20.9648 49.6664 21.8748 50.2416 25.3132 44C26.8078 41.287 28.7165 37.0595 31.3133 31C32.8132 27.5 39.3133 27.5 39.3133 27.5C39.3133 27.5 45.3132 27 50.3133 27C55.3133 27 57.8132 27 62.3133 27.5C66.8133 28 67.3132 29.5 67.8133 30.5C70.127 36.2842 72.4295 40.5695 74.3132 44C76.5004 47.983 78.8134 49 77.8133 53.5C76.8132 58 77.3133 64 77.3133 64C77.3133 64 77.3133 67 73.8133 67C71.3501 67 61.4581 67 55.8132 67" stroke="#121212" stroke-width="1.5" stroke-linecap="round"/>
<path d="M39.3132 51.5H60.3132" stroke="#121212" stroke-width="1.5" stroke-linecap="round"/>
<path d="M41.8132 56L52.8132 56" stroke="#121212" stroke-width="1.5" stroke-linecap="round"/>
<path d="M55.8132 56L57.8132 56" stroke="#121212" stroke-width="1.5" stroke-linecap="round"/>
<path d="M28.8132 67C31.8132 63.5 32.8132 61.5 36.8132 61.5C40.8132 61.5 60.8132 61.5 63.8132 61.5C66.8132 61.5 68.3132 64 70.8132 67" stroke="#121212" stroke-width="1.5" stroke-linecap="round"/>
<path d="M19.3132 40C22.1414 42.8281 26.3132 41.5 26.3132 41.5C26.3132 41.5 26.3132 37.5 22.3132 37.5C19.8132 37.5 18.3132 39 19.3132 40Z" stroke="#121212" stroke-width="1.5" stroke-linecap="round"/>
<path d="M29.8132 46.5C26.3133 46.5 26.3132 49 26.3132 50C26.3132 50.3202 26.6281 51.3969 27.8132 52C30.3289 53.2802 35.8132 54.6798 35.8132 54C35.8132 52 33.3131 46.5 29.8132 46.5Z" stroke="#121212" stroke-width="1.5" stroke-linecap="round"/>
<path d="M69.8132 46.5C73.3131 46.5 73.3132 49 73.3132 50C73.3132 50.3202 72.9984 51.3969 71.8132 52C69.2976 53.2802 63.8132 54.6798 63.8132 54C63.8132 52 66.3133 46.5 69.8132 46.5Z" stroke="#121212" stroke-width="1.5" stroke-linecap="round"/>
<path d="M80.8132 40C77.9851 42.8281 73.8132 41.5 73.8132 41.5C73.8132 41.5 73.8132 37.5 77.8132 37.5C80.3132 37.5 81.8132 39 80.8132 40Z" stroke="#121212" stroke-width="1.5" stroke-linecap="round"/>
<path d="M22.8132 66V71C22.8132 72.1046 23.7087 73 24.8132 73H27.3132H29.8132C30.9178 73 31.8132 72.1046 31.8132 71V67" stroke="#121212" stroke-width="1.5"/>
<path d="M76.8132 65.5V71C76.8132 72.1046 75.9178 73 74.8132 73H72.3132H69.8132C68.7087 73 67.8132 72.1046 67.8132 71V67" stroke="#121212" stroke-width="1.5"/>
<path d="M27.8132 40H60.8132" stroke="#121212" stroke-width="1.5" stroke-linecap="round"/>
<path d="M65.8132 40L71.8132 40" stroke="#121212" stroke-width="1.5" stroke-linecap="round"/>
</svg>
