<svg width="100" height="100" viewBox="0 0 100 100" fill="none" xmlns="http://www.w3.org/2000/svg">
<path d="M61 53.0976L72.8261 49L85 53.0976V63C85 71.0244 72.8261 77 72.8261 77C72.8261 77 61 71.0244 61 63V53.0976Z" stroke="#121212" stroke-width="1.5"/>
<path d="M68 61.6346L72.0299 65L78 58" stroke="#121212" stroke-width="1.5" stroke-linecap="round"/>
<path d="M51.3132 67C44.009 67 26.5921 67 24.8133 67C22.3133 67 22.3133 64 22.3133 64C22.3133 64 22.3132 59 21.3132 53.5C20.9648 49.6664 21.8748 50.2416 25.3132 44C26.8078 41.287 28.7165 37.0595 31.3133 31C32.8132 27.5 39.3133 27.5 39.3133 27.5C39.3133 27.5 45.3132 27 50.3133 27C55.3133 27 57.8132 27 62.3133 27.5C66.8133 28 67.3132 29.5 67.8133 30.5C70.127 36.2842 72.4295 40.5695 74.3132 44C74.9804 45.215 75.6593 46.154 76.2523 47M55.8132 67C56.772 67 57.3534 67 58.5 67" stroke="#121212" stroke-width="1.5" stroke-linecap="round"/>
<path d="M39 52H58" stroke="#121212" stroke-width="1.5" stroke-linecap="round"/>
<path d="M42 56L52 56" stroke="#121212" stroke-width="1.5" stroke-linecap="round"/>
<path d="M55 56L57 56" stroke="#121212" stroke-width="1.5" stroke-linecap="round"/>
<path d="M28.8132 67C31.8132 63.5 32.8132 61.5 36.8132 61.5C40.8132 61.5 58 61.5 58 61.5" stroke="#121212" stroke-width="1.5" stroke-linecap="round"/>
<path d="M19.3132 40C22.1414 42.8281 26.3132 41.5 26.3132 41.5C26.3132 41.5 26.3132 37.5 22.3132 37.5C19.8132 37.5 18.3132 39 19.3132 40Z" stroke="#121212" stroke-width="1.5" stroke-linecap="round"/>
<path d="M29.8132 46.5C26.3133 46.5 26.3132 49 26.3132 50C26.3132 50.3202 26.6281 51.3969 27.8132 52C30.3289 53.2802 35.8132 54.6798 35.8132 54C35.8132 52 33.3131 46.5 29.8132 46.5Z" stroke="#121212" stroke-width="1.5" stroke-linecap="round"/>
<path d="M65.5 49C66.5625 47.375 68.0634 46.5 69.8133 46.5C70.7931 46.5 70.992 46.6959 71.5 47" stroke="#121212" stroke-width="1.5" stroke-linecap="round"/>
<path d="M80.8132 40C77.9851 42.8281 73.8132 41.5 73.8132 41.5C73.8132 41.5 73.8132 37.5 77.8132 37.5C80.3132 37.5 81.8132 39 80.8132 40Z" stroke="#121212" stroke-width="1.5" stroke-linecap="round"/>
<path d="M22.8132 66V71C22.8132 72.1046 23.7087 73 24.8132 73H27.3132H29.8132C30.9178 73 31.8132 72.1046 31.8132 71V67" stroke="#121212" stroke-width="1.5"/>
<path d="M27.8132 40H60.8132" stroke="#121212" stroke-width="1.5" stroke-linecap="round"/>
<path d="M65.8132 40L71.8132 40" stroke="#121212" stroke-width="1.5" stroke-linecap="round"/>
</svg>
