<svg width="24" height="24" viewBox="0 0 24 24" fill="none" xmlns="http://www.w3.org/2000/svg">
<path fill-rule="evenodd" clip-rule="evenodd" d="M12 3.75C7.44365 3.75 3.75 7.44365 3.75 12C3.75 16.5563 7.44365 20.25 12 20.25C16.5563 20.25 20.25 16.5563 20.25 12C20.25 7.44365 16.5563 3.75 12 3.75ZM2.25 12C2.25 6.61522 6.61522 2.25 12 2.25C17.3848 2.25 21.75 6.61522 21.75 12C21.75 17.3848 17.3848 21.75 12 21.75C6.61522 21.75 2.25 17.3848 2.25 12Z" fill="black"/>
<path fill-rule="evenodd" clip-rule="evenodd" d="M12 8.25C10.3431 8.25 9 9.59315 9 11.25C9 12.9069 10.3431 14.25 12 14.25C13.6569 14.25 15 12.9069 15 11.25C15 9.59315 13.6569 8.25 12 8.25ZM7.5 11.25C7.5 8.76472 9.51472 6.75 12 6.75C14.4853 6.75 16.5 8.76472 16.5 11.25C16.5 13.7353 14.4853 15.75 12 15.75C9.51472 15.75 7.5 13.7353 7.5 11.25Z" fill="black"/>
<path fill-rule="evenodd" clip-rule="evenodd" d="M12 15.75C10.892 15.75 9.80547 16.0563 8.86115 16.6359C7.91683 17.2155 7.15146 18.0453 6.64987 19.0333C6.46236 19.4026 6.01094 19.55 5.6416 19.3625C5.27226 19.175 5.12486 18.7236 5.31237 18.3543C5.93936 17.1193 6.89608 16.082 8.07647 15.3575C9.25687 14.633 10.615 14.25 12 14.25C13.385 14.25 14.7429 14.633 15.9233 15.3575C17.1037 16.082 18.0604 17.1193 18.6874 18.3543C18.8749 18.7236 18.7275 19.175 18.3581 19.3625C17.9888 19.55 17.5374 19.4026 17.3499 19.0333C16.8483 18.0453 16.0829 17.2155 15.1386 16.6359C14.1943 16.0563 13.108 15.75 12 15.75Z" fill="black"/>
</svg>
