<svg width="24" height="24" viewBox="0 0 24 24" fill="none" xmlns="http://www.w3.org/2000/svg">
<rect width="24" height="24" rx="12" fill="white"/>
<path fill-rule="evenodd" clip-rule="evenodd" d="M7.1 5H15.5C16.6184 5 17.5326 5.87424 17.5964 6.97661L17.6 7.1L17.6006 9.31972C18.4159 9.60818 19 10.3859 19 11.3V12.7C19 13.6141 18.4159 14.3918 17.6006 14.6803L17.6 16.9C17.6 18.0184 16.7258 18.9326 15.6234 18.9964L15.5 19H7.1C5.98162 19 5.06744 18.1258 5.00356 17.0234L5 16.9V7.1C5 5.98162 5.87424 5.06744 6.97661 5.00356L7.1 5H15.5H7.1ZM15.5 6.4H7.1C6.74101 6.4 6.44514 6.67023 6.40471 7.01837L6.4 7.1V16.9C6.4 17.259 6.67023 17.5549 7.01837 17.5953L7.1 17.6H15.5C15.859 17.6 16.1549 17.3298 16.1953 16.9816L16.2 16.9V14.8H15.5C14.3402 14.8 13.4 13.8598 13.4 12.7V11.3C13.4 10.1402 14.3402 9.2 15.5 9.2H16.2V7.1C16.2 6.74101 15.9298 6.44514 15.5816 6.40471L15.5 6.4ZM16.9 10.6H15.5C15.1134 10.6 14.8 10.9134 14.8 11.3V12.7C14.8 13.0866 15.1134 13.4 15.5 13.4H16.9C17.2866 13.4 17.6 13.0866 17.6 12.7V11.3C17.6 10.9134 17.2866 10.6 16.9 10.6Z" fill="#121212"/>
</svg>
