<svg width="24" height="24" viewBox="0 0 24 24" fill="none" xmlns="http://www.w3.org/2000/svg">
<path fill-rule="evenodd" clip-rule="evenodd" d="M15.9291 3.83001C15.2481 3.70534 14.5453 3.71612 13.8615 3.86624C12.7938 4.10066 11.826 4.66311 11.0939 5.47485C10.3617 6.28659 9.90164 7.30699 9.77819 8.39317C9.65475 9.47936 9.87406 10.577 10.4054 11.5323C10.5782 11.843 10.5092 12.2323 10.24 12.4646L4.16922 17.7042C3.89805 17.9844 3.74609 18.3594 3.74609 18.75C3.74609 19.1488 3.90454 19.5314 4.18658 19.8134C4.46861 20.0954 4.85114 20.2539 5.25 20.2539C5.6406 20.2539 6.01553 20.1019 6.29577 19.8308L11.5353 13.76L12.1031 14.25L12.4677 13.5945C13.423 14.1259 14.5206 14.3452 15.6068 14.2218C16.693 14.0983 17.7134 13.6383 18.5251 12.9061C19.3369 12.1739 19.8993 11.2062 20.1337 10.1385C20.2839 9.45473 20.2946 8.75188 20.17 8.0709L17.1247 11.1234C16.9471 11.3014 16.6922 11.3786 16.4457 11.329L13.7925 10.7946C13.4964 10.735 13.265 10.5035 13.2054 10.2074L12.671 7.55432C12.6214 7.30783 12.6985 7.05286 12.8765 6.87527L15.9291 3.83001ZM12.2909 15.1803L7.41152 20.8338C7.39954 20.8477 7.38705 20.8611 7.37408 20.8741C6.81074 21.4374 6.04668 21.7539 5.25 21.7539C4.45331 21.7539 3.68926 21.4374 3.12592 20.8741C2.56258 20.3107 2.24609 19.5467 2.24609 18.75C2.24609 17.9533 2.56258 17.1892 3.12592 16.6259C3.13889 16.6129 3.15233 16.6004 3.16621 16.5885L8.81966 11.7091C8.33778 10.6185 8.15232 9.4158 8.28779 8.22379C8.44656 6.82671 9.03825 5.51426 9.98002 4.47017C10.9218 3.42609 12.1665 2.70265 13.5399 2.40113C14.9132 2.09962 16.3465 2.23512 17.639 2.78868C17.868 2.88673 18.0333 3.09204 18.0803 3.33663C18.1273 3.58121 18.0498 3.83317 17.8734 4.00907L14.221 7.65284L14.5774 9.42256L16.3471 9.779L19.9909 6.12654C20.1668 5.95022 20.4188 5.87272 20.6634 5.9197C20.9079 5.96668 21.1133 6.13202 21.2113 6.36097C21.7649 7.65349 21.9004 9.08676 21.5989 10.4601C21.2973 11.8335 20.5739 13.0782 19.5298 14.02C18.4857 14.9617 17.1733 15.5534 15.7762 15.7122C14.5842 15.8477 13.3815 15.6622 12.2909 15.1803Z" fill="black"/>
</svg>
